<?xml version="1.0" encoding="UTF-8" standalone="no"?>
<svg
   xmlns:dc="http://purl.org/dc/elements/1.1/"
   xmlns:cc="http://creativecommons.org/ns#"
   xmlns:rdf="http://www.w3.org/1999/02/22-rdf-syntax-ns#"
   xmlns:svg="http://www.w3.org/2000/svg"
   xmlns="http://www.w3.org/2000/svg"
   xmlns:sodipodi="http://sodipodi.sourceforge.net/DTD/sodipodi-0.dtd"
   xmlns:inkscape="http://www.inkscape.org/namespaces/inkscape"
   version="1.0"
   width="1024"
   height="279.37909"
   id="svg2"
   inkscape:version="0.48.4 r9939"
   sodipodi:docname="Navy_and_Marine_Corps_Commendation_Medal_ribbon,_4th_award.svg">
  <metadata
     id="metadata14">
    <rdf:RDF>
      <cc:Work
         rdf:about="">
        <dc:format>image/svg+xml</dc:format>
        <dc:type
           rdf:resource="http://purl.org/dc/dcmitype/StillImage" />
      </cc:Work>
    </rdf:RDF>
  </metadata>
  <defs
     id="defs12" />
  <sodipodi:namedview
     pagecolor="#ffffff"
     bordercolor="#666666"
     borderopacity="1"
     objecttolerance="10"
     gridtolerance="10"
     guidetolerance="10"
     inkscape:pageopacity="0"
     inkscape:pageshadow="2"
     inkscape:window-width="1920"
     inkscape:window-height="1096"
     id="namedview10"
     showgrid="false"
     fit-margin-top="0"
     fit-margin-left="0"
     fit-margin-right="0"
     fit-margin-bottom="0"
     inkscape:zoom="0.4101237"
     inkscape:cx="-160.70096"
     inkscape:cy="-526.59691"
     inkscape:window-x="-8"
     inkscape:window-y="-8"
     inkscape:window-maximized="1"
     inkscape:current-layer="svg2" />
  <path
     d="M 0,1.5523011e-4 H 1024 V 279.37909 H 0 z"
     id="path4"
     inkscape:connector-curvature="0"
     style="fill:#7bafd4;fill-opacity:1" />
  <g
     id="layer2"
     transform="matrix(9.6603774,0,0,9.6337534,0,-9.6346373)">
    <g
       transform="translate(0,1.0108948e-4)"
       id="g2329">
      <path
         d="m 0,29 106,0 0,1 -106,0 0,-1 z"
         style="opacity:0.25;fill:#000000;fill-opacity:1;fill-rule:evenodd;stroke:none"
         id="path3508"
         inkscape:connector-curvature="0" />
      <path
         d="m 0,27 106,0 0,1 -106,0 0,-1 z"
         style="opacity:0.25;fill:#000000;fill-opacity:1;fill-rule:evenodd;stroke:none"
         id="path3510"
         inkscape:connector-curvature="0" />
      <path
         d="m 0,25 106,0 0,1 -106,0 0,-1 z"
         style="opacity:0.25;fill:#000000;fill-opacity:1;fill-rule:evenodd;stroke:none"
         id="path3512"
         inkscape:connector-curvature="0" />
      <path
         d="m 0,23 106,0 0,1 -106,0 0,-1 z"
         style="opacity:0.25;fill:#000000;fill-opacity:1;fill-rule:evenodd;stroke:none"
         id="path3514"
         inkscape:connector-curvature="0" />
      <path
         d="m 0,21 106,0 0,1 -106,0 0,-1 z"
         style="opacity:0.25;fill:#000000;fill-opacity:1;fill-rule:evenodd;stroke:none"
         id="path3516"
         inkscape:connector-curvature="0" />
      <path
         d="m 0,19 106,0 0,1 -106,0 0,-1 z"
         style="opacity:0.25;fill:#000000;fill-opacity:1;fill-rule:evenodd;stroke:none"
         id="path3518"
         inkscape:connector-curvature="0" />
      <path
         d="m 0,17 106,0 0,1 -106,0 0,-1 z"
         style="opacity:0.25;fill:#000000;fill-opacity:1;fill-rule:evenodd;stroke:none"
         id="path3520"
         inkscape:connector-curvature="0" />
      <path
         d="M 0,15 43.13238,15 106,15 106,16 0,16 z"
         style="opacity:0.25;fill:#000000;fill-opacity:1;fill-rule:evenodd;stroke:none"
         id="path3522"
         inkscape:connector-curvature="0"
         sodipodi:nodetypes="cccccc" />
      <path
         d="m 0,13 106,0 0,1 -106,0 0,-1 z"
         style="opacity:0.25;fill:#000000;fill-opacity:1;fill-rule:evenodd;stroke:none"
         id="path3524"
         inkscape:connector-curvature="0" />
      <path
         d="m 0,11 106,0 0,1 -106,0 0,-1 z"
         style="opacity:0.25;fill:#000000;fill-opacity:1;fill-rule:evenodd;stroke:none"
         id="path3526"
         inkscape:connector-curvature="0" />
      <path
         d="m 0,9 106,0 0,1 L 0,10 0,9 z"
         style="opacity:0.25;fill:#000000;fill-opacity:1;fill-rule:evenodd;stroke:none"
         id="path3528"
         inkscape:connector-curvature="0" />
      <path
         d="M 0,7 106,7 106,8 0,8 0,7 z"
         style="opacity:0.25;fill:#000000;fill-opacity:1;fill-rule:evenodd;stroke:none"
         id="path3530"
         inkscape:connector-curvature="0" />
      <path
         d="M 0,5 106,5 106,6 0,6 0,5 z"
         style="opacity:0.25;fill:#000000;fill-opacity:1;fill-rule:evenodd;stroke:none"
         id="path3532"
         inkscape:connector-curvature="0" />
      <path
         d="M 0,3 106,3 106,4 0,4 0,3 z"
         style="opacity:0.25;fill:#000000;fill-opacity:1;fill-rule:evenodd;stroke:none"
         id="path3534"
         inkscape:connector-curvature="0" />
      <path
         d="M 0,1 106,1 106,2 0,2 0,1 z"
         style="opacity:0.25;fill:#000000;fill-opacity:1;fill-rule:evenodd;stroke:none"
         id="path3536"
         inkscape:connector-curvature="0" />
    </g>
  </g>
  <path
     style="fill:#ffffff"
     d="m 310.12571,75.32383 25.6,81.92 -66.56001,-50.5303 h 81.92001 l -66.56,50.5303 z"
     id="path3776"
     inkscape:connector-curvature="0" />
  <path
     style="fill:#ffffff"
     d="m 108.25142,122.13526 25.60001,81.92 -66.560004,-50.53001 h 81.920004 l -66.560004,50.53001 z"
     id="path3774"
     inkscape:connector-curvature="0" />
  <path
     style="fill:#ffffff"
     d="m 512.00002,98.72136 25.6,81.92 -66.56,-50.53002 h 81.92 l -66.56,50.53002 z"
     id="path3772"
     inkscape:connector-curvature="0" />
  <path
     style="fill:#ffffff"
     d="m 713.87428,75.32383 25.6,81.92 -66.56,-50.53001 h 81.92 l -66.55997,50.53001 z"
     id="path3770"
     inkscape:connector-curvature="0" />
  <path
     style="fill:#ffffff"
     d="m 915.74857,122.13526 25.6,81.92 -66.56,-50.53001 h 81.92 l -66.56,50.53001 z"
     id="path6"
     inkscape:connector-curvature="0" />
</svg>
