<?xml version="1.0" encoding="UTF-8" standalone="no"?>
<svg
   xmlns:dc="http://purl.org/dc/elements/1.1/"
   xmlns:cc="http://creativecommons.org/ns#"
   xmlns:rdf="http://www.w3.org/1999/02/22-rdf-syntax-ns#"
   xmlns:svg="http://www.w3.org/2000/svg"
   xmlns="http://www.w3.org/2000/svg"
   xmlns:sodipodi="http://sodipodi.sourceforge.net/DTD/sodipodi-0.dtd"
   xmlns:inkscape="http://www.inkscape.org/namespaces/inkscape"
   width="1024"
   height="279.379"
   id="svg2"
   version="1.1"
   inkscape:version="0.48.4 r9939"
   sodipodi:docname="Joint_Service_Achievement_Medal_ribbon.svg">
  <metadata
     id="metadata26">
    <rdf:RDF>
      <cc:Work
         rdf:about="">
        <dc:format>image/svg+xml</dc:format>
        <dc:type
           rdf:resource="http://purl.org/dc/dcmitype/StillImage" />
      </cc:Work>
    </rdf:RDF>
  </metadata>
  <defs
     id="defs24" />
  <sodipodi:namedview
     pagecolor="#ffffff"
     bordercolor="#666666"
     borderopacity="1"
     objecttolerance="10"
     gridtolerance="10"
     guidetolerance="10"
     inkscape:pageopacity="0"
     inkscape:pageshadow="2"
     inkscape:window-width="1920"
     inkscape:window-height="1096"
     id="namedview22"
     showgrid="false"
     fit-margin-top="0"
     fit-margin-left="0"
     fit-margin-right="0"
     fit-margin-bottom="0"
     inkscape:zoom="0.58000252"
     inkscape:cx="175.51711"
     inkscape:cy="133.1615"
     inkscape:window-x="-8"
     inkscape:window-y="-8"
     inkscape:window-maximized="1"
     inkscape:current-layer="svg2" />
  <rect
     width="1024"
     height="279.37866"
     id="rect4"
     x="0"
     y="0.00034543389"
     style="fill:#215732;fill-opacity:1" />
  <rect
     width="883.56573"
     height="279.37866"
     x="70.217148"
     id="rect6"
     y="0.00034543389"
     style="fill:#ffcd00;fill-opacity:1" />
  <rect
     width="743.13135"
     height="279.37866"
     x="140.4343"
     id="rect8"
     y="0.00034543389"
     style="fill:#73381d;fill-opacity:1" />
  <rect
     width="602.69714"
     height="279.37866"
     x="210.65143"
     id="rect10"
     y="0.00034543389" />
  <rect
     width="462.26285"
     height="279.37866"
     x="280.86856"
     id="rect12"
     y="0.00034543389"
     style="fill:#7bafd4;fill-opacity:1" />
  <rect
     width="140.4343"
     height="279.37866"
     x="441.78287"
     id="rect18"
     y="0.00034543389"
     style="fill:#ffffff" />
  <rect
     width="46.811424"
     height="279.37866"
     x="441.78287"
     id="rect14"
     y="0.00034543389"
     style="fill:#001489;fill-opacity:1" />
  <rect
     width="46.811424"
     height="279.37866"
     x="535.40564"
     id="rect16"
     y="0.00034543389"
     style="fill:#ba0c2f;fill-opacity:1" />
  <g
     id="layer2"
     transform="matrix(9.6603774,0,0,9.6337461,0,-9.6347155)">
    <g
       transform="translate(0,1.0108948e-4)"
       id="g2329">
      <path
         d="m 0,29 106,0 0,1 -106,0 0,-1 z"
         style="opacity:0.25;fill:#000000;fill-opacity:1;fill-rule:evenodd;stroke:none"
         id="path3508"
         inkscape:connector-curvature="0" />
      <path
         d="m 0,27 106,0 0,1 -106,0 0,-1 z"
         style="opacity:0.25;fill:#000000;fill-opacity:1;fill-rule:evenodd;stroke:none"
         id="path3510"
         inkscape:connector-curvature="0" />
      <path
         d="m 0,25 106,0 0,1 -106,0 0,-1 z"
         style="opacity:0.25;fill:#000000;fill-opacity:1;fill-rule:evenodd;stroke:none"
         id="path3512"
         inkscape:connector-curvature="0" />
      <path
         d="m 0,23 106,0 0,1 -106,0 0,-1 z"
         style="opacity:0.25;fill:#000000;fill-opacity:1;fill-rule:evenodd;stroke:none"
         id="path3514"
         inkscape:connector-curvature="0" />
      <path
         d="m 0,21 106,0 0,1 -106,0 0,-1 z"
         style="opacity:0.25;fill:#000000;fill-opacity:1;fill-rule:evenodd;stroke:none"
         id="path3516"
         inkscape:connector-curvature="0" />
      <path
         d="m 0,19 106,0 0,1 -106,0 0,-1 z"
         style="opacity:0.25;fill:#000000;fill-opacity:1;fill-rule:evenodd;stroke:none"
         id="path3518"
         inkscape:connector-curvature="0" />
      <path
         d="m 0,17 106,0 0,1 -106,0 0,-1 z"
         style="opacity:0.25;fill:#000000;fill-opacity:1;fill-rule:evenodd;stroke:none"
         id="path3520"
         inkscape:connector-curvature="0" />
      <path
         d="m 0,15 106,0 0,1 -106,0 0,-1 z"
         style="opacity:0.25;fill:#000000;fill-opacity:1;fill-rule:evenodd;stroke:none"
         id="path3522"
         inkscape:connector-curvature="0" />
      <path
         d="m 0,13 106,0 0,1 -106,0 0,-1 z"
         style="opacity:0.25;fill:#000000;fill-opacity:1;fill-rule:evenodd;stroke:none"
         id="path3524"
         inkscape:connector-curvature="0" />
      <path
         d="m 0,11 106,0 0,1 -106,0 0,-1 z"
         style="opacity:0.25;fill:#000000;fill-opacity:1;fill-rule:evenodd;stroke:none"
         id="path3526"
         inkscape:connector-curvature="0" />
      <path
         d="m 0,9 106,0 0,1 L 0,10 0,9 z"
         style="opacity:0.25;fill:#000000;fill-opacity:1;fill-rule:evenodd;stroke:none"
         id="path3528"
         inkscape:connector-curvature="0" />
      <path
         d="M 0,7 106,7 106,8 0,8 0,7 z"
         style="opacity:0.25;fill:#000000;fill-opacity:1;fill-rule:evenodd;stroke:none"
         id="path3530"
         inkscape:connector-curvature="0" />
      <path
         d="M 0,5 106,5 106,6 0,6 0,5 z"
         style="opacity:0.25;fill:#000000;fill-opacity:1;fill-rule:evenodd;stroke:none"
         id="path3532"
         inkscape:connector-curvature="0" />
      <path
         d="M 0,3 106,3 106,4 0,4 0,3 z"
         style="opacity:0.25;fill:#000000;fill-opacity:1;fill-rule:evenodd;stroke:none"
         id="path3534"
         inkscape:connector-curvature="0" />
      <path
         d="M 0,1 106,1 106,2 0,2 0,1 z"
         style="opacity:0.25;fill:#000000;fill-opacity:1;fill-rule:evenodd;stroke:none"
         id="path3536"
         inkscape:connector-curvature="0" />
    </g>
  </g>
</svg>
