<?xml version="1.0" encoding="UTF-8" standalone="no"?>
<!-- Created with Inkscape (http://www.inkscape.org/) -->

<svg
   xmlns:dc="http://purl.org/dc/elements/1.1/"
   xmlns:cc="http://creativecommons.org/ns#"
   xmlns:rdf="http://www.w3.org/1999/02/22-rdf-syntax-ns#"
   xmlns:svg="http://www.w3.org/2000/svg"
   xmlns="http://www.w3.org/2000/svg"
   xmlns:sodipodi="http://sodipodi.sourceforge.net/DTD/sodipodi-0.dtd"
   xmlns:inkscape="http://www.inkscape.org/namespaces/inkscape"
   version="1.0"
   width="1024"
   height="279.379"
   id="svg2"
   sodipodi:version="0.32"
   inkscape:version="0.48.4 r9939"
   sodipodi:docname="Joint_Service_Achievement_Medal_ribbon.svg"
   inkscape:output_extension="org.inkscape.output.svg.inkscape">
  <metadata
     id="metadata108">
    <rdf:RDF>
      <cc:Work
         rdf:about="">
        <dc:format>image/svg+xml</dc:format>
        <dc:type
           rdf:resource="http://purl.org/dc/dcmitype/StillImage" />
      </cc:Work>
    </rdf:RDF>
  </metadata>
  <sodipodi:namedview
     inkscape:window-height="1096"
     inkscape:window-width="1920"
     inkscape:pageshadow="2"
     inkscape:pageopacity="0.0"
     guidetolerance="10.0"
     gridtolerance="10.0"
     objecttolerance="10.0"
     borderopacity="1.0"
     bordercolor="#666666"
     pagecolor="#ffffff"
     id="base"
     inkscape:zoom="2.4900433"
     inkscape:cx="13.016207"
     inkscape:cy="-42.898181"
     inkscape:window-x="-8"
     inkscape:window-y="-8"
     inkscape:current-layer="svg2"
     showgrid="false"
     fit-margin-top="0"
     fit-margin-left="0"
     fit-margin-right="0"
     fit-margin-bottom="0"
     inkscape:window-maximized="1" />
  <defs
     id="defs4" />
  <path
     d="m 0,1.1935191e-4 1024,0 0,279.37796064809 -1024,0 L 0,1.1935191e-4 z"
     style="fill:#ffc658;fill-opacity:1;fill-rule:evenodd;stroke:none"
     id="path2178"
     inkscape:connector-curvature="0" />
  <g
     transform="matrix(0.4805977,0,0,2.8301887,28.301887,-2699.0046)"
     style="fill:#a67300;fill-opacity:1"
     id="g2828" />
  <path
     d="m 43.885714,1.1935191e-4 936.228536,0 0,279.37796064809 -936.228536,0 0,-279.37796064809 z"
     style="fill:#115740;fill-opacity:1;fill-rule:evenodd;stroke:none"
     id="path3356"
     inkscape:connector-curvature="0" />
  <path
     d="m 137.50857,1.1935191e-4 748.98286,0 0,279.37796064809 -748.98286,0 0,-279.37796064809 z"
     style="fill:#215732;fill-opacity:1;fill-rule:evenodd;stroke:none"
     id="path3390"
     inkscape:connector-curvature="0" />
  <path
     d="m 231.13143,1.1935191e-4 561.73714,0 0,279.37796064809 -561.73714,0 0,-279.37796064809 z"
     style="fill:#7a9a01;fill-opacity:1;fill-rule:evenodd;stroke:none"
     id="path3424"
     inkscape:connector-curvature="0" />
  <path
     d="m 324.75428,1.1935191e-4 93.62286,0 0,279.37796064809 -93.62286,0 0,-279.37796064809 z"
     style="fill:#ffc658;fill-opacity:1;fill-rule:evenodd;stroke:none"
     id="path3458"
     inkscape:connector-curvature="0" />
  <path
     d="m 418.37714,1.1935191e-4 187.24572,0 0,279.37796064809 -187.24572,0 0,-279.37796064809 z"
     style="fill:#7bafd4;fill-opacity:1;fill-rule:evenodd;stroke:none"
     id="path4461"
     inkscape:connector-curvature="0" />
  <g
     id="g2293"
     style="fill:#a67300;fill-opacity:1"
     transform="matrix(0.4805977,0,0,2.8301887,28.301887,-2659.0046)" />
  <path
     d="m 699.24571,0.00103942 -93.62285,0 0,279.37796058 93.62285,0 0,-279.37796058 z"
     style="fill:#ffc658;fill-opacity:1;fill-rule:evenodd;stroke:none"
     id="path3458-0"
     inkscape:connector-curvature="0" />
  <g
     id="g2485"
     transform="matrix(9.6603774,0,0,9.6337516,0,-9.6337516)">
    <path
       id="path3508"
       style="opacity:0.25;fill:#000000;fill-opacity:1;fill-rule:evenodd;stroke:none"
       d="m 0,29 106,0 0,1 -106,0 0,-1 z"
       inkscape:connector-curvature="0" />
    <path
       id="path3510"
       style="opacity:0.25;fill:#000000;fill-opacity:1;fill-rule:evenodd;stroke:none"
       d="m 0,27 106,0 0,1 -106,0 0,-1 z"
       inkscape:connector-curvature="0" />
    <path
       id="path3512"
       style="opacity:0.25;fill:#000000;fill-opacity:1;fill-rule:evenodd;stroke:none"
       d="m 0,25 106,0 0,1 -106,0 0,-1 z"
       inkscape:connector-curvature="0" />
    <path
       id="path3514"
       style="opacity:0.25;fill:#000000;fill-opacity:1;fill-rule:evenodd;stroke:none"
       d="m 0,23 106,0 0,1 -106,0 0,-1 z"
       inkscape:connector-curvature="0" />
    <path
       id="path3516"
       style="opacity:0.25;fill:#000000;fill-opacity:1;fill-rule:evenodd;stroke:none"
       d="m 0,21 106,0 0,1 -106,0 0,-1 z"
       inkscape:connector-curvature="0" />
    <path
       id="path3518"
       style="opacity:0.25;fill:#000000;fill-opacity:1;fill-rule:evenodd;stroke:none"
       d="m 0,19 106,0 0,1 -106,0 0,-1 z"
       inkscape:connector-curvature="0" />
    <path
       id="path3520"
       style="opacity:0.25;fill:#000000;fill-opacity:1;fill-rule:evenodd;stroke:none"
       d="m 0,17 106,0 0,1 -106,0 0,-1 z"
       inkscape:connector-curvature="0" />
    <path
       id="path3522"
       style="opacity:0.25;fill:#000000;fill-opacity:1;fill-rule:evenodd;stroke:none"
       d="m 0,15 106,0 0,1 -106,0 0,-1 z"
       inkscape:connector-curvature="0" />
    <path
       id="path3524"
       style="opacity:0.25;fill:#000000;fill-opacity:1;fill-rule:evenodd;stroke:none"
       d="m 0,13 106,0 0,1 -106,0 0,-1 z"
       inkscape:connector-curvature="0" />
    <path
       id="path3526"
       style="opacity:0.25;fill:#000000;fill-opacity:1;fill-rule:evenodd;stroke:none"
       d="m 0,11 106,0 0,1 -106,0 0,-1 z"
       inkscape:connector-curvature="0" />
    <path
       id="path3528"
       style="opacity:0.25;fill:#000000;fill-opacity:1;fill-rule:evenodd;stroke:none"
       d="m 0,9 106,0 0,1 L 0,10 0,9 z"
       inkscape:connector-curvature="0" />
    <path
       id="path3530"
       style="opacity:0.25;fill:#000000;fill-opacity:1;fill-rule:evenodd;stroke:none"
       d="M 0,7 106,7 106,8 0,8 0,7 z"
       inkscape:connector-curvature="0" />
    <path
       id="path3532"
       style="opacity:0.25;fill:#000000;fill-opacity:1;fill-rule:evenodd;stroke:none"
       d="M 0,5 106,5 106,6 0,6 0,5 z"
       inkscape:connector-curvature="0" />
    <path
       id="path3534"
       style="opacity:0.25;fill:#000000;fill-opacity:1;fill-rule:evenodd;stroke:none"
       d="M 0,3 106,3 106,4 0,4 0,3 z"
       inkscape:connector-curvature="0" />
    <path
       id="path3536"
       style="opacity:0.25;fill:#000000;fill-opacity:1;fill-rule:evenodd;stroke:none"
       d="M 0,1 106,1 106,2 0,2 0,1 z"
       inkscape:connector-curvature="0" />
  </g>
</svg>
