<?xml version="1.0" encoding="UTF-8" standalone="no"?>
<!-- Created with Inkscape (http://www.inkscape.org/) -->
<svg
   xmlns:svg="http://www.w3.org/2000/svg"
   xmlns="http://www.w3.org/2000/svg"
   version="1.0"
   width="106"
   height="30.000101"
   id="svg2">
  <defs
     id="defs4" />
  <g
     id="layer4">
    <path
       d="M 0,0.00010508948 L 106,0.00010508948 L 106,30.000101 L 0,30.000101 L 0,0.00010508948 z "
       style="fill:#ef0000;fill-opacity:1;fill-rule:evenodd;stroke:none;stroke-width:1px;stroke-linecap:butt;stroke-linejoin:miter;stroke-opacity:1"
       id="path10890" />
    <path
       d="M 43,0.00010508948 L 63,0.00010508948 L 63,30.000101 L 43,30.000101 L 43,0.00010508948 z "
       style="fill:#ffffff;fill-opacity:1;fill-rule:evenodd;stroke:none;stroke-width:1px;stroke-linecap:butt;stroke-linejoin:miter;stroke-opacity:1"
       id="path12024" />
  </g>
  <g
     id="layer3">
    <path
       d="M 0,29.000101 L 106,29.000101 L 106,30.000101 L 0,30.000101 L 0,29.000101 z "
       style="opacity:0.25;fill:#000000;fill-opacity:1;fill-rule:evenodd;stroke:none;stroke-width:1px;stroke-linecap:butt;stroke-linejoin:miter;stroke-opacity:1"
       id="path3508" />
    <path
       d="M 0,27.000101 L 106,27.000101 L 106,28.000101 L 0,28.000101 L 0,27.000101 z "
       style="opacity:0.25;fill:#000000;fill-opacity:1;fill-rule:evenodd;stroke:none;stroke-width:1px;stroke-linecap:butt;stroke-linejoin:miter;stroke-opacity:1"
       id="path3510" />
    <path
       d="M 0,25.000101 L 106,25.000101 L 106,26.000101 L 0,26.000101 L 0,25.000101 z "
       style="opacity:0.25;fill:#000000;fill-opacity:1;fill-rule:evenodd;stroke:none;stroke-width:1px;stroke-linecap:butt;stroke-linejoin:miter;stroke-opacity:1"
       id="path3512" />
    <path
       d="M 0,23.000101 L 106,23.000101 L 106,24.000101 L 0,24.000101 L 0,23.000101 z "
       style="opacity:0.25;fill:#000000;fill-opacity:1;fill-rule:evenodd;stroke:none;stroke-width:1px;stroke-linecap:butt;stroke-linejoin:miter;stroke-opacity:1"
       id="path3514" />
    <path
       d="M 0,21.000101 L 106,21.000101 L 106,22.000101 L 0,22.000101 L 0,21.000101 z "
       style="opacity:0.25;fill:#000000;fill-opacity:1;fill-rule:evenodd;stroke:none;stroke-width:1px;stroke-linecap:butt;stroke-linejoin:miter;stroke-opacity:1"
       id="path3516" />
    <path
       d="M 0,19.000101 L 106,19.000101 L 106,20.000101 L 0,20.000101 L 0,19.000101 z "
       style="opacity:0.25;fill:#000000;fill-opacity:1;fill-rule:evenodd;stroke:none;stroke-width:1px;stroke-linecap:butt;stroke-linejoin:miter;stroke-opacity:1"
       id="path3518" />
    <path
       d="M 0,17.000101 L 106,17.000101 L 106,18.000101 L 0,18.000101 L 0,17.000101 z "
       style="opacity:0.25;fill:#000000;fill-opacity:1;fill-rule:evenodd;stroke:none;stroke-width:1px;stroke-linecap:butt;stroke-linejoin:miter;stroke-opacity:1"
       id="path3520" />
    <path
       d="M 0,15.000101 L 106,15.000101 L 106,16.000101 L 0,16.000101 L 0,15.000101 z "
       style="opacity:0.25;fill:#000000;fill-opacity:1;fill-rule:evenodd;stroke:none;stroke-width:1px;stroke-linecap:butt;stroke-linejoin:miter;stroke-opacity:1"
       id="path3522" />
    <path
       d="M 0,13.000101 L 106,13.000101 L 106,14.000101 L 0,14.000101 L 0,13.000101 z "
       style="opacity:0.25;fill:#000000;fill-opacity:1;fill-rule:evenodd;stroke:none;stroke-width:1px;stroke-linecap:butt;stroke-linejoin:miter;stroke-opacity:1"
       id="path3524" />
    <path
       d="M 0,11.000101 L 106,11.000101 L 106,12.000101 L 0,12.000101 L 0,11.000101 z "
       style="opacity:0.25;fill:#000000;fill-opacity:1;fill-rule:evenodd;stroke:none;stroke-width:1px;stroke-linecap:butt;stroke-linejoin:miter;stroke-opacity:1"
       id="path3526" />
    <path
       d="M 0,9.0001011 L 106,9.0001011 L 106,10.000101 L 0,10.000101 L 0,9.0001011 z "
       style="opacity:0.25;fill:#000000;fill-opacity:1;fill-rule:evenodd;stroke:none;stroke-width:1px;stroke-linecap:butt;stroke-linejoin:miter;stroke-opacity:1"
       id="path3528" />
    <path
       d="M 0,7.0001011 L 106,7.0001011 L 106,8.0001011 L 0,8.0001011 L 0,7.0001011 z "
       style="opacity:0.25;fill:#000000;fill-opacity:1;fill-rule:evenodd;stroke:none;stroke-width:1px;stroke-linecap:butt;stroke-linejoin:miter;stroke-opacity:1"
       id="path3530" />
    <path
       d="M 0,5.0001011 L 106,5.0001011 L 106,6.0001011 L 0,6.0001011 L 0,5.0001011 z "
       style="opacity:0.25;fill:#000000;fill-opacity:1;fill-rule:evenodd;stroke:none;stroke-width:1px;stroke-linecap:butt;stroke-linejoin:miter;stroke-opacity:1"
       id="path3532" />
    <path
       d="M 0,3.0001011 L 106,3.0001011 L 106,4.0001011 L 0,4.0001011 L 0,3.0001011 z "
       style="opacity:0.25;fill:#000000;fill-opacity:1;fill-rule:evenodd;stroke:none;stroke-width:1px;stroke-linecap:butt;stroke-linejoin:miter;stroke-opacity:1"
       id="path3534" />
    <path
       d="M 0,1.0001011 L 106,1.0001011 L 106,2.0001011 L 0,2.0001011 L 0,1.0001011 z "
       style="opacity:0.25;fill:#000000;fill-opacity:1;fill-rule:evenodd;stroke:none;stroke-width:1px;stroke-linecap:butt;stroke-linejoin:miter;stroke-opacity:1"
       id="path3536" />
  </g>
</svg>
