<?xml version="1.0" encoding="UTF-8" standalone="no"?>
<!-- Created with Inkscape (http://www.inkscape.org/) -->
<svg
   xmlns:dc="http://purl.org/dc/elements/1.1/"
   xmlns:cc="http://web.resource.org/cc/"
   xmlns:rdf="http://www.w3.org/1999/02/22-rdf-syntax-ns#"
   xmlns:svg="http://www.w3.org/2000/svg"
   xmlns="http://www.w3.org/2000/svg"
   xmlns:sodipodi="http://sodipodi.sourceforge.net/DTD/sodipodi-0.dtd"
   xmlns:inkscape="http://www.inkscape.org/namespaces/inkscape"
   id="svg2"
   sodipodi:version="0.32"
   inkscape:version="0.45.1"
   width="218"
   height="60"
   version="1.0"
   sodipodi:docbase="C:\Documents and Settings\Flanker\Desktop\Temporanei\SVG\Nastrini"
   sodipodi:docname="Cavaliere OMRI BAR.svg"
   inkscape:output_extension="org.inkscape.output.svg.inkscape">
  <metadata
     id="metadata7">
    <rdf:RDF>
      <cc:Work
         rdf:about="">
        <dc:format>image/svg+xml</dc:format>
        <dc:type
           rdf:resource="http://purl.org/dc/dcmitype/StillImage" />
      </cc:Work>
    </rdf:RDF>
  </metadata>
  <defs
     id="defs5" />
  <sodipodi:namedview
     inkscape:window-height="1005"
     inkscape:window-width="1279"
     inkscape:pageshadow="2"
     inkscape:pageopacity="0.0"
     guidetolerance="10.0"
     gridtolerance="10.0"
     objecttolerance="10.0"
     borderopacity="1.0"
     bordercolor="#666666"
     pagecolor="#ffffff"
     id="base"
     inkscape:zoom="3.8826001"
     inkscape:cx="78.66075"
     inkscape:cy="58.29878"
     inkscape:window-x="1"
     inkscape:window-y="0"
     inkscape:current-layer="svg2"
     height="60px"
     width="218px"
     inkscape:showpageshadow="false"
     showguides="true"
     inkscape:guide-bbox="true" />
  <rect
     style="opacity:1;fill:#6aa43e;fill-opacity:1;fill-rule:nonzero;stroke:none;stroke-width:2;stroke-linecap:round;stroke-linejoin:round;stroke-miterlimit:4;stroke-dasharray:none;stroke-dashoffset:0;stroke-opacity:0.48587569"
     id="rect3411"
     width="218"
     height="60"
     x="0"
     y="0" />
  <path
     style="opacity:1;fill:#eb1e1e;fill-opacity:1;fill-rule:nonzero;stroke:none;stroke-width:2;stroke-linecap:round;stroke-linejoin:round;stroke-miterlimit:4;stroke-dasharray:none;stroke-dashoffset:0;stroke-opacity:0.48587569"
     d="M 25.03125,0 L 25.03125,60 L 54.65625,60 L 54.65625,0 L 25.03125,0 z M 163.34375,0 L 163.34375,60 L 192.96875,60 L 192.96875,0 L 163.34375,0 z "
     id="path6653" />
  <path
     style="opacity:1;fill:#000000;fill-opacity:0.47058824;fill-rule:nonzero;stroke:none;stroke-width:2;stroke-linecap:round;stroke-linejoin:round;stroke-miterlimit:4;stroke-dasharray:none;stroke-dashoffset:0;stroke-opacity:0.48587569"
     d="M 0 3 L 0 6 L 218 6 L 218 3 L 0 3 z M 0 9 L 0 12 L 218 12 L 218 9 L 0 9 z M 0 15 L 0 18 L 218 18 L 218 15 L 0 15 z M 0 21 L 0 24 L 218 24 L 218 21 L 0 21 z M 0 27 L 0 30 L 218 30 L 218 27 L 0 27 z M 0 33 L 0 36 L 218 36 L 218 33 L 0 33 z M 0 39 L 0 42 L 218 42 L 218 39 L 0 39 z M 0 45 L 0 48 L 218 48 L 218 45 L 0 45 z M 0 51 L 0 54 L 218 54 L 218 51 L 0 51 z M 0 57 L 0 60 L 218 60 L 218 57 L 0 57 z "
     id="rect3413" />
  <g
     transform="matrix(0.1863653,0,0,0.1863653,26.299698,434.62812)"
     id="g2512" />
  <g
     transform="matrix(0.1863653,0,0,0.1863653,26.299698,434.62812)"
     id="g2514" />
  <g
     transform="matrix(0.1863653,0,0,0.1863653,-186.79979,613.73541)"
     id="g2516" />
  <g
     transform="matrix(0.1863653,0,0,0.1863653,-186.79979,613.73541)"
     id="g2518" />
  <g
     transform="matrix(0.1863653,0,0,0.1863653,256.73236,435.27396)"
     id="g2562" />
  <g
     transform="matrix(0.1863653,0,0,0.1863653,256.73236,435.27396)"
     id="g2564" />
  <g
     transform="matrix(0.1863653,0,0,0.1863653,43.63287,614.38125)"
     id="g2566" />
  <g
     transform="matrix(0.1863653,0,0,0.1863653,43.63287,614.38125)"
     id="g2568" />
  <g
     transform="matrix(0.1863653,0,0,0.1863653,26.299698,434.62812)"
     id="g5405" />
  <g
     transform="matrix(0.1863653,0,0,0.1863653,26.299698,434.62812)"
     id="g8230" />
  <g
     transform="matrix(0.1863653,0,0,0.1863653,-186.79979,613.73541)"
     id="g8616" />
  <g
     transform="matrix(0.1863653,0,0,0.1863653,-186.79979,613.73541)"
     id="g8621" />
  <g
     transform="matrix(0.1863653,0,0,0.1863653,256.73236,435.27396)"
     id="g2388" />
  <g
     transform="matrix(0.1863653,0,0,0.1863653,256.73236,435.27396)"
     id="g2390" />
  <g
     transform="matrix(0.1863653,0,0,0.1863653,43.63287,614.38125)"
     id="g2392" />
  <g
     transform="matrix(0.1863653,0,0,0.1863653,43.63287,614.38125)"
     id="g2394" />
  <g
     id="g3591"
     transform="matrix(0.1513957,0,0,0.1513957,-1893.6566,-203.49966)" />
  <g
     id="g3597"
     transform="matrix(-0.1513957,0,0,0.1513957,-1736.1659,-203.49966)" />
  <g
     transform="matrix(0.1863653,0,0,0.1863653,-693.16294,474.93339)"
     id="g19250" />
  <g
     transform="matrix(0.1863653,0,0,0.1863653,-693.16294,474.93339)"
     id="g19252" />
  <g
     transform="matrix(0.1863653,0,0,0.1863653,-906.26243,654.04068)"
     id="g19254" />
  <g
     transform="matrix(0.1863653,0,0,0.1863653,-906.26243,654.04068)"
     id="g19256" />
  <g
     transform="translate(-574.9507,-563.14374)"
     id="g21645" />
  <g
     transform="matrix(0.1863653,0,0,0.1863653,327.84778,629.14368)"
     id="g33103" />
  <g
     transform="matrix(0.1863653,0,0,0.1863653,327.84778,629.14368)"
     id="g33105" />
  <g
     transform="matrix(0.1863653,0,0,0.1863653,114.74829,808.25097)"
     id="g33107" />
  <g
     transform="matrix(0.1863653,0,0,0.1863653,114.74829,808.25097)"
     id="g33109" />
  <g
     transform="matrix(0.1863653,0,0,0.1863653,558.28044,629.78952)"
     id="g33111" />
  <g
     transform="matrix(0.1863653,0,0,0.1863653,558.28044,629.78952)"
     id="g33113" />
  <g
     transform="matrix(0.1863653,0,0,0.1863653,345.18095,808.89681)"
     id="g33115" />
  <g
     transform="matrix(0.1863653,0,0,0.1863653,345.18095,808.89681)"
     id="g33117" />
  <g
     transform="matrix(0.1863653,0,0,0.1863653,327.84778,629.14368)"
     id="g33119" />
  <g
     transform="matrix(0.1863653,0,0,0.1863653,327.84778,629.14368)"
     id="g33121" />
  <g
     transform="matrix(0.1863653,0,0,0.1863653,114.74829,808.25097)"
     id="g33123" />
  <g
     transform="matrix(0.1863653,0,0,0.1863653,114.74829,808.25097)"
     id="g33125" />
  <g
     transform="matrix(0.1863653,0,0,0.1863653,558.28044,629.78952)"
     id="g33127" />
  <g
     transform="matrix(0.1863653,0,0,0.1863653,558.28044,629.78952)"
     id="g33129" />
  <g
     transform="matrix(0.1863653,0,0,0.1863653,345.18095,808.89681)"
     id="g33131" />
  <g
     transform="matrix(0.1863653,0,0,0.1863653,345.18095,808.89681)"
     id="g33133" />
  <g
     id="g33135"
     transform="matrix(0.1513957,0,0,0.1513957,-1592.1085,-8.9841)" />
  <g
     id="g33137"
     transform="matrix(-0.1513957,0,0,0.1513957,-1434.6178,-8.9841)" />
  <g
     transform="matrix(0.1863653,0,0,0.1863653,-391.61486,669.44895)"
     id="g33139" />
  <g
     transform="matrix(0.1863653,0,0,0.1863653,-391.61486,669.44895)"
     id="g33141" />
  <g
     transform="matrix(0.1863653,0,0,0.1863653,-604.71435,848.55624)"
     id="g33143" />
  <g
     transform="matrix(0.1863653,0,0,0.1863653,-604.71435,848.55624)"
     id="g33145" />
  <g
     transform="translate(-273.40262,-368.62818)"
     id="g33147" />
  <g
     transform="matrix(0.1863653,0,0,0.1863653,511.50919,437.22721)"
     id="g3740" />
  <g
     transform="matrix(0.1863653,0,0,0.1863653,511.50919,437.22721)"
     id="g3742" />
  <g
     transform="matrix(0.1863653,0,0,0.1863653,298.4097,616.3345)"
     id="g3744" />
  <g
     transform="matrix(0.1863653,0,0,0.1863653,298.4097,616.3345)"
     id="g3746" />
  <g
     transform="matrix(0.1863653,0,0,0.1863653,741.94185,437.87305)"
     id="g3748" />
  <g
     transform="matrix(0.1863653,0,0,0.1863653,741.94185,437.87305)"
     id="g3750" />
  <g
     transform="matrix(0.1863653,0,0,0.1863653,528.84236,616.98034)"
     id="g3752" />
  <g
     transform="matrix(0.1863653,0,0,0.1863653,528.84236,616.98034)"
     id="g3754" />
  <g
     transform="matrix(0.1863653,0,0,0.1863653,511.50919,437.22721)"
     id="g3756" />
  <g
     transform="matrix(0.1863653,0,0,0.1863653,511.50919,437.22721)"
     id="g3758" />
  <g
     transform="matrix(0.1863653,0,0,0.1863653,298.4097,616.3345)"
     id="g3760" />
  <g
     transform="matrix(0.1863653,0,0,0.1863653,298.4097,616.3345)"
     id="g3762" />
  <g
     transform="matrix(0.1863653,0,0,0.1863653,741.94185,437.87305)"
     id="g3764" />
  <g
     transform="matrix(0.1863653,0,0,0.1863653,741.94185,437.87305)"
     id="g3766" />
  <g
     transform="matrix(0.1863653,0,0,0.1863653,528.84236,616.98034)"
     id="g3768" />
  <g
     transform="matrix(0.1863653,0,0,0.1863653,528.84236,616.98034)"
     id="g3770" />
  <g
     id="g3772"
     transform="matrix(0.1513957,0,0,0.1513957,-1408.4471,-200.90057)" />
  <g
     id="g3774"
     transform="matrix(-0.1513957,0,0,0.1513957,-1250.9564,-200.90057)" />
  <g
     transform="matrix(0.1863653,0,0,0.1863653,-207.95345,477.53248)"
     id="g3776" />
  <g
     transform="matrix(0.1863653,0,0,0.1863653,-207.95345,477.53248)"
     id="g3778" />
  <g
     transform="matrix(0.1863653,0,0,0.1863653,-421.05294,656.63977)"
     id="g3780" />
  <g
     transform="matrix(0.1863653,0,0,0.1863653,-421.05294,656.63977)"
     id="g3782" />
  <g
     transform="translate(-89.74121,-560.54465)"
     id="g3784" />
  <g
     transform="matrix(0.1863653,0,0,0.1863653,349.26999,523.10089)"
     id="g9663" />
  <g
     transform="matrix(0.1863653,0,0,0.1863653,349.26999,523.10089)"
     id="g9665" />
  <g
     transform="matrix(0.1863653,0,0,0.1863653,136.1705,702.20818)"
     id="g9667" />
  <g
     transform="matrix(0.1863653,0,0,0.1863653,136.1705,702.20818)"
     id="g9669" />
  <g
     transform="matrix(0.1863653,0,0,0.1863653,579.70265,523.74673)"
     id="g9671" />
  <g
     transform="matrix(0.1863653,0,0,0.1863653,579.70265,523.74673)"
     id="g9673" />
  <g
     transform="matrix(0.1863653,0,0,0.1863653,366.60316,702.85402)"
     id="g9675" />
  <g
     transform="matrix(0.1863653,0,0,0.1863653,366.60316,702.85402)"
     id="g9677" />
  <g
     transform="matrix(0.1863653,0,0,0.1863653,349.26999,523.10089)"
     id="g9679" />
  <g
     transform="matrix(0.1863653,0,0,0.1863653,349.26999,523.10089)"
     id="g9681" />
  <g
     transform="matrix(0.1863653,0,0,0.1863653,136.1705,702.20818)"
     id="g9683" />
  <g
     transform="matrix(0.1863653,0,0,0.1863653,136.1705,702.20818)"
     id="g9685" />
  <g
     transform="matrix(0.1863653,0,0,0.1863653,579.70265,523.74673)"
     id="g9687" />
  <g
     transform="matrix(0.1863653,0,0,0.1863653,579.70265,523.74673)"
     id="g9689" />
  <g
     transform="matrix(0.1863653,0,0,0.1863653,366.60316,702.85402)"
     id="g9691" />
  <g
     transform="matrix(0.1863653,0,0,0.1863653,366.60316,702.85402)"
     id="g9693" />
  <g
     id="g9695"
     transform="matrix(0.1513957,0,0,0.1513957,-1570.6863,-115.02689)" />
  <g
     id="g9697"
     transform="matrix(-0.1513957,0,0,0.1513957,-1413.1956,-115.02689)" />
  <g
     transform="matrix(0.1863653,0,0,0.1863653,-370.19265,563.40616)"
     id="g9699" />
  <g
     transform="matrix(0.1863653,0,0,0.1863653,-370.19265,563.40616)"
     id="g9701" />
  <g
     transform="matrix(0.1863653,0,0,0.1863653,-583.29214,742.51345)"
     id="g9703" />
  <g
     transform="matrix(0.1863653,0,0,0.1863653,-583.29214,742.51345)"
     id="g9705" />
  <g
     transform="translate(-251.98041,-474.67097)"
     id="g9707" />
  <g
     transform="matrix(0.1863653,0,0,0.1863653,572.04487,734.73633)"
     id="g2786" />
  <g
     transform="matrix(0.1863653,0,0,0.1863653,572.04487,734.73633)"
     id="g2788" />
  <g
     transform="matrix(0.1863653,0,0,0.1863653,358.94538,913.84362)"
     id="g2790" />
  <g
     transform="matrix(0.1863653,0,0,0.1863653,358.94538,913.84362)"
     id="g2792" />
  <g
     transform="matrix(0.1863653,0,0,0.1863653,802.47753,735.38217)"
     id="g2794" />
  <g
     transform="matrix(0.1863653,0,0,0.1863653,802.47753,735.38217)"
     id="g2796" />
  <g
     transform="matrix(0.1863653,0,0,0.1863653,589.37804,914.48946)"
     id="g2798" />
  <g
     transform="matrix(0.1863653,0,0,0.1863653,589.37804,914.48946)"
     id="g2800" />
  <g
     transform="matrix(0.1863653,0,0,0.1863653,572.04487,734.73633)"
     id="g2804" />
  <g
     transform="matrix(0.1863653,0,0,0.1863653,572.04487,734.73633)"
     id="g2806" />
  <g
     transform="matrix(0.1863653,0,0,0.1863653,358.94538,913.84362)"
     id="g2808" />
  <g
     transform="matrix(0.1863653,0,0,0.1863653,358.94538,913.84362)"
     id="g2810" />
  <g
     transform="matrix(0.1863653,0,0,0.1863653,802.47753,735.38217)"
     id="g2812" />
  <g
     transform="matrix(0.1863653,0,0,0.1863653,802.47753,735.38217)"
     id="g2814" />
  <g
     transform="matrix(0.1863653,0,0,0.1863653,589.37804,914.48946)"
     id="g2816" />
  <g
     transform="matrix(0.1863653,0,0,0.1863653,589.37804,914.48946)"
     id="g2818" />
  <g
     transform="matrix(0.1863653,0,0,0.1863653,311.16616,585.7173)"
     id="g5282" />
  <g
     transform="matrix(0.1863653,0,0,0.1863653,311.16616,585.7173)"
     id="g5284" />
  <g
     transform="matrix(0.1863653,0,0,0.1863653,98.06667,764.82459)"
     id="g5286" />
  <g
     transform="matrix(0.1863653,0,0,0.1863653,98.06667,764.82459)"
     id="g5288" />
  <g
     transform="matrix(0.1863653,0,0,0.1863653,541.59882,586.36314)"
     id="g5290" />
  <g
     transform="matrix(0.1863653,0,0,0.1863653,541.59882,586.36314)"
     id="g5292" />
  <g
     transform="matrix(0.1863653,0,0,0.1863653,328.49933,765.47043)"
     id="g5294" />
  <g
     transform="matrix(0.1863653,0,0,0.1863653,328.49933,765.47043)"
     id="g5296" />
  <g
     transform="matrix(0.1863653,0,0,0.1863653,311.16616,585.7173)"
     id="g5302" />
  <g
     transform="matrix(0.1863653,0,0,0.1863653,311.16616,585.7173)"
     id="g5304" />
  <g
     transform="matrix(0.1863653,0,0,0.1863653,98.06667,764.82459)"
     id="g5306" />
  <g
     transform="matrix(0.1863653,0,0,0.1863653,98.06667,764.82459)"
     id="g5308" />
  <g
     transform="matrix(0.1863653,0,0,0.1863653,541.59882,586.36314)"
     id="g5310" />
  <g
     transform="matrix(0.1863653,0,0,0.1863653,541.59882,586.36314)"
     id="g5312" />
  <g
     transform="matrix(0.1863653,0,0,0.1863653,328.49933,765.47043)"
     id="g5314" />
  <g
     transform="matrix(0.1863653,0,0,0.1863653,328.49933,765.47043)"
     id="g5316" />
  <g
     transform="matrix(0.1863653,0,0,0.1863653,289.93831,480.64622)"
     id="g10856" />
  <g
     transform="matrix(0.1863653,0,0,0.1863653,289.93831,480.64622)"
     id="g10858" />
  <g
     transform="matrix(0.1863653,0,0,0.1863653,76.83882,659.75351)"
     id="g10860" />
  <g
     transform="matrix(0.1863653,0,0,0.1863653,76.83882,659.75351)"
     id="g10862" />
  <g
     transform="matrix(0.1863653,0,0,0.1863653,520.37097,481.29206)"
     id="g10864" />
  <g
     transform="matrix(0.1863653,0,0,0.1863653,520.37097,481.29206)"
     id="g10866" />
  <g
     transform="matrix(0.1863653,0,0,0.1863653,307.27148,660.39935)"
     id="g10868" />
  <g
     transform="matrix(0.1863653,0,0,0.1863653,307.27148,660.39935)"
     id="g10870" />
  <g
     transform="matrix(0.1863653,0,0,0.1863653,289.93831,480.64622)"
     id="g10874" />
  <g
     transform="matrix(0.1863653,0,0,0.1863653,289.93831,480.64622)"
     id="g10876" />
  <g
     transform="matrix(0.1863653,0,0,0.1863653,76.83882,659.75351)"
     id="g10878" />
  <g
     transform="matrix(0.1863653,0,0,0.1863653,76.83882,659.75351)"
     id="g10880" />
  <g
     transform="matrix(0.1863653,0,0,0.1863653,520.37097,481.29206)"
     id="g10882" />
  <g
     transform="matrix(0.1863653,0,0,0.1863653,520.37097,481.29206)"
     id="g10884" />
  <g
     transform="matrix(0.1863653,0,0,0.1863653,307.27148,660.39935)"
     id="g10886" />
  <g
     transform="matrix(0.1863653,0,0,0.1863653,307.27148,660.39935)"
     id="g10888" />
  <g
     transform="translate(-806.93,-0.16428)"
     id="g6923" />
  <g
     transform="matrix(0.1863653,0,0,0.1863653,69.77484,357.99854)"
     id="g9099" />
  <g
     transform="matrix(0.1863653,0,0,0.1863653,69.77484,357.99854)"
     id="g9101" />
  <g
     transform="matrix(0.1863653,0,0,0.1863653,-143.32465,537.10583)"
     id="g9103" />
  <g
     transform="matrix(0.1863653,0,0,0.1863653,-143.32465,537.10583)"
     id="g9105" />
  <g
     transform="matrix(0.1863653,0,0,0.1863653,300.2075,358.64438)"
     id="g9107" />
  <g
     transform="matrix(0.1863653,0,0,0.1863653,300.2075,358.64438)"
     id="g9109" />
  <g
     transform="matrix(0.1863653,0,0,0.1863653,87.108012,537.75167)"
     id="g9111" />
  <g
     transform="matrix(0.1863653,0,0,0.1863653,87.108012,537.75167)"
     id="g9113" />
  <g
     transform="matrix(0.1863653,0,0,0.1863653,69.77484,357.99854)"
     id="g9115" />
  <g
     transform="matrix(0.1863653,0,0,0.1863653,69.77484,357.99854)"
     id="g9117" />
  <g
     transform="matrix(0.1863653,0,0,0.1863653,-143.32465,537.10583)"
     id="g9119" />
  <g
     transform="matrix(0.1863653,0,0,0.1863653,-143.32465,537.10583)"
     id="g9121" />
  <g
     transform="matrix(0.1863653,0,0,0.1863653,300.2075,358.64438)"
     id="g9123" />
  <g
     transform="matrix(0.1863653,0,0,0.1863653,300.2075,358.64438)"
     id="g9125" />
  <g
     transform="matrix(0.1863653,0,0,0.1863653,87.108012,537.75167)"
     id="g9127" />
  <g
     transform="matrix(0.1863653,0,0,0.1863653,87.108012,537.75167)"
     id="g9129" />
  <g
     id="g9131"
     transform="matrix(0.1513957,0,0,0.1513957,-1850.1815,-280.12924)" />
  <g
     id="g9133"
     transform="matrix(-0.1513957,0,0,0.1513957,-1692.6908,-280.12924)" />
  <g
     transform="matrix(0.1863653,0,0,0.1863653,-649.6878,398.30381)"
     id="g9135" />
  <g
     transform="matrix(0.1863653,0,0,0.1863653,-649.6878,398.30381)"
     id="g9137" />
  <g
     transform="matrix(0.1863653,0,0,0.1863653,-862.78729,577.4111)"
     id="g9139" />
  <g
     transform="matrix(0.1863653,0,0,0.1863653,-862.78729,577.4111)"
     id="g9141" />
  <g
     transform="translate(-531.47556,-639.77332)"
     id="g9143" />
  <g
     transform="matrix(0.1863653,0,0,0.1863653,371.32292,552.5141)"
     id="g9145" />
  <g
     transform="matrix(0.1863653,0,0,0.1863653,371.32292,552.5141)"
     id="g9147" />
  <g
     transform="matrix(0.1863653,0,0,0.1863653,158.22343,731.62139)"
     id="g9149" />
  <g
     transform="matrix(0.1863653,0,0,0.1863653,158.22343,731.62139)"
     id="g9151" />
  <g
     transform="matrix(0.1863653,0,0,0.1863653,601.75558,553.15994)"
     id="g9153" />
  <g
     transform="matrix(0.1863653,0,0,0.1863653,601.75558,553.15994)"
     id="g9155" />
  <g
     transform="matrix(0.1863653,0,0,0.1863653,388.65609,732.26723)"
     id="g9157" />
  <g
     transform="matrix(0.1863653,0,0,0.1863653,388.65609,732.26723)"
     id="g9159" />
  <g
     transform="matrix(0.1863653,0,0,0.1863653,371.32292,552.5141)"
     id="g9161" />
  <g
     transform="matrix(0.1863653,0,0,0.1863653,371.32292,552.5141)"
     id="g9163" />
  <g
     transform="matrix(0.1863653,0,0,0.1863653,158.22343,731.62139)"
     id="g9165" />
  <g
     transform="matrix(0.1863653,0,0,0.1863653,158.22343,731.62139)"
     id="g9167" />
  <g
     transform="matrix(0.1863653,0,0,0.1863653,601.75558,553.15994)"
     id="g9169" />
  <g
     transform="matrix(0.1863653,0,0,0.1863653,601.75558,553.15994)"
     id="g9171" />
  <g
     transform="matrix(0.1863653,0,0,0.1863653,388.65609,732.26723)"
     id="g9173" />
  <g
     transform="matrix(0.1863653,0,0,0.1863653,388.65609,732.26723)"
     id="g9175" />
  <g
     id="g9177"
     transform="matrix(0.1513957,0,0,0.1513957,-1548.6334,-85.613676)" />
  <g
     id="g9179"
     transform="matrix(-0.1513957,0,0,0.1513957,-1391.1427,-85.613676)" />
  <g
     transform="matrix(0.1863653,0,0,0.1863653,-348.13972,592.81937)"
     id="g9181" />
  <g
     transform="matrix(0.1863653,0,0,0.1863653,-348.13972,592.81937)"
     id="g9183" />
  <g
     transform="matrix(0.1863653,0,0,0.1863653,-561.23921,771.92666)"
     id="g9185" />
  <g
     transform="matrix(0.1863653,0,0,0.1863653,-561.23921,771.92666)"
     id="g9187" />
  <g
     transform="translate(-229.92748,-445.25776)"
     id="g9189" />
  <g
     transform="matrix(0.1863653,0,0,0.1863653,554.98433,360.59763)"
     id="g9191" />
  <g
     transform="matrix(0.1863653,0,0,0.1863653,554.98433,360.59763)"
     id="g9193" />
  <g
     transform="matrix(0.1863653,0,0,0.1863653,341.88484,539.70492)"
     id="g9195" />
  <g
     transform="matrix(0.1863653,0,0,0.1863653,341.88484,539.70492)"
     id="g9197" />
  <g
     transform="matrix(0.1863653,0,0,0.1863653,785.41699,361.24347)"
     id="g9199" />
  <g
     transform="matrix(0.1863653,0,0,0.1863653,785.41699,361.24347)"
     id="g9201" />
  <g
     transform="matrix(0.1863653,0,0,0.1863653,572.3175,540.35076)"
     id="g9203" />
  <g
     transform="matrix(0.1863653,0,0,0.1863653,572.3175,540.35076)"
     id="g9205" />
  <g
     transform="matrix(0.1863653,0,0,0.1863653,554.98433,360.59763)"
     id="g9207" />
  <g
     transform="matrix(0.1863653,0,0,0.1863653,554.98433,360.59763)"
     id="g9209" />
  <g
     transform="matrix(0.1863653,0,0,0.1863653,341.88484,539.70492)"
     id="g9211" />
  <g
     transform="matrix(0.1863653,0,0,0.1863653,341.88484,539.70492)"
     id="g9213" />
  <g
     transform="matrix(0.1863653,0,0,0.1863653,785.41699,361.24347)"
     id="g9215" />
  <g
     transform="matrix(0.1863653,0,0,0.1863653,785.41699,361.24347)"
     id="g9217" />
  <g
     transform="matrix(0.1863653,0,0,0.1863653,572.3175,540.35076)"
     id="g9219" />
  <g
     transform="matrix(0.1863653,0,0,0.1863653,572.3175,540.35076)"
     id="g9221" />
  <g
     id="g9223"
     transform="matrix(0.1513957,0,0,0.1513957,-1364.972,-277.53015)" />
  <g
     id="g9225"
     transform="matrix(-0.1513957,0,0,0.1513957,-1207.4813,-277.53015)" />
  <g
     transform="matrix(0.1863653,0,0,0.1863653,-164.47831,400.9029)"
     id="g9227" />
  <g
     transform="matrix(0.1863653,0,0,0.1863653,-164.47831,400.9029)"
     id="g9229" />
  <g
     transform="matrix(0.1863653,0,0,0.1863653,-377.5778,580.01019)"
     id="g9231" />
  <g
     transform="matrix(0.1863653,0,0,0.1863653,-377.5778,580.01019)"
     id="g9233" />
  <g
     transform="translate(-46.266068,-637.17423)"
     id="g9235" />
  <g
     transform="matrix(0.1863653,0,0,0.1863653,392.74513,446.47131)"
     id="g9237" />
  <g
     transform="matrix(0.1863653,0,0,0.1863653,392.74513,446.47131)"
     id="g9239" />
  <g
     transform="matrix(0.1863653,0,0,0.1863653,179.64564,625.5786)"
     id="g9241" />
  <g
     transform="matrix(0.1863653,0,0,0.1863653,179.64564,625.5786)"
     id="g9243" />
  <g
     transform="matrix(0.1863653,0,0,0.1863653,623.17779,447.11715)"
     id="g9245" />
  <g
     transform="matrix(0.1863653,0,0,0.1863653,623.17779,447.11715)"
     id="g9247" />
  <g
     transform="matrix(0.1863653,0,0,0.1863653,410.0783,626.22444)"
     id="g9249" />
  <g
     transform="matrix(0.1863653,0,0,0.1863653,410.0783,626.22444)"
     id="g9251" />
  <g
     transform="matrix(0.1863653,0,0,0.1863653,392.74513,446.47131)"
     id="g9253" />
  <g
     transform="matrix(0.1863653,0,0,0.1863653,392.74513,446.47131)"
     id="g9255" />
  <g
     transform="matrix(0.1863653,0,0,0.1863653,179.64564,625.5786)"
     id="g9257" />
  <g
     transform="matrix(0.1863653,0,0,0.1863653,179.64564,625.5786)"
     id="g9259" />
  <g
     transform="matrix(0.1863653,0,0,0.1863653,623.17779,447.11715)"
     id="g9261" />
  <g
     transform="matrix(0.1863653,0,0,0.1863653,623.17779,447.11715)"
     id="g9263" />
  <g
     transform="matrix(0.1863653,0,0,0.1863653,410.0783,626.22444)"
     id="g9265" />
  <g
     transform="matrix(0.1863653,0,0,0.1863653,410.0783,626.22444)"
     id="g9267" />
  <g
     id="g9269"
     transform="matrix(0.1513957,0,0,0.1513957,-1527.2112,-191.65647)" />
  <g
     id="g9271"
     transform="matrix(-0.1513957,0,0,0.1513957,-1369.7205,-191.65647)" />
  <g
     transform="matrix(0.1863653,0,0,0.1863653,-326.71751,486.77658)"
     id="g9273" />
  <g
     transform="matrix(0.1863653,0,0,0.1863653,-326.71751,486.77658)"
     id="g9275" />
  <g
     transform="matrix(0.1863653,0,0,0.1863653,-539.817,665.88387)"
     id="g9277" />
  <g
     transform="matrix(0.1863653,0,0,0.1863653,-539.817,665.88387)"
     id="g9279" />
  <g
     transform="translate(-208.50527,-551.30055)"
     id="g9281" />
  <g
     transform="matrix(0.1863653,0,0,0.1863653,615.52001,658.10675)"
     id="g9283" />
  <g
     transform="matrix(0.1863653,0,0,0.1863653,615.52001,658.10675)"
     id="g9285" />
  <g
     transform="matrix(0.1863653,0,0,0.1863653,402.42052,837.21404)"
     id="g9287" />
  <g
     transform="matrix(0.1863653,0,0,0.1863653,402.42052,837.21404)"
     id="g9289" />
  <g
     transform="matrix(0.1863653,0,0,0.1863653,845.95267,658.75259)"
     id="g9291" />
  <g
     transform="matrix(0.1863653,0,0,0.1863653,845.95267,658.75259)"
     id="g9293" />
  <g
     transform="matrix(0.1863653,0,0,0.1863653,632.85318,837.85988)"
     id="g9295" />
  <g
     transform="matrix(0.1863653,0,0,0.1863653,632.85318,837.85988)"
     id="g9297" />
  <g
     transform="matrix(0.1863653,0,0,0.1863653,615.52001,658.10675)"
     id="g9299" />
  <g
     transform="matrix(0.1863653,0,0,0.1863653,615.52001,658.10675)"
     id="g9301" />
  <g
     transform="matrix(0.1863653,0,0,0.1863653,402.42052,837.21404)"
     id="g9303" />
  <g
     transform="matrix(0.1863653,0,0,0.1863653,402.42052,837.21404)"
     id="g9305" />
  <g
     transform="matrix(0.1863653,0,0,0.1863653,845.95267,658.75259)"
     id="g9307" />
  <g
     transform="matrix(0.1863653,0,0,0.1863653,845.95267,658.75259)"
     id="g9309" />
  <g
     transform="matrix(0.1863653,0,0,0.1863653,632.85318,837.85988)"
     id="g9311" />
  <g
     transform="matrix(0.1863653,0,0,0.1863653,632.85318,837.85988)"
     id="g9313" />
  <g
     transform="matrix(0.1863653,0,0,0.1863653,354.6413,509.08772)"
     id="g9315" />
  <g
     transform="matrix(0.1863653,0,0,0.1863653,354.6413,509.08772)"
     id="g9317" />
  <g
     transform="matrix(0.1863653,0,0,0.1863653,141.54181,688.19501)"
     id="g9319" />
  <g
     transform="matrix(0.1863653,0,0,0.1863653,141.54181,688.19501)"
     id="g9321" />
  <g
     transform="matrix(0.1863653,0,0,0.1863653,585.07396,509.73356)"
     id="g9323" />
  <g
     transform="matrix(0.1863653,0,0,0.1863653,585.07396,509.73356)"
     id="g9325" />
  <g
     transform="matrix(0.1863653,0,0,0.1863653,371.97447,688.84085)"
     id="g9327" />
  <g
     transform="matrix(0.1863653,0,0,0.1863653,371.97447,688.84085)"
     id="g9329" />
  <g
     transform="matrix(0.1863653,0,0,0.1863653,354.6413,509.08772)"
     id="g9331" />
  <g
     transform="matrix(0.1863653,0,0,0.1863653,354.6413,509.08772)"
     id="g9333" />
  <g
     transform="matrix(0.1863653,0,0,0.1863653,141.54181,688.19501)"
     id="g9335" />
  <g
     transform="matrix(0.1863653,0,0,0.1863653,141.54181,688.19501)"
     id="g9337" />
  <g
     transform="matrix(0.1863653,0,0,0.1863653,585.07396,509.73356)"
     id="g9339" />
  <g
     transform="matrix(0.1863653,0,0,0.1863653,585.07396,509.73356)"
     id="g9341" />
  <g
     transform="matrix(0.1863653,0,0,0.1863653,371.97447,688.84085)"
     id="g9343" />
  <g
     transform="matrix(0.1863653,0,0,0.1863653,371.97447,688.84085)"
     id="g9345" />
  <g
     transform="matrix(0.1863653,0,0,0.1863653,333.41345,404.01664)"
     id="g9347" />
  <g
     transform="matrix(0.1863653,0,0,0.1863653,333.41345,404.01664)"
     id="g9349" />
  <g
     transform="matrix(0.1863653,0,0,0.1863653,120.31396,583.12393)"
     id="g9351" />
  <g
     transform="matrix(0.1863653,0,0,0.1863653,120.31396,583.12393)"
     id="g9353" />
  <g
     transform="matrix(0.1863653,0,0,0.1863653,563.84611,404.66248)"
     id="g9355" />
  <g
     transform="matrix(0.1863653,0,0,0.1863653,563.84611,404.66248)"
     id="g9357" />
  <g
     transform="matrix(0.1863653,0,0,0.1863653,350.74662,583.76977)"
     id="g9359" />
  <g
     transform="matrix(0.1863653,0,0,0.1863653,350.74662,583.76977)"
     id="g9361" />
  <g
     transform="matrix(0.1863653,0,0,0.1863653,333.41345,404.01664)"
     id="g9363" />
  <g
     transform="matrix(0.1863653,0,0,0.1863653,333.41345,404.01664)"
     id="g9365" />
  <g
     transform="matrix(0.1863653,0,0,0.1863653,120.31396,583.12393)"
     id="g9367" />
  <g
     transform="matrix(0.1863653,0,0,0.1863653,120.31396,583.12393)"
     id="g9369" />
  <g
     transform="matrix(0.1863653,0,0,0.1863653,563.84611,404.66248)"
     id="g9371" />
  <g
     transform="matrix(0.1863653,0,0,0.1863653,563.84611,404.66248)"
     id="g9373" />
  <g
     transform="matrix(0.1863653,0,0,0.1863653,350.74662,583.76977)"
     id="g9375" />
  <g
     transform="matrix(0.1863653,0,0,0.1863653,350.74662,583.76977)"
     id="g9377" />
  <g
     transform="translate(-763.45486,-76.793856)"
     id="g9402" />
  <g
     transform="matrix(0.1863653,0,0,0.1863653,22.899036,330.69725)"
     id="g13130" />
  <g
     transform="matrix(0.1863653,0,0,0.1863653,22.899036,330.69725)"
     id="g13132" />
  <g
     transform="matrix(0.1863653,0,0,0.1863653,-190.20045,509.80454)"
     id="g13134" />
  <g
     transform="matrix(0.1863653,0,0,0.1863653,-190.20045,509.80454)"
     id="g13136" />
  <g
     transform="matrix(0.1863653,0,0,0.1863653,253.3317,331.34309)"
     id="g13138" />
  <g
     transform="matrix(0.1863653,0,0,0.1863653,253.3317,331.34309)"
     id="g13140" />
  <g
     transform="matrix(0.1863653,0,0,0.1863653,40.232208,510.45038)"
     id="g13142" />
  <g
     transform="matrix(0.1863653,0,0,0.1863653,40.232208,510.45038)"
     id="g13144" />
  <g
     transform="matrix(0.1863653,0,0,0.1863653,22.899036,330.69725)"
     id="g13146" />
  <g
     transform="matrix(0.1863653,0,0,0.1863653,22.899036,330.69725)"
     id="g13148" />
  <g
     transform="matrix(0.1863653,0,0,0.1863653,-190.20045,509.80454)"
     id="g13150" />
  <g
     transform="matrix(0.1863653,0,0,0.1863653,-190.20045,509.80454)"
     id="g13152" />
  <g
     transform="matrix(0.1863653,0,0,0.1863653,253.3317,331.34309)"
     id="g13154" />
  <g
     transform="matrix(0.1863653,0,0,0.1863653,253.3317,331.34309)"
     id="g13156" />
  <g
     transform="matrix(0.1863653,0,0,0.1863653,40.232208,510.45038)"
     id="g13158" />
  <g
     transform="matrix(0.1863653,0,0,0.1863653,40.232208,510.45038)"
     id="g13160" />
  <g
     id="g13162"
     transform="matrix(0.1513957,0,0,0.1513957,-1897.0573,-307.43053)" />
  <g
     id="g13164"
     transform="matrix(-0.1513957,0,0,0.1513957,-1739.5666,-307.43053)" />
  <g
     transform="matrix(0.1863653,0,0,0.1863653,-696.5636,371.00252)"
     id="g13166" />
  <g
     transform="matrix(0.1863653,0,0,0.1863653,-696.5636,371.00252)"
     id="g13168" />
  <g
     transform="matrix(0.1863653,0,0,0.1863653,-909.66309,550.10981)"
     id="g13170" />
  <g
     transform="matrix(0.1863653,0,0,0.1863653,-909.66309,550.10981)"
     id="g13172" />
  <g
     transform="translate(-578.35136,-667.07461)"
     id="g13174" />
  <g
     transform="matrix(0.1863653,0,0,0.1863653,324.44712,525.21281)"
     id="g13176" />
  <g
     transform="matrix(0.1863653,0,0,0.1863653,324.44712,525.21281)"
     id="g13178" />
  <g
     transform="matrix(0.1863653,0,0,0.1863653,111.34763,704.3201)"
     id="g13180" />
  <g
     transform="matrix(0.1863653,0,0,0.1863653,111.34763,704.3201)"
     id="g13182" />
  <g
     transform="matrix(0.1863653,0,0,0.1863653,554.87978,525.85865)"
     id="g13184" />
  <g
     transform="matrix(0.1863653,0,0,0.1863653,554.87978,525.85865)"
     id="g13186" />
  <g
     transform="matrix(0.1863653,0,0,0.1863653,341.78029,704.96594)"
     id="g13188" />
  <g
     transform="matrix(0.1863653,0,0,0.1863653,341.78029,704.96594)"
     id="g13190" />
  <g
     transform="matrix(0.1863653,0,0,0.1863653,324.44712,525.21281)"
     id="g13192" />
  <g
     transform="matrix(0.1863653,0,0,0.1863653,324.44712,525.21281)"
     id="g13194" />
  <g
     transform="matrix(0.1863653,0,0,0.1863653,111.34763,704.3201)"
     id="g13196" />
  <g
     transform="matrix(0.1863653,0,0,0.1863653,111.34763,704.3201)"
     id="g13198" />
  <g
     transform="matrix(0.1863653,0,0,0.1863653,554.87978,525.85865)"
     id="g13200" />
  <g
     transform="matrix(0.1863653,0,0,0.1863653,554.87978,525.85865)"
     id="g13202" />
  <g
     transform="matrix(0.1863653,0,0,0.1863653,341.78029,704.96594)"
     id="g13204" />
  <g
     transform="matrix(0.1863653,0,0,0.1863653,341.78029,704.96594)"
     id="g13206" />
  <g
     id="g13208"
     transform="matrix(0.1513957,0,0,0.1513957,-1595.5092,-112.91497)" />
  <g
     id="g13210"
     transform="matrix(-0.1513957,0,0,0.1513957,-1438.0185,-112.91497)" />
  <g
     transform="matrix(0.1863653,0,0,0.1863653,-395.01552,565.51808)"
     id="g13212" />
  <g
     transform="matrix(0.1863653,0,0,0.1863653,-395.01552,565.51808)"
     id="g13214" />
  <g
     transform="matrix(0.1863653,0,0,0.1863653,-608.11501,744.62537)"
     id="g13216" />
  <g
     transform="matrix(0.1863653,0,0,0.1863653,-608.11501,744.62537)"
     id="g13218" />
  <g
     transform="translate(-276.80328,-472.55905)"
     id="g13220" />
  <g
     transform="matrix(0.1863653,0,0,0.1863653,508.10853,333.29634)"
     id="g13222" />
  <g
     transform="matrix(0.1863653,0,0,0.1863653,508.10853,333.29634)"
     id="g13224" />
  <g
     transform="matrix(0.1863653,0,0,0.1863653,295.00904,512.40363)"
     id="g13226" />
  <g
     transform="matrix(0.1863653,0,0,0.1863653,295.00904,512.40363)"
     id="g13228" />
  <g
     transform="matrix(0.1863653,0,0,0.1863653,738.54119,333.94218)"
     id="g13230" />
  <g
     transform="matrix(0.1863653,0,0,0.1863653,738.54119,333.94218)"
     id="g13232" />
  <g
     transform="matrix(0.1863653,0,0,0.1863653,525.4417,513.04947)"
     id="g13234" />
  <g
     transform="matrix(0.1863653,0,0,0.1863653,525.4417,513.04947)"
     id="g13236" />
  <g
     transform="matrix(0.1863653,0,0,0.1863653,508.10853,333.29634)"
     id="g13238" />
  <g
     transform="matrix(0.1863653,0,0,0.1863653,508.10853,333.29634)"
     id="g13240" />
  <g
     transform="matrix(0.1863653,0,0,0.1863653,295.00904,512.40363)"
     id="g13242" />
  <g
     transform="matrix(0.1863653,0,0,0.1863653,295.00904,512.40363)"
     id="g13244" />
  <g
     transform="matrix(0.1863653,0,0,0.1863653,738.54119,333.94218)"
     id="g13246" />
  <g
     transform="matrix(0.1863653,0,0,0.1863653,738.54119,333.94218)"
     id="g13248" />
  <g
     transform="matrix(0.1863653,0,0,0.1863653,525.4417,513.04947)"
     id="g13250" />
  <g
     transform="matrix(0.1863653,0,0,0.1863653,525.4417,513.04947)"
     id="g13252" />
  <g
     id="g13254"
     transform="matrix(0.1513957,0,0,0.1513957,-1411.8478,-304.83144)" />
  <g
     id="g13256"
     transform="matrix(-0.1513957,0,0,0.1513957,-1254.3571,-304.83144)" />
  <g
     transform="matrix(0.1863653,0,0,0.1863653,-211.35411,373.60161)"
     id="g13258" />
  <g
     transform="matrix(0.1863653,0,0,0.1863653,-211.35411,373.60161)"
     id="g13260" />
  <g
     transform="matrix(0.1863653,0,0,0.1863653,-424.4536,552.7089)"
     id="g13262" />
  <g
     transform="matrix(0.1863653,0,0,0.1863653,-424.4536,552.7089)"
     id="g13264" />
  <g
     transform="translate(-93.141872,-664.47552)"
     id="g13266" />
  <g
     transform="matrix(0.1863653,0,0,0.1863653,345.86933,419.17002)"
     id="g13268" />
  <g
     transform="matrix(0.1863653,0,0,0.1863653,345.86933,419.17002)"
     id="g13270" />
  <g
     transform="matrix(0.1863653,0,0,0.1863653,132.76984,598.27731)"
     id="g13272" />
  <g
     transform="matrix(0.1863653,0,0,0.1863653,132.76984,598.27731)"
     id="g13274" />
  <g
     transform="matrix(0.1863653,0,0,0.1863653,576.30199,419.81586)"
     id="g13276" />
  <g
     transform="matrix(0.1863653,0,0,0.1863653,576.30199,419.81586)"
     id="g13278" />
  <g
     transform="matrix(0.1863653,0,0,0.1863653,363.2025,598.92315)"
     id="g13280" />
  <g
     transform="matrix(0.1863653,0,0,0.1863653,363.2025,598.92315)"
     id="g13282" />
  <g
     transform="matrix(0.1863653,0,0,0.1863653,345.86933,419.17002)"
     id="g13284" />
  <g
     transform="matrix(0.1863653,0,0,0.1863653,345.86933,419.17002)"
     id="g13286" />
  <g
     transform="matrix(0.1863653,0,0,0.1863653,132.76984,598.27731)"
     id="g13288" />
  <g
     transform="matrix(0.1863653,0,0,0.1863653,132.76984,598.27731)"
     id="g13290" />
  <g
     transform="matrix(0.1863653,0,0,0.1863653,576.30199,419.81586)"
     id="g13292" />
  <g
     transform="matrix(0.1863653,0,0,0.1863653,576.30199,419.81586)"
     id="g13294" />
  <g
     transform="matrix(0.1863653,0,0,0.1863653,363.2025,598.92315)"
     id="g13296" />
  <g
     transform="matrix(0.1863653,0,0,0.1863653,363.2025,598.92315)"
     id="g13298" />
  <g
     id="g13300"
     transform="matrix(0.1513957,0,0,0.1513957,-1574.087,-218.95776)" />
  <g
     id="g13302"
     transform="matrix(-0.1513957,0,0,0.1513957,-1416.5963,-218.95776)" />
  <g
     transform="matrix(0.1863653,0,0,0.1863653,-373.59331,459.47529)"
     id="g13304" />
  <g
     transform="matrix(0.1863653,0,0,0.1863653,-373.59331,459.47529)"
     id="g13306" />
  <g
     transform="matrix(0.1863653,0,0,0.1863653,-586.6928,638.58258)"
     id="g13308" />
  <g
     transform="matrix(0.1863653,0,0,0.1863653,-586.6928,638.58258)"
     id="g13310" />
  <g
     transform="translate(-255.38107,-578.60184)"
     id="g13312" />
  <g
     transform="matrix(0.1863653,0,0,0.1863653,568.64421,630.80546)"
     id="g13314" />
  <g
     transform="matrix(0.1863653,0,0,0.1863653,568.64421,630.80546)"
     id="g13316" />
  <g
     transform="matrix(0.1863653,0,0,0.1863653,355.54472,809.91275)"
     id="g13318" />
  <g
     transform="matrix(0.1863653,0,0,0.1863653,355.54472,809.91275)"
     id="g13320" />
  <g
     transform="matrix(0.1863653,0,0,0.1863653,799.07687,631.4513)"
     id="g13322" />
  <g
     transform="matrix(0.1863653,0,0,0.1863653,799.07687,631.4513)"
     id="g13324" />
  <g
     transform="matrix(0.1863653,0,0,0.1863653,585.97738,810.55859)"
     id="g13326" />
  <g
     transform="matrix(0.1863653,0,0,0.1863653,585.97738,810.55859)"
     id="g13328" />
  <g
     transform="matrix(0.1863653,0,0,0.1863653,568.64421,630.80546)"
     id="g13330" />
  <g
     transform="matrix(0.1863653,0,0,0.1863653,568.64421,630.80546)"
     id="g13332" />
  <g
     transform="matrix(0.1863653,0,0,0.1863653,355.54472,809.91275)"
     id="g13334" />
  <g
     transform="matrix(0.1863653,0,0,0.1863653,355.54472,809.91275)"
     id="g13336" />
  <g
     transform="matrix(0.1863653,0,0,0.1863653,799.07687,631.4513)"
     id="g13338" />
  <g
     transform="matrix(0.1863653,0,0,0.1863653,799.07687,631.4513)"
     id="g13340" />
  <g
     transform="matrix(0.1863653,0,0,0.1863653,585.97738,810.55859)"
     id="g13342" />
  <g
     transform="matrix(0.1863653,0,0,0.1863653,585.97738,810.55859)"
     id="g13344" />
  <g
     transform="matrix(0.1863653,0,0,0.1863653,307.7655,481.78643)"
     id="g13346" />
  <g
     transform="matrix(0.1863653,0,0,0.1863653,307.7655,481.78643)"
     id="g13348" />
  <g
     transform="matrix(0.1863653,0,0,0.1863653,94.666008,660.89372)"
     id="g13350" />
  <g
     transform="matrix(0.1863653,0,0,0.1863653,94.666008,660.89372)"
     id="g13352" />
  <g
     transform="matrix(0.1863653,0,0,0.1863653,538.19816,482.43227)"
     id="g13354" />
  <g
     transform="matrix(0.1863653,0,0,0.1863653,538.19816,482.43227)"
     id="g13356" />
  <g
     transform="matrix(0.1863653,0,0,0.1863653,325.09867,661.53956)"
     id="g13358" />
  <g
     transform="matrix(0.1863653,0,0,0.1863653,325.09867,661.53956)"
     id="g13360" />
  <g
     transform="matrix(0.1863653,0,0,0.1863653,307.7655,481.78643)"
     id="g13362" />
  <g
     transform="matrix(0.1863653,0,0,0.1863653,307.7655,481.78643)"
     id="g13364" />
  <g
     transform="matrix(0.1863653,0,0,0.1863653,94.666008,660.89372)"
     id="g13366" />
  <g
     transform="matrix(0.1863653,0,0,0.1863653,94.666008,660.89372)"
     id="g13368" />
  <g
     transform="matrix(0.1863653,0,0,0.1863653,538.19816,482.43227)"
     id="g13370" />
  <g
     transform="matrix(0.1863653,0,0,0.1863653,538.19816,482.43227)"
     id="g13372" />
  <g
     transform="matrix(0.1863653,0,0,0.1863653,325.09867,661.53956)"
     id="g13374" />
  <g
     transform="matrix(0.1863653,0,0,0.1863653,325.09867,661.53956)"
     id="g13376" />
  <g
     transform="matrix(0.1863653,0,0,0.1863653,286.53765,376.71535)"
     id="g13378" />
  <g
     transform="matrix(0.1863653,0,0,0.1863653,286.53765,376.71535)"
     id="g13380" />
  <g
     transform="matrix(0.1863653,0,0,0.1863653,73.438158,555.82264)"
     id="g13382" />
  <g
     transform="matrix(0.1863653,0,0,0.1863653,73.438158,555.82264)"
     id="g13384" />
  <g
     transform="matrix(0.1863653,0,0,0.1863653,516.97031,377.36119)"
     id="g13386" />
  <g
     transform="matrix(0.1863653,0,0,0.1863653,516.97031,377.36119)"
     id="g13388" />
  <g
     transform="matrix(0.1863653,0,0,0.1863653,303.87082,556.46848)"
     id="g13390" />
  <g
     transform="matrix(0.1863653,0,0,0.1863653,303.87082,556.46848)"
     id="g13392" />
  <g
     transform="matrix(0.1863653,0,0,0.1863653,286.53765,376.71535)"
     id="g13394" />
  <g
     transform="matrix(0.1863653,0,0,0.1863653,286.53765,376.71535)"
     id="g13396" />
  <g
     transform="matrix(0.1863653,0,0,0.1863653,73.438158,555.82264)"
     id="g13398" />
  <g
     transform="matrix(0.1863653,0,0,0.1863653,73.438158,555.82264)"
     id="g13400" />
  <g
     transform="matrix(0.1863653,0,0,0.1863653,516.97031,377.36119)"
     id="g13402" />
  <g
     transform="matrix(0.1863653,0,0,0.1863653,516.97031,377.36119)"
     id="g13404" />
  <g
     transform="matrix(0.1863653,0,0,0.1863653,303.87082,556.46848)"
     id="g13406" />
  <g
     transform="matrix(0.1863653,0,0,0.1863653,303.87082,556.46848)"
     id="g13408" />
  <g
     transform="translate(-810.33066,-104.09515)"
     id="g13421" />
  <g
     transform="matrix(0.1863653,0,0,0.1863653,261.35365,168.99638)"
     id="g16810" />
  <g
     transform="matrix(0.1863653,0,0,0.1863653,261.35365,168.99638)"
     id="g16812" />
  <g
     transform="matrix(0.1863653,0,0,0.1863653,48.25416,348.10367)"
     id="g16814" />
  <g
     transform="matrix(0.1863653,0,0,0.1863653,48.25416,348.10367)"
     id="g16816" />
  <g
     transform="matrix(0.1863653,0,0,0.1863653,491.78631,169.64222)"
     id="g16818" />
  <g
     transform="matrix(0.1863653,0,0,0.1863653,491.78631,169.64222)"
     id="g16820" />
  <g
     transform="matrix(0.1863653,0,0,0.1863653,278.68682,348.74951)"
     id="g16822" />
  <g
     transform="matrix(0.1863653,0,0,0.1863653,278.68682,348.74951)"
     id="g16824" />
  <g
     transform="matrix(0.1863653,0,0,0.1863653,261.35365,168.99638)"
     id="g16826" />
  <g
     transform="matrix(0.1863653,0,0,0.1863653,261.35365,168.99638)"
     id="g16828" />
  <g
     transform="matrix(0.1863653,0,0,0.1863653,48.25416,348.10367)"
     id="g16830" />
  <g
     transform="matrix(0.1863653,0,0,0.1863653,48.25416,348.10367)"
     id="g16832" />
  <g
     transform="matrix(0.1863653,0,0,0.1863653,491.78631,169.64222)"
     id="g16834" />
  <g
     transform="matrix(0.1863653,0,0,0.1863653,491.78631,169.64222)"
     id="g16836" />
  <g
     transform="matrix(0.1863653,0,0,0.1863653,278.68682,348.74951)"
     id="g16838" />
  <g
     transform="matrix(0.1863653,0,0,0.1863653,278.68682,348.74951)"
     id="g16840" />
  <g
     id="g16842"
     transform="matrix(0.1513957,0,0,0.1513957,-1658.6027,-469.1314)" />
  <g
     id="g16844"
     transform="matrix(-0.1513957,0,0,0.1513957,-1501.112,-469.1314)" />
  <g
     transform="matrix(0.1863653,0,0,0.1863653,-458.10899,209.30165)"
     id="g16846" />
  <g
     transform="matrix(0.1863653,0,0,0.1863653,-458.10899,209.30165)"
     id="g16848" />
  <g
     transform="matrix(0.1863653,0,0,0.1863653,-671.20848,388.40894)"
     id="g16850" />
  <g
     transform="matrix(0.1863653,0,0,0.1863653,-671.20848,388.40894)"
     id="g16852" />
  <g
     transform="translate(-339.89675,-828.77548)"
     id="g16854" />
  <g
     transform="matrix(0.1863653,0,0,0.1863653,562.90173,363.51194)"
     id="g17051" />
  <g
     transform="matrix(0.1863653,0,0,0.1863653,562.90173,363.51194)"
     id="g17053" />
  <g
     transform="matrix(0.1863653,0,0,0.1863653,349.80224,542.61923)"
     id="g17055" />
  <g
     transform="matrix(0.1863653,0,0,0.1863653,349.80224,542.61923)"
     id="g17057" />
  <g
     transform="matrix(0.1863653,0,0,0.1863653,793.33439,364.15778)"
     id="g17059" />
  <g
     transform="matrix(0.1863653,0,0,0.1863653,793.33439,364.15778)"
     id="g17061" />
  <g
     transform="matrix(0.1863653,0,0,0.1863653,580.2349,543.26507)"
     id="g17063" />
  <g
     transform="matrix(0.1863653,0,0,0.1863653,580.2349,543.26507)"
     id="g17065" />
  <g
     transform="matrix(0.1863653,0,0,0.1863653,562.90173,363.51194)"
     id="g17067" />
  <g
     transform="matrix(0.1863653,0,0,0.1863653,562.90173,363.51194)"
     id="g17069" />
  <g
     transform="matrix(0.1863653,0,0,0.1863653,349.80224,542.61923)"
     id="g17071" />
  <g
     transform="matrix(0.1863653,0,0,0.1863653,349.80224,542.61923)"
     id="g17073" />
  <g
     transform="matrix(0.1863653,0,0,0.1863653,793.33439,364.15778)"
     id="g17075" />
  <g
     transform="matrix(0.1863653,0,0,0.1863653,793.33439,364.15778)"
     id="g17077" />
  <g
     transform="matrix(0.1863653,0,0,0.1863653,580.2349,543.26507)"
     id="g17079" />
  <g
     transform="matrix(0.1863653,0,0,0.1863653,580.2349,543.26507)"
     id="g17081" />
  <g
     id="g17083"
     transform="matrix(0.1513957,0,0,0.1513957,-1357.0546,-274.61584)" />
  <g
     id="g17085"
     transform="matrix(-0.1513957,0,0,0.1513957,-1199.5639,-274.61584)" />
  <g
     transform="matrix(0.1863653,0,0,0.1863653,-156.56091,403.81721)"
     id="g17087" />
  <g
     transform="matrix(0.1863653,0,0,0.1863653,-156.56091,403.81721)"
     id="g17089" />
  <g
     transform="matrix(0.1863653,0,0,0.1863653,-369.6604,582.9245)"
     id="g17091" />
  <g
     transform="matrix(0.1863653,0,0,0.1863653,-369.6604,582.9245)"
     id="g17093" />
  <g
     transform="translate(-38.34867,-634.25992)"
     id="g17095" />
  <g
     transform="matrix(0.1863653,0,0,0.1863653,746.56314,171.59547)"
     id="g17097" />
  <g
     transform="matrix(0.1863653,0,0,0.1863653,746.56314,171.59547)"
     id="g17099" />
  <g
     transform="matrix(0.1863653,0,0,0.1863653,533.46365,350.70276)"
     id="g17101" />
  <g
     transform="matrix(0.1863653,0,0,0.1863653,533.46365,350.70276)"
     id="g17103" />
  <g
     transform="matrix(0.1863653,0,0,0.1863653,976.9958,172.24131)"
     id="g17105" />
  <g
     transform="matrix(0.1863653,0,0,0.1863653,976.9958,172.24131)"
     id="g17107" />
  <g
     transform="matrix(0.1863653,0,0,0.1863653,763.89631,351.3486)"
     id="g17109" />
  <g
     transform="matrix(0.1863653,0,0,0.1863653,763.89631,351.3486)"
     id="g17111" />
  <g
     transform="matrix(0.1863653,0,0,0.1863653,746.56314,171.59547)"
     id="g17113" />
  <g
     transform="matrix(0.1863653,0,0,0.1863653,746.56314,171.59547)"
     id="g17115" />
  <g
     transform="matrix(0.1863653,0,0,0.1863653,533.46365,350.70276)"
     id="g17117" />
  <g
     transform="matrix(0.1863653,0,0,0.1863653,533.46365,350.70276)"
     id="g17119" />
  <g
     transform="matrix(0.1863653,0,0,0.1863653,976.9958,172.24131)"
     id="g17121" />
  <g
     transform="matrix(0.1863653,0,0,0.1863653,976.9958,172.24131)"
     id="g17123" />
  <g
     transform="matrix(0.1863653,0,0,0.1863653,763.89631,351.3486)"
     id="g17125" />
  <g
     transform="matrix(0.1863653,0,0,0.1863653,763.89631,351.3486)"
     id="g17127" />
  <g
     id="g17129"
     transform="matrix(0.1513957,0,0,0.1513957,-1173.3932,-466.53231)" />
  <g
     id="g17131"
     transform="matrix(-0.1513957,0,0,0.1513957,-1015.9025,-466.53231)" />
  <g
     transform="matrix(0.1863653,0,0,0.1863653,27.1005,211.90074)"
     id="g17133" />
  <g
     transform="matrix(0.1863653,0,0,0.1863653,27.1005,211.90074)"
     id="g17135" />
  <g
     transform="matrix(0.1863653,0,0,0.1863653,-185.99899,391.00803)"
     id="g17137" />
  <g
     transform="matrix(0.1863653,0,0,0.1863653,-185.99899,391.00803)"
     id="g17139" />
  <g
     transform="translate(145.31274,-826.17639)"
     id="g17141" />
  <g
     transform="matrix(0.1863653,0,0,0.1863653,2.036728,354.13515)"
     id="g16264" />
  <g
     transform="matrix(0.1863653,0,0,0.1863653,2.036728,354.13515)"
     id="g16266" />
  <g
     transform="matrix(0.1863653,0,0,0.1863653,-211.06276,533.24244)"
     id="g16268" />
  <g
     transform="matrix(0.1863653,0,0,0.1863653,-211.06276,533.24244)"
     id="g16270" />
  <g
     transform="matrix(0.1863653,0,0,0.1863653,232.46939,354.78099)"
     id="g16272" />
  <g
     transform="matrix(0.1863653,0,0,0.1863653,232.46939,354.78099)"
     id="g16274" />
  <g
     transform="matrix(0.1863653,0,0,0.1863653,19.3699,533.88828)"
     id="g16276" />
  <g
     transform="matrix(0.1863653,0,0,0.1863653,19.3699,533.88828)"
     id="g16278" />
  <g
     transform="matrix(0.1863653,0,0,0.1863653,2.036728,354.13515)"
     id="g16280" />
  <g
     transform="matrix(0.1863653,0,0,0.1863653,2.036728,354.13515)"
     id="g16282" />
  <g
     transform="matrix(0.1863653,0,0,0.1863653,-211.06276,533.24244)"
     id="g16284" />
  <g
     transform="matrix(0.1863653,0,0,0.1863653,-211.06276,533.24244)"
     id="g16286" />
  <g
     transform="matrix(0.1863653,0,0,0.1863653,232.46939,354.78099)"
     id="g16288" />
  <g
     transform="matrix(0.1863653,0,0,0.1863653,232.46939,354.78099)"
     id="g16290" />
  <g
     transform="matrix(0.1863653,0,0,0.1863653,19.3699,533.88828)"
     id="g16292" />
  <g
     transform="matrix(0.1863653,0,0,0.1863653,19.3699,533.88828)"
     id="g16294" />
  <g
     id="g16296"
     transform="matrix(0.1513957,0,0,0.1513957,-1917.9196,-283.99263)" />
  <g
     id="g16298"
     transform="matrix(-0.1513957,0,0,0.1513957,-1760.4289,-283.99263)" />
  <g
     transform="matrix(0.1863653,0,0,0.1863653,-717.42591,394.44042)"
     id="g16300" />
  <g
     transform="matrix(0.1863653,0,0,0.1863653,-717.42591,394.44042)"
     id="g16302" />
  <g
     transform="matrix(0.1863653,0,0,0.1863653,-930.5254,573.54771)"
     id="g16304" />
  <g
     transform="matrix(0.1863653,0,0,0.1863653,-930.5254,573.54771)"
     id="g16306" />
  <g
     transform="translate(-599.21367,-643.63671)"
     id="g16308" />
  <g
     transform="matrix(0.1863653,0,0,0.1863653,303.58481,548.65071)"
     id="g16310" />
  <g
     transform="matrix(0.1863653,0,0,0.1863653,303.58481,548.65071)"
     id="g16312" />
  <g
     transform="matrix(0.1863653,0,0,0.1863653,90.48532,727.758)"
     id="g16314" />
  <g
     transform="matrix(0.1863653,0,0,0.1863653,90.48532,727.758)"
     id="g16316" />
  <g
     transform="matrix(0.1863653,0,0,0.1863653,534.01747,549.29655)"
     id="g16318" />
  <g
     transform="matrix(0.1863653,0,0,0.1863653,534.01747,549.29655)"
     id="g16320" />
  <g
     transform="matrix(0.1863653,0,0,0.1863653,320.91798,728.40384)"
     id="g16322" />
  <g
     transform="matrix(0.1863653,0,0,0.1863653,320.91798,728.40384)"
     id="g16324" />
  <g
     transform="matrix(0.1863653,0,0,0.1863653,303.58481,548.65071)"
     id="g16326" />
  <g
     transform="matrix(0.1863653,0,0,0.1863653,303.58481,548.65071)"
     id="g16328" />
  <g
     transform="matrix(0.1863653,0,0,0.1863653,90.48532,727.758)"
     id="g16330" />
  <g
     transform="matrix(0.1863653,0,0,0.1863653,90.48532,727.758)"
     id="g16332" />
  <g
     transform="matrix(0.1863653,0,0,0.1863653,534.01747,549.29655)"
     id="g16334" />
  <g
     transform="matrix(0.1863653,0,0,0.1863653,534.01747,549.29655)"
     id="g16336" />
  <g
     transform="matrix(0.1863653,0,0,0.1863653,320.91798,728.40384)"
     id="g16338" />
  <g
     transform="matrix(0.1863653,0,0,0.1863653,320.91798,728.40384)"
     id="g16340" />
  <g
     id="g16342"
     transform="matrix(0.1513957,0,0,0.1513957,-1616.3715,-89.477067)" />
  <g
     id="g16344"
     transform="matrix(-0.1513957,0,0,0.1513957,-1458.8808,-89.477067)" />
  <g
     transform="matrix(0.1863653,0,0,0.1863653,-415.87783,588.95598)"
     id="g16346" />
  <g
     transform="matrix(0.1863653,0,0,0.1863653,-415.87783,588.95598)"
     id="g16348" />
  <g
     transform="matrix(0.1863653,0,0,0.1863653,-628.97732,768.06327)"
     id="g16350" />
  <g
     transform="matrix(0.1863653,0,0,0.1863653,-628.97732,768.06327)"
     id="g16352" />
  <g
     transform="translate(-297.66559,-449.12115)"
     id="g16354" />
  <g
     transform="matrix(0.1863653,0,0,0.1863653,487.24622,356.73424)"
     id="g16356" />
  <g
     transform="matrix(0.1863653,0,0,0.1863653,487.24622,356.73424)"
     id="g16358" />
  <g
     transform="matrix(0.1863653,0,0,0.1863653,274.14673,535.84153)"
     id="g16360" />
  <g
     transform="matrix(0.1863653,0,0,0.1863653,274.14673,535.84153)"
     id="g16362" />
  <g
     transform="matrix(0.1863653,0,0,0.1863653,717.67888,357.38008)"
     id="g16364" />
  <g
     transform="matrix(0.1863653,0,0,0.1863653,717.67888,357.38008)"
     id="g16366" />
  <g
     transform="matrix(0.1863653,0,0,0.1863653,504.57939,536.48737)"
     id="g16368" />
  <g
     transform="matrix(0.1863653,0,0,0.1863653,504.57939,536.48737)"
     id="g16370" />
  <g
     transform="matrix(0.1863653,0,0,0.1863653,487.24622,356.73424)"
     id="g16372" />
  <g
     transform="matrix(0.1863653,0,0,0.1863653,487.24622,356.73424)"
     id="g16374" />
  <g
     transform="matrix(0.1863653,0,0,0.1863653,274.14673,535.84153)"
     id="g16376" />
  <g
     transform="matrix(0.1863653,0,0,0.1863653,274.14673,535.84153)"
     id="g16378" />
  <g
     transform="matrix(0.1863653,0,0,0.1863653,717.67888,357.38008)"
     id="g16380" />
  <g
     transform="matrix(0.1863653,0,0,0.1863653,717.67888,357.38008)"
     id="g16382" />
  <g
     transform="matrix(0.1863653,0,0,0.1863653,504.57939,536.48737)"
     id="g16384" />
  <g
     transform="matrix(0.1863653,0,0,0.1863653,504.57939,536.48737)"
     id="g16386" />
  <g
     id="g16388"
     transform="matrix(0.1513957,0,0,0.1513957,-1432.7101,-281.39354)" />
  <g
     id="g16390"
     transform="matrix(-0.1513957,0,0,0.1513957,-1275.2194,-281.39354)" />
  <g
     transform="matrix(0.1863653,0,0,0.1863653,-232.21642,397.03951)"
     id="g16392" />
  <g
     transform="matrix(0.1863653,0,0,0.1863653,-232.21642,397.03951)"
     id="g16394" />
  <g
     transform="matrix(0.1863653,0,0,0.1863653,-445.31591,576.1468)"
     id="g16396" />
  <g
     transform="matrix(0.1863653,0,0,0.1863653,-445.31591,576.1468)"
     id="g16398" />
  <g
     transform="translate(-114.00418,-641.03762)"
     id="g16400" />
  <g
     transform="matrix(0.1863653,0,0,0.1863653,325.00702,442.60792)"
     id="g16402" />
  <g
     transform="matrix(0.1863653,0,0,0.1863653,325.00702,442.60792)"
     id="g16404" />
  <g
     transform="matrix(0.1863653,0,0,0.1863653,111.90753,621.71521)"
     id="g16406" />
  <g
     transform="matrix(0.1863653,0,0,0.1863653,111.90753,621.71521)"
     id="g16408" />
  <g
     transform="matrix(0.1863653,0,0,0.1863653,555.43968,443.25376)"
     id="g16410" />
  <g
     transform="matrix(0.1863653,0,0,0.1863653,555.43968,443.25376)"
     id="g16412" />
  <g
     transform="matrix(0.1863653,0,0,0.1863653,342.34019,622.36105)"
     id="g16414" />
  <g
     transform="matrix(0.1863653,0,0,0.1863653,342.34019,622.36105)"
     id="g16416" />
  <g
     transform="matrix(0.1863653,0,0,0.1863653,325.00702,442.60792)"
     id="g16418" />
  <g
     transform="matrix(0.1863653,0,0,0.1863653,325.00702,442.60792)"
     id="g16420" />
  <g
     transform="matrix(0.1863653,0,0,0.1863653,111.90753,621.71521)"
     id="g16422" />
  <g
     transform="matrix(0.1863653,0,0,0.1863653,111.90753,621.71521)"
     id="g16424" />
  <g
     transform="matrix(0.1863653,0,0,0.1863653,555.43968,443.25376)"
     id="g16426" />
  <g
     transform="matrix(0.1863653,0,0,0.1863653,555.43968,443.25376)"
     id="g16428" />
  <g
     transform="matrix(0.1863653,0,0,0.1863653,342.34019,622.36105)"
     id="g16430" />
  <g
     transform="matrix(0.1863653,0,0,0.1863653,342.34019,622.36105)"
     id="g16432" />
  <g
     id="g16434"
     transform="matrix(0.1513957,0,0,0.1513957,-1594.9493,-195.51986)" />
  <g
     id="g16436"
     transform="matrix(-0.1513957,0,0,0.1513957,-1437.4586,-195.51986)" />
  <g
     transform="matrix(0.1863653,0,0,0.1863653,-394.45562,482.91319)"
     id="g16438" />
  <g
     transform="matrix(0.1863653,0,0,0.1863653,-394.45562,482.91319)"
     id="g16440" />
  <g
     transform="matrix(0.1863653,0,0,0.1863653,-607.55511,662.02048)"
     id="g16442" />
  <g
     transform="matrix(0.1863653,0,0,0.1863653,-607.55511,662.02048)"
     id="g16444" />
  <g
     transform="translate(-276.24338,-555.16394)"
     id="g16446" />
  <g
     transform="matrix(0.1863653,0,0,0.1863653,547.7819,654.24336)"
     id="g16448" />
  <g
     transform="matrix(0.1863653,0,0,0.1863653,547.7819,654.24336)"
     id="g16450" />
  <g
     transform="matrix(0.1863653,0,0,0.1863653,334.68241,833.35065)"
     id="g16452" />
  <g
     transform="matrix(0.1863653,0,0,0.1863653,334.68241,833.35065)"
     id="g16454" />
  <g
     transform="matrix(0.1863653,0,0,0.1863653,778.21456,654.8892)"
     id="g16456" />
  <g
     transform="matrix(0.1863653,0,0,0.1863653,778.21456,654.8892)"
     id="g16458" />
  <g
     transform="matrix(0.1863653,0,0,0.1863653,565.11507,833.99649)"
     id="g16460" />
  <g
     transform="matrix(0.1863653,0,0,0.1863653,565.11507,833.99649)"
     id="g16462" />
  <g
     transform="matrix(0.1863653,0,0,0.1863653,547.7819,654.24336)"
     id="g16464" />
  <g
     transform="matrix(0.1863653,0,0,0.1863653,547.7819,654.24336)"
     id="g16466" />
  <g
     transform="matrix(0.1863653,0,0,0.1863653,334.68241,833.35065)"
     id="g16468" />
  <g
     transform="matrix(0.1863653,0,0,0.1863653,334.68241,833.35065)"
     id="g16470" />
  <g
     transform="matrix(0.1863653,0,0,0.1863653,778.21456,654.8892)"
     id="g16472" />
  <g
     transform="matrix(0.1863653,0,0,0.1863653,778.21456,654.8892)"
     id="g16474" />
  <g
     transform="matrix(0.1863653,0,0,0.1863653,565.11507,833.99649)"
     id="g16476" />
  <g
     transform="matrix(0.1863653,0,0,0.1863653,565.11507,833.99649)"
     id="g16478" />
  <g
     transform="matrix(0.1863653,0,0,0.1863653,286.90319,505.22433)"
     id="g16480" />
  <g
     transform="matrix(0.1863653,0,0,0.1863653,286.90319,505.22433)"
     id="g16482" />
  <g
     transform="matrix(0.1863653,0,0,0.1863653,73.8037,684.33162)"
     id="g16484" />
  <g
     transform="matrix(0.1863653,0,0,0.1863653,73.8037,684.33162)"
     id="g16486" />
  <g
     transform="matrix(0.1863653,0,0,0.1863653,517.33585,505.87017)"
     id="g16488" />
  <g
     transform="matrix(0.1863653,0,0,0.1863653,517.33585,505.87017)"
     id="g16490" />
  <g
     transform="matrix(0.1863653,0,0,0.1863653,304.23636,684.97746)"
     id="g16492" />
  <g
     transform="matrix(0.1863653,0,0,0.1863653,304.23636,684.97746)"
     id="g16494" />
  <g
     transform="matrix(0.1863653,0,0,0.1863653,286.90319,505.22433)"
     id="g16496" />
  <g
     transform="matrix(0.1863653,0,0,0.1863653,286.90319,505.22433)"
     id="g16498" />
  <g
     transform="matrix(0.1863653,0,0,0.1863653,73.8037,684.33162)"
     id="g16500" />
  <g
     transform="matrix(0.1863653,0,0,0.1863653,73.8037,684.33162)"
     id="g16502" />
  <g
     transform="matrix(0.1863653,0,0,0.1863653,517.33585,505.87017)"
     id="g16504" />
  <g
     transform="matrix(0.1863653,0,0,0.1863653,517.33585,505.87017)"
     id="g16506" />
  <g
     transform="matrix(0.1863653,0,0,0.1863653,304.23636,684.97746)"
     id="g16508" />
  <g
     transform="matrix(0.1863653,0,0,0.1863653,304.23636,684.97746)"
     id="g16510" />
  <g
     transform="matrix(0.1863653,0,0,0.1863653,265.67534,400.15325)"
     id="g16512" />
  <g
     transform="matrix(0.1863653,0,0,0.1863653,265.67534,400.15325)"
     id="g16514" />
  <g
     transform="matrix(0.1863653,0,0,0.1863653,52.57585,579.26054)"
     id="g16516" />
  <g
     transform="matrix(0.1863653,0,0,0.1863653,52.57585,579.26054)"
     id="g16518" />
  <g
     transform="matrix(0.1863653,0,0,0.1863653,496.108,400.79909)"
     id="g16520" />
  <g
     transform="matrix(0.1863653,0,0,0.1863653,496.108,400.79909)"
     id="g16522" />
  <g
     transform="matrix(0.1863653,0,0,0.1863653,283.00851,579.90638)"
     id="g16524" />
  <g
     transform="matrix(0.1863653,0,0,0.1863653,283.00851,579.90638)"
     id="g16526" />
  <g
     transform="matrix(0.1863653,0,0,0.1863653,265.67534,400.15325)"
     id="g16528" />
  <g
     transform="matrix(0.1863653,0,0,0.1863653,265.67534,400.15325)"
     id="g16530" />
  <g
     transform="matrix(0.1863653,0,0,0.1863653,52.57585,579.26054)"
     id="g16532" />
  <g
     transform="matrix(0.1863653,0,0,0.1863653,52.57585,579.26054)"
     id="g16534" />
  <g
     transform="matrix(0.1863653,0,0,0.1863653,496.108,400.79909)"
     id="g16536" />
  <g
     transform="matrix(0.1863653,0,0,0.1863653,496.108,400.79909)"
     id="g16538" />
  <g
     transform="matrix(0.1863653,0,0,0.1863653,283.00851,579.90638)"
     id="g16540" />
  <g
     transform="matrix(0.1863653,0,0,0.1863653,283.00851,579.90638)"
     id="g16542" />
  <g
     transform="translate(-831.19297,-80.657247)"
     id="g16544" />
  <g
     transform="matrix(0.1863653,0,0,0.1863653,45.51187,277.50557)"
     id="g16546" />
  <g
     transform="matrix(0.1863653,0,0,0.1863653,45.51187,277.50557)"
     id="g16548" />
  <g
     transform="matrix(0.1863653,0,0,0.1863653,-167.58762,456.61286)"
     id="g16550" />
  <g
     transform="matrix(0.1863653,0,0,0.1863653,-167.58762,456.61286)"
     id="g16552" />
  <g
     transform="matrix(0.1863653,0,0,0.1863653,275.94453,278.15141)"
     id="g16554" />
  <g
     transform="matrix(0.1863653,0,0,0.1863653,275.94453,278.15141)"
     id="g16556" />
  <g
     transform="matrix(0.1863653,0,0,0.1863653,62.845042,457.2587)"
     id="g16558" />
  <g
     transform="matrix(0.1863653,0,0,0.1863653,62.845042,457.2587)"
     id="g16560" />
  <g
     transform="matrix(0.1863653,0,0,0.1863653,45.51187,277.50557)"
     id="g16562" />
  <g
     transform="matrix(0.1863653,0,0,0.1863653,45.51187,277.50557)"
     id="g16564" />
  <g
     transform="matrix(0.1863653,0,0,0.1863653,-167.58762,456.61286)"
     id="g16566" />
  <g
     transform="matrix(0.1863653,0,0,0.1863653,-167.58762,456.61286)"
     id="g16568" />
  <g
     transform="matrix(0.1863653,0,0,0.1863653,275.94453,278.15141)"
     id="g16570" />
  <g
     transform="matrix(0.1863653,0,0,0.1863653,275.94453,278.15141)"
     id="g16572" />
  <g
     transform="matrix(0.1863653,0,0,0.1863653,62.845042,457.2587)"
     id="g16574" />
  <g
     transform="matrix(0.1863653,0,0,0.1863653,62.845042,457.2587)"
     id="g16576" />
  <g
     id="g16578"
     transform="matrix(0.1513957,0,0,0.1513957,-1874.4445,-360.62221)" />
  <g
     id="g16580"
     transform="matrix(-0.1513957,0,0,0.1513957,-1716.9538,-360.62221)" />
  <g
     transform="matrix(0.1863653,0,0,0.1863653,-673.95077,317.81084)"
     id="g16582" />
  <g
     transform="matrix(0.1863653,0,0,0.1863653,-673.95077,317.81084)"
     id="g16584" />
  <g
     transform="matrix(0.1863653,0,0,0.1863653,-887.05026,496.91813)"
     id="g16586" />
  <g
     transform="matrix(0.1863653,0,0,0.1863653,-887.05026,496.91813)"
     id="g16588" />
  <g
     transform="translate(-555.73853,-720.26629)"
     id="g16590" />
  <g
     transform="matrix(0.1863653,0,0,0.1863653,347.05995,472.02113)"
     id="g16592" />
  <g
     transform="matrix(0.1863653,0,0,0.1863653,347.05995,472.02113)"
     id="g16594" />
  <g
     transform="matrix(0.1863653,0,0,0.1863653,133.96046,651.12842)"
     id="g16596" />
  <g
     transform="matrix(0.1863653,0,0,0.1863653,133.96046,651.12842)"
     id="g16598" />
  <g
     transform="matrix(0.1863653,0,0,0.1863653,577.49261,472.66697)"
     id="g16600" />
  <g
     transform="matrix(0.1863653,0,0,0.1863653,577.49261,472.66697)"
     id="g16602" />
  <g
     transform="matrix(0.1863653,0,0,0.1863653,364.39312,651.77426)"
     id="g16604" />
  <g
     transform="matrix(0.1863653,0,0,0.1863653,364.39312,651.77426)"
     id="g16606" />
  <g
     transform="matrix(0.1863653,0,0,0.1863653,347.05995,472.02113)"
     id="g16608" />
  <g
     transform="matrix(0.1863653,0,0,0.1863653,347.05995,472.02113)"
     id="g16610" />
  <g
     transform="matrix(0.1863653,0,0,0.1863653,133.96046,651.12842)"
     id="g16612" />
  <g
     transform="matrix(0.1863653,0,0,0.1863653,133.96046,651.12842)"
     id="g16614" />
  <g
     transform="matrix(0.1863653,0,0,0.1863653,577.49261,472.66697)"
     id="g16616" />
  <g
     transform="matrix(0.1863653,0,0,0.1863653,577.49261,472.66697)"
     id="g16618" />
  <g
     transform="matrix(0.1863653,0,0,0.1863653,364.39312,651.77426)"
     id="g16620" />
  <g
     transform="matrix(0.1863653,0,0,0.1863653,364.39312,651.77426)"
     id="g16622" />
  <g
     id="g16624"
     transform="matrix(0.1513957,0,0,0.1513957,-1572.8964,-166.10664)" />
  <g
     id="g16626"
     transform="matrix(-0.1513957,0,0,0.1513957,-1415.4057,-166.10664)" />
  <g
     transform="matrix(0.1863653,0,0,0.1863653,-372.40269,512.3264)"
     id="g16628" />
  <g
     transform="matrix(0.1863653,0,0,0.1863653,-372.40269,512.3264)"
     id="g16630" />
  <g
     transform="matrix(0.1863653,0,0,0.1863653,-585.50218,691.43369)"
     id="g16632" />
  <g
     transform="matrix(0.1863653,0,0,0.1863653,-585.50218,691.43369)"
     id="g16634" />
  <g
     transform="translate(-254.19045,-525.75073)"
     id="g16636" />
  <g
     transform="matrix(0.1863653,0,0,0.1863653,530.72136,280.10466)"
     id="g16638" />
  <g
     transform="matrix(0.1863653,0,0,0.1863653,530.72136,280.10466)"
     id="g16640" />
  <g
     transform="matrix(0.1863653,0,0,0.1863653,317.62187,459.21195)"
     id="g16642" />
  <g
     transform="matrix(0.1863653,0,0,0.1863653,317.62187,459.21195)"
     id="g16644" />
  <g
     transform="matrix(0.1863653,0,0,0.1863653,761.15402,280.7505)"
     id="g16646" />
  <g
     transform="matrix(0.1863653,0,0,0.1863653,761.15402,280.7505)"
     id="g16648" />
  <g
     transform="matrix(0.1863653,0,0,0.1863653,548.05453,459.85779)"
     id="g16650" />
  <g
     transform="matrix(0.1863653,0,0,0.1863653,548.05453,459.85779)"
     id="g16652" />
  <g
     transform="matrix(0.1863653,0,0,0.1863653,530.72136,280.10466)"
     id="g16654" />
  <g
     transform="matrix(0.1863653,0,0,0.1863653,530.72136,280.10466)"
     id="g16656" />
  <g
     transform="matrix(0.1863653,0,0,0.1863653,317.62187,459.21195)"
     id="g16658" />
  <g
     transform="matrix(0.1863653,0,0,0.1863653,317.62187,459.21195)"
     id="g16660" />
  <g
     transform="matrix(0.1863653,0,0,0.1863653,761.15402,280.7505)"
     id="g16662" />
  <g
     transform="matrix(0.1863653,0,0,0.1863653,761.15402,280.7505)"
     id="g16664" />
  <g
     transform="matrix(0.1863653,0,0,0.1863653,548.05453,459.85779)"
     id="g16666" />
  <g
     transform="matrix(0.1863653,0,0,0.1863653,548.05453,459.85779)"
     id="g16668" />
  <g
     id="g16670"
     transform="matrix(0.1513957,0,0,0.1513957,-1389.235,-358.02312)" />
  <g
     id="g16672"
     transform="matrix(-0.1513957,0,0,0.1513957,-1231.7443,-358.02312)" />
  <g
     transform="matrix(0.1863653,0,0,0.1863653,-188.74128,320.40993)"
     id="g16674" />
  <g
     transform="matrix(0.1863653,0,0,0.1863653,-188.74128,320.40993)"
     id="g16676" />
  <g
     transform="matrix(0.1863653,0,0,0.1863653,-401.84077,499.51722)"
     id="g16678" />
  <g
     transform="matrix(0.1863653,0,0,0.1863653,-401.84077,499.51722)"
     id="g16680" />
  <g
     transform="translate(-70.529038,-717.6672)"
     id="g16682" />
  <g
     transform="matrix(0.1863653,0,0,0.1863653,368.48216,365.97834)"
     id="g16684" />
  <g
     transform="matrix(0.1863653,0,0,0.1863653,368.48216,365.97834)"
     id="g16686" />
  <g
     transform="matrix(0.1863653,0,0,0.1863653,155.38267,545.08563)"
     id="g16688" />
  <g
     transform="matrix(0.1863653,0,0,0.1863653,155.38267,545.08563)"
     id="g16690" />
  <g
     transform="matrix(0.1863653,0,0,0.1863653,598.91482,366.62418)"
     id="g16692" />
  <g
     transform="matrix(0.1863653,0,0,0.1863653,598.91482,366.62418)"
     id="g16694" />
  <g
     transform="matrix(0.1863653,0,0,0.1863653,385.81533,545.73147)"
     id="g16696" />
  <g
     transform="matrix(0.1863653,0,0,0.1863653,385.81533,545.73147)"
     id="g16698" />
  <g
     transform="matrix(0.1863653,0,0,0.1863653,368.48216,365.97834)"
     id="g16700" />
  <g
     transform="matrix(0.1863653,0,0,0.1863653,368.48216,365.97834)"
     id="g16702" />
  <g
     transform="matrix(0.1863653,0,0,0.1863653,155.38267,545.08563)"
     id="g16704" />
  <g
     transform="matrix(0.1863653,0,0,0.1863653,155.38267,545.08563)"
     id="g16706" />
  <g
     transform="matrix(0.1863653,0,0,0.1863653,598.91482,366.62418)"
     id="g16708" />
  <g
     transform="matrix(0.1863653,0,0,0.1863653,598.91482,366.62418)"
     id="g16710" />
  <g
     transform="matrix(0.1863653,0,0,0.1863653,385.81533,545.73147)"
     id="g16712" />
  <g
     transform="matrix(0.1863653,0,0,0.1863653,385.81533,545.73147)"
     id="g16714" />
  <g
     id="g16716"
     transform="matrix(0.1513957,0,0,0.1513957,-1551.4742,-272.14944)" />
  <g
     id="g16718"
     transform="matrix(-0.1513957,0,0,0.1513957,-1393.9835,-272.14944)" />
  <g
     transform="matrix(0.1863653,0,0,0.1863653,-350.98048,406.28361)"
     id="g16720" />
  <g
     transform="matrix(0.1863653,0,0,0.1863653,-350.98048,406.28361)"
     id="g16722" />
  <g
     transform="matrix(0.1863653,0,0,0.1863653,-564.07997,585.3909)"
     id="g16724" />
  <g
     transform="matrix(0.1863653,0,0,0.1863653,-564.07997,585.3909)"
     id="g16726" />
  <g
     transform="translate(-232.76824,-631.79352)"
     id="g16728" />
  <g
     transform="matrix(0.1863653,0,0,0.1863653,591.25704,577.61378)"
     id="g16730" />
  <g
     transform="matrix(0.1863653,0,0,0.1863653,591.25704,577.61378)"
     id="g16732" />
  <g
     transform="matrix(0.1863653,0,0,0.1863653,378.15755,756.72107)"
     id="g16734" />
  <g
     transform="matrix(0.1863653,0,0,0.1863653,378.15755,756.72107)"
     id="g16736" />
  <g
     transform="matrix(0.1863653,0,0,0.1863653,821.6897,578.25962)"
     id="g16738" />
  <g
     transform="matrix(0.1863653,0,0,0.1863653,821.6897,578.25962)"
     id="g16740" />
  <g
     transform="matrix(0.1863653,0,0,0.1863653,608.59021,757.36691)"
     id="g16742" />
  <g
     transform="matrix(0.1863653,0,0,0.1863653,608.59021,757.36691)"
     id="g16744" />
  <g
     transform="matrix(0.1863653,0,0,0.1863653,591.25704,577.61378)"
     id="g16746" />
  <g
     transform="matrix(0.1863653,0,0,0.1863653,591.25704,577.61378)"
     id="g16748" />
  <g
     transform="matrix(0.1863653,0,0,0.1863653,378.15755,756.72107)"
     id="g16750" />
  <g
     transform="matrix(0.1863653,0,0,0.1863653,378.15755,756.72107)"
     id="g16752" />
  <g
     transform="matrix(0.1863653,0,0,0.1863653,821.6897,578.25962)"
     id="g16754" />
  <g
     transform="matrix(0.1863653,0,0,0.1863653,821.6897,578.25962)"
     id="g16756" />
  <g
     transform="matrix(0.1863653,0,0,0.1863653,608.59021,757.36691)"
     id="g16758" />
  <g
     transform="matrix(0.1863653,0,0,0.1863653,608.59021,757.36691)"
     id="g16760" />
  <g
     transform="matrix(0.1863653,0,0,0.1863653,330.37833,428.59475)"
     id="g16762" />
  <g
     transform="matrix(0.1863653,0,0,0.1863653,330.37833,428.59475)"
     id="g16764" />
  <g
     transform="matrix(0.1863653,0,0,0.1863653,117.27884,607.70204)"
     id="g16766" />
  <g
     transform="matrix(0.1863653,0,0,0.1863653,117.27884,607.70204)"
     id="g16768" />
  <g
     transform="matrix(0.1863653,0,0,0.1863653,560.81099,429.24059)"
     id="g16770" />
  <g
     transform="matrix(0.1863653,0,0,0.1863653,560.81099,429.24059)"
     id="g16772" />
  <g
     transform="matrix(0.1863653,0,0,0.1863653,347.7115,608.34788)"
     id="g16774" />
  <g
     transform="matrix(0.1863653,0,0,0.1863653,347.7115,608.34788)"
     id="g16776" />
  <g
     transform="matrix(0.1863653,0,0,0.1863653,330.37833,428.59475)"
     id="g16778" />
  <g
     transform="matrix(0.1863653,0,0,0.1863653,330.37833,428.59475)"
     id="g16780" />
  <g
     transform="matrix(0.1863653,0,0,0.1863653,117.27884,607.70204)"
     id="g16782" />
  <g
     transform="matrix(0.1863653,0,0,0.1863653,117.27884,607.70204)"
     id="g16784" />
  <g
     transform="matrix(0.1863653,0,0,0.1863653,560.81099,429.24059)"
     id="g16786" />
  <g
     transform="matrix(0.1863653,0,0,0.1863653,560.81099,429.24059)"
     id="g16788" />
  <g
     transform="matrix(0.1863653,0,0,0.1863653,347.7115,608.34788)"
     id="g16790" />
  <g
     transform="matrix(0.1863653,0,0,0.1863653,347.7115,608.34788)"
     id="g16792" />
  <g
     transform="matrix(0.1863653,0,0,0.1863653,309.15048,323.52367)"
     id="g16794" />
  <g
     transform="matrix(0.1863653,0,0,0.1863653,309.15048,323.52367)"
     id="g16796" />
  <g
     transform="matrix(0.1863653,0,0,0.1863653,96.05099,502.63096)"
     id="g16798" />
  <g
     transform="matrix(0.1863653,0,0,0.1863653,96.05099,502.63096)"
     id="g16800" />
  <g
     transform="matrix(0.1863653,0,0,0.1863653,539.58314,324.16951)"
     id="g16802" />
  <g
     transform="matrix(0.1863653,0,0,0.1863653,539.58314,324.16951)"
     id="g16804" />
  <g
     transform="matrix(0.1863653,0,0,0.1863653,326.48365,503.2768)"
     id="g16806" />
  <g
     transform="matrix(0.1863653,0,0,0.1863653,326.48365,503.2768)"
     id="g16808" />
  <g
     transform="matrix(0.1863653,0,0,0.1863653,309.15048,323.52367)"
     id="g16811" />
  <g
     transform="matrix(0.1863653,0,0,0.1863653,309.15048,323.52367)"
     id="g16813" />
  <g
     transform="matrix(0.1863653,0,0,0.1863653,96.05099,502.63096)"
     id="g16815" />
  <g
     transform="matrix(0.1863653,0,0,0.1863653,96.05099,502.63096)"
     id="g16817" />
  <g
     transform="matrix(0.1863653,0,0,0.1863653,539.58314,324.16951)"
     id="g16819" />
  <g
     transform="matrix(0.1863653,0,0,0.1863653,539.58314,324.16951)"
     id="g16821" />
  <g
     transform="matrix(0.1863653,0,0,0.1863653,326.48365,503.2768)"
     id="g16823" />
  <g
     transform="matrix(0.1863653,0,0,0.1863653,326.48365,503.2768)"
     id="g16825" />
  <g
     transform="translate(-787.71783,-157.28682)"
     id="g16827" />
  <g
     transform="matrix(0.1863653,0,0,0.1863653,-1.363934,250.20428)"
     id="g16829" />
  <g
     transform="matrix(0.1863653,0,0,0.1863653,-1.363934,250.20428)"
     id="g16831" />
  <g
     transform="matrix(0.1863653,0,0,0.1863653,-214.46342,429.31157)"
     id="g16833" />
  <g
     transform="matrix(0.1863653,0,0,0.1863653,-214.46342,429.31157)"
     id="g16835" />
  <g
     transform="matrix(0.1863653,0,0,0.1863653,229.06873,250.85012)"
     id="g16837" />
  <g
     transform="matrix(0.1863653,0,0,0.1863653,229.06873,250.85012)"
     id="g16839" />
  <g
     transform="matrix(0.1863653,0,0,0.1863653,15.969238,429.95741)"
     id="g16841" />
  <g
     transform="matrix(0.1863653,0,0,0.1863653,15.969238,429.95741)"
     id="g16843" />
  <g
     transform="matrix(0.1863653,0,0,0.1863653,-1.363934,250.20428)"
     id="g16845" />
  <g
     transform="matrix(0.1863653,0,0,0.1863653,-1.363934,250.20428)"
     id="g16847" />
  <g
     transform="matrix(0.1863653,0,0,0.1863653,-214.46342,429.31157)"
     id="g16849" />
  <g
     transform="matrix(0.1863653,0,0,0.1863653,-214.46342,429.31157)"
     id="g16851" />
  <g
     transform="matrix(0.1863653,0,0,0.1863653,229.06873,250.85012)"
     id="g16853" />
  <g
     transform="matrix(0.1863653,0,0,0.1863653,229.06873,250.85012)"
     id="g16855" />
  <g
     transform="matrix(0.1863653,0,0,0.1863653,15.969238,429.95741)"
     id="g16857" />
  <g
     transform="matrix(0.1863653,0,0,0.1863653,15.969238,429.95741)"
     id="g16859" />
  <g
     id="g16861"
     transform="matrix(0.1513957,0,0,0.1513957,-1921.3203,-387.9235)" />
  <g
     id="g16863"
     transform="matrix(-0.1513957,0,0,0.1513957,-1763.8296,-387.9235)" />
  <g
     transform="matrix(0.1863653,0,0,0.1863653,-720.82657,290.50955)"
     id="g16865" />
  <g
     transform="matrix(0.1863653,0,0,0.1863653,-720.82657,290.50955)"
     id="g16867" />
  <g
     transform="matrix(0.1863653,0,0,0.1863653,-933.92606,469.61684)"
     id="g16869" />
  <g
     transform="matrix(0.1863653,0,0,0.1863653,-933.92606,469.61684)"
     id="g16871" />
  <g
     transform="translate(-602.61433,-747.56758)"
     id="g16873" />
  <g
     transform="matrix(0.1863653,0,0,0.1863653,300.18415,444.71984)"
     id="g16875" />
  <g
     transform="matrix(0.1863653,0,0,0.1863653,300.18415,444.71984)"
     id="g16877" />
  <g
     transform="matrix(0.1863653,0,0,0.1863653,87.08466,623.82713)"
     id="g16879" />
  <g
     transform="matrix(0.1863653,0,0,0.1863653,87.08466,623.82713)"
     id="g16881" />
  <g
     transform="matrix(0.1863653,0,0,0.1863653,530.61681,445.36568)"
     id="g16883" />
  <g
     transform="matrix(0.1863653,0,0,0.1863653,530.61681,445.36568)"
     id="g16885" />
  <g
     transform="matrix(0.1863653,0,0,0.1863653,317.51732,624.47297)"
     id="g16887" />
  <g
     transform="matrix(0.1863653,0,0,0.1863653,317.51732,624.47297)"
     id="g16889" />
  <g
     transform="matrix(0.1863653,0,0,0.1863653,300.18415,444.71984)"
     id="g16891" />
  <g
     transform="matrix(0.1863653,0,0,0.1863653,300.18415,444.71984)"
     id="g16893" />
  <g
     transform="matrix(0.1863653,0,0,0.1863653,87.08466,623.82713)"
     id="g16895" />
  <g
     transform="matrix(0.1863653,0,0,0.1863653,87.08466,623.82713)"
     id="g16897" />
  <g
     transform="matrix(0.1863653,0,0,0.1863653,530.61681,445.36568)"
     id="g16899" />
  <g
     transform="matrix(0.1863653,0,0,0.1863653,530.61681,445.36568)"
     id="g16901" />
  <g
     transform="matrix(0.1863653,0,0,0.1863653,317.51732,624.47297)"
     id="g16903" />
  <g
     transform="matrix(0.1863653,0,0,0.1863653,317.51732,624.47297)"
     id="g16905" />
  <g
     id="g16907"
     transform="matrix(0.1513957,0,0,0.1513957,-1619.7722,-193.40794)" />
  <g
     id="g16909"
     transform="matrix(-0.1513957,0,0,0.1513957,-1462.2815,-193.40794)" />
  <g
     transform="matrix(0.1863653,0,0,0.1863653,-419.27849,485.02511)"
     id="g16911" />
  <g
     transform="matrix(0.1863653,0,0,0.1863653,-419.27849,485.02511)"
     id="g16913" />
  <g
     transform="matrix(0.1863653,0,0,0.1863653,-632.37798,664.1324)"
     id="g16915" />
  <g
     transform="matrix(0.1863653,0,0,0.1863653,-632.37798,664.1324)"
     id="g16917" />
  <g
     transform="translate(-301.06625,-553.05202)"
     id="g16919" />
  <g
     transform="matrix(0.1863653,0,0,0.1863653,483.84556,252.80337)"
     id="g16921" />
  <g
     transform="matrix(0.1863653,0,0,0.1863653,483.84556,252.80337)"
     id="g16923" />
  <g
     transform="matrix(0.1863653,0,0,0.1863653,270.74607,431.91066)"
     id="g16925" />
  <g
     transform="matrix(0.1863653,0,0,0.1863653,270.74607,431.91066)"
     id="g16927" />
  <g
     transform="matrix(0.1863653,0,0,0.1863653,714.27822,253.44921)"
     id="g16929" />
  <g
     transform="matrix(0.1863653,0,0,0.1863653,714.27822,253.44921)"
     id="g16931" />
  <g
     transform="matrix(0.1863653,0,0,0.1863653,501.17873,432.5565)"
     id="g16933" />
  <g
     transform="matrix(0.1863653,0,0,0.1863653,501.17873,432.5565)"
     id="g16935" />
  <g
     transform="matrix(0.1863653,0,0,0.1863653,483.84556,252.80337)"
     id="g16937" />
  <g
     transform="matrix(0.1863653,0,0,0.1863653,483.84556,252.80337)"
     id="g16939" />
  <g
     transform="matrix(0.1863653,0,0,0.1863653,270.74607,431.91066)"
     id="g16941" />
  <g
     transform="matrix(0.1863653,0,0,0.1863653,270.74607,431.91066)"
     id="g16943" />
  <g
     transform="matrix(0.1863653,0,0,0.1863653,714.27822,253.44921)"
     id="g16945" />
  <g
     transform="matrix(0.1863653,0,0,0.1863653,714.27822,253.44921)"
     id="g16947" />
  <g
     transform="matrix(0.1863653,0,0,0.1863653,501.17873,432.5565)"
     id="g16949" />
  <g
     transform="matrix(0.1863653,0,0,0.1863653,501.17873,432.5565)"
     id="g16951" />
  <g
     id="g16953"
     transform="matrix(0.1513957,0,0,0.1513957,-1436.1108,-385.32441)" />
  <g
     id="g16955"
     transform="matrix(-0.1513957,0,0,0.1513957,-1278.6201,-385.32441)" />
  <g
     transform="matrix(0.1863653,0,0,0.1863653,-235.61708,293.10864)"
     id="g16957" />
  <g
     transform="matrix(0.1863653,0,0,0.1863653,-235.61708,293.10864)"
     id="g16959" />
  <g
     transform="matrix(0.1863653,0,0,0.1863653,-448.71657,472.21593)"
     id="g16961" />
  <g
     transform="matrix(0.1863653,0,0,0.1863653,-448.71657,472.21593)"
     id="g16963" />
  <g
     transform="translate(-117.40484,-744.96849)"
     id="g16965" />
  <g
     transform="matrix(0.1863653,0,0,0.1863653,321.60636,338.67705)"
     id="g16967" />
  <g
     transform="matrix(0.1863653,0,0,0.1863653,321.60636,338.67705)"
     id="g16969" />
  <g
     transform="matrix(0.1863653,0,0,0.1863653,108.50687,517.78434)"
     id="g16971" />
  <g
     transform="matrix(0.1863653,0,0,0.1863653,108.50687,517.78434)"
     id="g16973" />
  <g
     transform="matrix(0.1863653,0,0,0.1863653,552.03902,339.32289)"
     id="g16975" />
  <g
     transform="matrix(0.1863653,0,0,0.1863653,552.03902,339.32289)"
     id="g16977" />
  <g
     transform="matrix(0.1863653,0,0,0.1863653,338.93953,518.43018)"
     id="g16979" />
  <g
     transform="matrix(0.1863653,0,0,0.1863653,338.93953,518.43018)"
     id="g16981" />
  <g
     transform="matrix(0.1863653,0,0,0.1863653,321.60636,338.67705)"
     id="g16983" />
  <g
     transform="matrix(0.1863653,0,0,0.1863653,321.60636,338.67705)"
     id="g16985" />
  <g
     transform="matrix(0.1863653,0,0,0.1863653,108.50687,517.78434)"
     id="g16987" />
  <g
     transform="matrix(0.1863653,0,0,0.1863653,108.50687,517.78434)"
     id="g16989" />
  <g
     transform="matrix(0.1863653,0,0,0.1863653,552.03902,339.32289)"
     id="g16991" />
  <g
     transform="matrix(0.1863653,0,0,0.1863653,552.03902,339.32289)"
     id="g16993" />
  <g
     transform="matrix(0.1863653,0,0,0.1863653,338.93953,518.43018)"
     id="g16995" />
  <g
     transform="matrix(0.1863653,0,0,0.1863653,338.93953,518.43018)"
     id="g16997" />
  <g
     id="g16999"
     transform="matrix(0.1513957,0,0,0.1513957,-1598.35,-299.45073)" />
  <g
     id="g17001"
     transform="matrix(-0.1513957,0,0,0.1513957,-1440.8593,-299.45073)" />
  <g
     transform="matrix(0.1863653,0,0,0.1863653,-397.85628,378.98232)"
     id="g17003" />
  <g
     transform="matrix(0.1863653,0,0,0.1863653,-397.85628,378.98232)"
     id="g17005" />
  <g
     transform="matrix(0.1863653,0,0,0.1863653,-610.95577,558.08961)"
     id="g17007" />
  <g
     transform="matrix(0.1863653,0,0,0.1863653,-610.95577,558.08961)"
     id="g17009" />
  <g
     transform="translate(-279.64404,-659.09481)"
     id="g17011" />
  <g
     transform="matrix(0.1863653,0,0,0.1863653,544.38124,550.31249)"
     id="g17013" />
  <g
     transform="matrix(0.1863653,0,0,0.1863653,544.38124,550.31249)"
     id="g17015" />
  <g
     transform="matrix(0.1863653,0,0,0.1863653,331.28175,729.41978)"
     id="g17017" />
  <g
     transform="matrix(0.1863653,0,0,0.1863653,331.28175,729.41978)"
     id="g17019" />
  <g
     transform="matrix(0.1863653,0,0,0.1863653,774.8139,550.95833)"
     id="g17021" />
  <g
     transform="matrix(0.1863653,0,0,0.1863653,774.8139,550.95833)"
     id="g17023" />
  <g
     transform="matrix(0.1863653,0,0,0.1863653,561.71441,730.06562)"
     id="g17025" />
  <g
     transform="matrix(0.1863653,0,0,0.1863653,561.71441,730.06562)"
     id="g17027" />
  <g
     transform="matrix(0.1863653,0,0,0.1863653,544.38124,550.31249)"
     id="g17029" />
  <g
     transform="matrix(0.1863653,0,0,0.1863653,544.38124,550.31249)"
     id="g17031" />
  <g
     transform="matrix(0.1863653,0,0,0.1863653,331.28175,729.41978)"
     id="g17033" />
  <g
     transform="matrix(0.1863653,0,0,0.1863653,331.28175,729.41978)"
     id="g17035" />
  <g
     transform="matrix(0.1863653,0,0,0.1863653,774.8139,550.95833)"
     id="g17037" />
  <g
     transform="matrix(0.1863653,0,0,0.1863653,774.8139,550.95833)"
     id="g17039" />
  <g
     transform="matrix(0.1863653,0,0,0.1863653,561.71441,730.06562)"
     id="g17041" />
  <g
     transform="matrix(0.1863653,0,0,0.1863653,561.71441,730.06562)"
     id="g17043" />
  <g
     transform="matrix(0.1863653,0,0,0.1863653,283.50253,401.29346)"
     id="g17045" />
  <g
     transform="matrix(0.1863653,0,0,0.1863653,283.50253,401.29346)"
     id="g17047" />
  <g
     transform="matrix(0.1863653,0,0,0.1863653,70.403038,580.40075)"
     id="g17049" />
  <g
     transform="matrix(0.1863653,0,0,0.1863653,70.403038,580.40075)"
     id="g17052" />
  <g
     transform="matrix(0.1863653,0,0,0.1863653,513.93519,401.9393)"
     id="g17054" />
  <g
     transform="matrix(0.1863653,0,0,0.1863653,513.93519,401.9393)"
     id="g17056" />
  <g
     transform="matrix(0.1863653,0,0,0.1863653,300.8357,581.04659)"
     id="g17058" />
  <g
     transform="matrix(0.1863653,0,0,0.1863653,300.8357,581.04659)"
     id="g17060" />
  <g
     transform="matrix(0.1863653,0,0,0.1863653,283.50253,401.29346)"
     id="g17062" />
  <g
     transform="matrix(0.1863653,0,0,0.1863653,283.50253,401.29346)"
     id="g17064" />
  <g
     transform="matrix(0.1863653,0,0,0.1863653,70.403038,580.40075)"
     id="g17066" />
  <g
     transform="matrix(0.1863653,0,0,0.1863653,70.403038,580.40075)"
     id="g17068" />
  <g
     transform="matrix(0.1863653,0,0,0.1863653,513.93519,401.9393)"
     id="g17070" />
  <g
     transform="matrix(0.1863653,0,0,0.1863653,513.93519,401.9393)"
     id="g17072" />
  <g
     transform="matrix(0.1863653,0,0,0.1863653,300.8357,581.04659)"
     id="g17074" />
  <g
     transform="matrix(0.1863653,0,0,0.1863653,300.8357,581.04659)"
     id="g17076" />
  <g
     transform="matrix(0.1863653,0,0,0.1863653,262.27468,296.22238)"
     id="g17078" />
  <g
     transform="matrix(0.1863653,0,0,0.1863653,262.27468,296.22238)"
     id="g17080" />
  <g
     transform="matrix(0.1863653,0,0,0.1863653,49.175188,475.32967)"
     id="g17082" />
  <g
     transform="matrix(0.1863653,0,0,0.1863653,49.175188,475.32967)"
     id="g17084" />
  <g
     transform="matrix(0.1863653,0,0,0.1863653,492.70734,296.86822)"
     id="g17086" />
  <g
     transform="matrix(0.1863653,0,0,0.1863653,492.70734,296.86822)"
     id="g17088" />
  <g
     transform="matrix(0.1863653,0,0,0.1863653,279.60785,475.97551)"
     id="g17090" />
  <g
     transform="matrix(0.1863653,0,0,0.1863653,279.60785,475.97551)"
     id="g17092" />
  <g
     transform="matrix(0.1863653,0,0,0.1863653,262.27468,296.22238)"
     id="g17094" />
  <g
     transform="matrix(0.1863653,0,0,0.1863653,262.27468,296.22238)"
     id="g17096" />
  <g
     transform="matrix(0.1863653,0,0,0.1863653,49.175188,475.32967)"
     id="g17098" />
  <g
     transform="matrix(0.1863653,0,0,0.1863653,49.175188,475.32967)"
     id="g17100" />
  <g
     transform="matrix(0.1863653,0,0,0.1863653,492.70734,296.86822)"
     id="g17102" />
  <g
     transform="matrix(0.1863653,0,0,0.1863653,492.70734,296.86822)"
     id="g17104" />
  <g
     transform="matrix(0.1863653,0,0,0.1863653,279.60785,475.97551)"
     id="g17106" />
  <g
     transform="matrix(0.1863653,0,0,0.1863653,279.60785,475.97551)"
     id="g17108" />
  <g
     transform="translate(-834.59363,-184.58812)"
     id="g17110" />
  <g
     transform="matrix(0.1863653,0,0,0.1863653,237.09068,88.503413)"
     id="g17112" />
  <g
     transform="matrix(0.1863653,0,0,0.1863653,237.09068,88.503413)"
     id="g17114" />
  <g
     transform="matrix(0.1863653,0,0,0.1863653,23.99119,267.6107)"
     id="g17116" />
  <g
     transform="matrix(0.1863653,0,0,0.1863653,23.99119,267.6107)"
     id="g17118" />
  <g
     transform="matrix(0.1863653,0,0,0.1863653,467.52334,89.149253)"
     id="g17120" />
  <g
     transform="matrix(0.1863653,0,0,0.1863653,467.52334,89.149253)"
     id="g17122" />
  <g
     transform="matrix(0.1863653,0,0,0.1863653,254.42385,268.25654)"
     id="g17124" />
  <g
     transform="matrix(0.1863653,0,0,0.1863653,254.42385,268.25654)"
     id="g17126" />
  <g
     transform="matrix(0.1863653,0,0,0.1863653,237.09068,88.503413)"
     id="g17128" />
  <g
     transform="matrix(0.1863653,0,0,0.1863653,237.09068,88.503413)"
     id="g17130" />
  <g
     transform="matrix(0.1863653,0,0,0.1863653,23.99119,267.6107)"
     id="g17132" />
  <g
     transform="matrix(0.1863653,0,0,0.1863653,23.99119,267.6107)"
     id="g17134" />
  <g
     transform="matrix(0.1863653,0,0,0.1863653,467.52334,89.149253)"
     id="g17136" />
  <g
     transform="matrix(0.1863653,0,0,0.1863653,467.52334,89.149253)"
     id="g17138" />
  <g
     transform="matrix(0.1863653,0,0,0.1863653,254.42385,268.25654)"
     id="g17140" />
  <g
     transform="matrix(0.1863653,0,0,0.1863653,254.42385,268.25654)"
     id="g17142" />
  <g
     id="g17144"
     transform="matrix(0.1513957,0,0,0.1513957,-1682.8657,-549.62437)" />
  <g
     id="g17146"
     transform="matrix(-0.1513957,0,0,0.1513957,-1525.375,-549.62437)" />
  <g
     transform="matrix(0.1863653,0,0,0.1863653,-482.37196,128.80868)"
     id="g17148" />
  <g
     transform="matrix(0.1863653,0,0,0.1863653,-482.37196,128.80868)"
     id="g17150" />
  <g
     transform="matrix(0.1863653,0,0,0.1863653,-695.47145,307.91597)"
     id="g17152" />
  <g
     transform="matrix(0.1863653,0,0,0.1863653,-695.47145,307.91597)"
     id="g17154" />
  <g
     transform="translate(-364.15972,-909.26845)"
     id="g17156" />
  <g
     transform="matrix(0.1863653,0,0,0.1863653,538.63876,283.01897)"
     id="g17158" />
  <g
     transform="matrix(0.1863653,0,0,0.1863653,538.63876,283.01897)"
     id="g17160" />
  <g
     transform="matrix(0.1863653,0,0,0.1863653,325.53927,462.12626)"
     id="g17162" />
  <g
     transform="matrix(0.1863653,0,0,0.1863653,325.53927,462.12626)"
     id="g17164" />
  <g
     transform="matrix(0.1863653,0,0,0.1863653,769.07142,283.66481)"
     id="g17166" />
  <g
     transform="matrix(0.1863653,0,0,0.1863653,769.07142,283.66481)"
     id="g17168" />
  <g
     transform="matrix(0.1863653,0,0,0.1863653,555.97193,462.7721)"
     id="g17170" />
  <g
     transform="matrix(0.1863653,0,0,0.1863653,555.97193,462.7721)"
     id="g17172" />
  <g
     transform="matrix(0.1863653,0,0,0.1863653,538.63876,283.01897)"
     id="g17174" />
  <g
     transform="matrix(0.1863653,0,0,0.1863653,538.63876,283.01897)"
     id="g17176" />
  <g
     transform="matrix(0.1863653,0,0,0.1863653,325.53927,462.12626)"
     id="g17178" />
  <g
     transform="matrix(0.1863653,0,0,0.1863653,325.53927,462.12626)"
     id="g17180" />
  <g
     transform="matrix(0.1863653,0,0,0.1863653,769.07142,283.66481)"
     id="g17182" />
  <g
     transform="matrix(0.1863653,0,0,0.1863653,769.07142,283.66481)"
     id="g17184" />
  <g
     transform="matrix(0.1863653,0,0,0.1863653,555.97193,462.7721)"
     id="g17186" />
  <g
     transform="matrix(0.1863653,0,0,0.1863653,555.97193,462.7721)"
     id="g17188" />
  <g
     id="g17190"
     transform="matrix(0.1513957,0,0,0.1513957,-1381.3176,-355.10881)" />
  <g
     id="g17192"
     transform="matrix(-0.1513957,0,0,0.1513957,-1223.8269,-355.10881)" />
  <g
     transform="matrix(0.1863653,0,0,0.1863653,-180.82388,323.32424)"
     id="g17194" />
  <g
     transform="matrix(0.1863653,0,0,0.1863653,-180.82388,323.32424)"
     id="g17196" />
  <g
     transform="matrix(0.1863653,0,0,0.1863653,-393.92337,502.43153)"
     id="g17198" />
  <g
     transform="matrix(0.1863653,0,0,0.1863653,-393.92337,502.43153)"
     id="g17200" />
  <g
     transform="translate(-62.61164,-714.75289)"
     id="g17202" />
  <g
     transform="matrix(0.1863653,0,0,0.1863653,722.30017,91.102503)"
     id="g17204" />
  <g
     transform="matrix(0.1863653,0,0,0.1863653,722.30017,91.102503)"
     id="g17206" />
  <g
     transform="matrix(0.1863653,0,0,0.1863653,509.20068,270.20979)"
     id="g17208" />
  <g
     transform="matrix(0.1863653,0,0,0.1863653,509.20068,270.20979)"
     id="g17210" />
  <g
     transform="matrix(0.1863653,0,0,0.1863653,952.73283,91.748343)"
     id="g17212" />
  <g
     transform="matrix(0.1863653,0,0,0.1863653,952.73283,91.748343)"
     id="g17214" />
  <g
     transform="matrix(0.1863653,0,0,0.1863653,739.63334,270.85563)"
     id="g17216" />
  <g
     transform="matrix(0.1863653,0,0,0.1863653,739.63334,270.85563)"
     id="g17218" />
  <g
     transform="matrix(0.1863653,0,0,0.1863653,722.30017,91.102503)"
     id="g17220" />
  <g
     transform="matrix(0.1863653,0,0,0.1863653,722.30017,91.102503)"
     id="g17222" />
  <g
     transform="matrix(0.1863653,0,0,0.1863653,509.20068,270.20979)"
     id="g17224" />
  <g
     transform="matrix(0.1863653,0,0,0.1863653,509.20068,270.20979)"
     id="g17226" />
  <g
     transform="matrix(0.1863653,0,0,0.1863653,952.73283,91.748343)"
     id="g17228" />
  <g
     transform="matrix(0.1863653,0,0,0.1863653,952.73283,91.748343)"
     id="g17230" />
  <g
     transform="matrix(0.1863653,0,0,0.1863653,739.63334,270.85563)"
     id="g17232" />
  <g
     transform="matrix(0.1863653,0,0,0.1863653,739.63334,270.85563)"
     id="g17234" />
  <g
     id="g17236"
     transform="matrix(0.1513957,0,0,0.1513957,-1197.6562,-547.02528)" />
  <g
     id="g17238"
     transform="matrix(-0.1513957,0,0,0.1513957,-1040.1655,-547.02528)" />
  <g
     transform="matrix(0.1863653,0,0,0.1863653,2.83753,131.40777)"
     id="g17240" />
  <g
     transform="matrix(0.1863653,0,0,0.1863653,2.83753,131.40777)"
     id="g17242" />
  <g
     transform="matrix(0.1863653,0,0,0.1863653,-210.26196,310.51506)"
     id="g17244" />
  <g
     transform="matrix(0.1863653,0,0,0.1863653,-210.26196,310.51506)"
     id="g17246" />
  <g
     transform="translate(121.04977,-906.66936)"
     id="g17248" />
</svg>
