<?xml version="1.0" encoding="UTF-8" standalone="no"?>
<svg
   xmlns:dc="http://purl.org/dc/elements/1.1/"
   xmlns:cc="http://creativecommons.org/ns#"
   xmlns:rdf="http://www.w3.org/1999/02/22-rdf-syntax-ns#"
   xmlns:svg="http://www.w3.org/2000/svg"
   xmlns="http://www.w3.org/2000/svg"
   xmlns:sodipodi="http://sodipodi.sourceforge.net/DTD/sodipodi-0.dtd"
   xmlns:inkscape="http://www.inkscape.org/namespaces/inkscape"
   version="1.0"
   width="1024"
   height="279.379"
   id="svg2"
   inkscape:version="0.48.4 r9939"
   sodipodi:docname="Defense_Distinguished_Service_Medal_ribbon.svg">
  <metadata
     id="metadata16">
    <rdf:RDF>
      <cc:Work
         rdf:about="">
        <dc:format>image/svg+xml</dc:format>
        <dc:type
           rdf:resource="http://purl.org/dc/dcmitype/StillImage" />
      </cc:Work>
    </rdf:RDF>
  </metadata>
  <defs
     id="defs14" />
  <sodipodi:namedview
     pagecolor="#ffffff"
     bordercolor="#666666"
     borderopacity="1"
     objecttolerance="10"
     gridtolerance="10"
     guidetolerance="10"
     inkscape:pageopacity="0"
     inkscape:pageshadow="2"
     inkscape:window-width="1920"
     inkscape:window-height="1096"
     id="namedview12"
     showgrid="false"
     fit-margin-top="0"
     fit-margin-left="0"
     fit-margin-right="0"
     fit-margin-bottom="0"
     inkscape:zoom="0.57201097"
     inkscape:cx="346.47101"
     inkscape:cy="474.73322"
     inkscape:window-x="-8"
     inkscape:window-y="-8"
     inkscape:window-maximized="1"
     inkscape:current-layer="svg2" />
  <path
     d="M 0,0.002365 H 1024 V 279.379 H 0 z"
     id="path4"
     style="fill:#7bafd4;fill-opacity:1"
     inkscape:connector-curvature="0" />
  <path
     d="M 266.73054,0.002365 V 279.379 H 757.26946 V 0.002365 z"
     id="path6"
     style="fill:#ffcd00;fill-opacity:1"
     inkscape:connector-curvature="0" />
  <path
     d="M 462.94611,0.002365 V 279.379 h 98.10778 V 0.002365 z"
     id="path8"
     style="fill:#ba0c2f;fill-opacity:1"
     inkscape:connector-curvature="0" />
  <path
     style="font-size:medium;font-style:normal;font-variant:normal;font-weight:normal;font-stretch:normal;text-indent:0;text-align:start;text-decoration:none;line-height:normal;letter-spacing:normal;word-spacing:normal;text-transform:none;direction:ltr;block-progression:tb;writing-mode:lr-tb;text-anchor:start;baseline-shift:baseline;opacity:0.25;color:#000000;fill:#000000;fill-opacity:1;fill-rule:nonzero;stroke:none;stroke-width:106;marker:none;visibility:visible;display:inline;overflow:visible;enable-background:accumulate;font-family:Sans;-inkscape-font-specification:Sans"
     d="m 0,9.633683 1024,0 L 1024,0 0,0 z m 0,19.267338 1024,0 0,-9.633683 -1024,0 z m 0,19.26729 1024,0 0,-9.633683 -1024,0 z m 0,19.267338 1024,0 0,-9.633684 -1024,0 z m 0,19.267328 1024,0 0,-9.633645 -1024,0 z m 0,19.267343 1024,0 0,-9.63366 -1024,0 z m 0,19.26735 1024,0 0,-9.63367 -1024,0 z m 0,19.26734 1024,0 0,-9.63368 -1024,0 z m 0,19.26734 1024,0 0,-9.63368 -1024,0 z m 0,19.26733 1024,0 0,-9.63366 -1024,0 z m 0,19.2673 1024,0 0,-9.63362 -1024,0 z m 0,19.26733 1024,0 0,-9.63366 -1024,0 z m 0,19.26735 1024,0 0,-9.63367 -1024,0 z m 0,19.26733 1024,0 0,-9.63367 -1024,0 z m 0,19.26734 1024,0 0,-9.63368 -1024,0 z"
     id="path10"
     inkscape:connector-curvature="0" />
</svg>
