<?xml version="1.0" encoding="UTF-8" standalone="no"?>
<svg
   xmlns:dc="http://purl.org/dc/elements/1.1/"
   xmlns:cc="http://creativecommons.org/ns#"
   xmlns:rdf="http://www.w3.org/1999/02/22-rdf-syntax-ns#"
   xmlns:svg="http://www.w3.org/2000/svg"
   xmlns="http://www.w3.org/2000/svg"
   xmlns:sodipodi="http://sodipodi.sourceforge.net/DTD/sodipodi-0.dtd"
   xmlns:inkscape="http://www.inkscape.org/namespaces/inkscape"
   version="1.0"
   width="1024"
   height="279.379"
   id="svg2"
   inkscape:version="0.48.4 r9939"
   sodipodi:docname="Distinguished_Flying_Cross_ribbon.svg">
  <metadata
     id="metadata16">
    <rdf:RDF>
      <cc:Work
         rdf:about="">
        <dc:format>image/svg+xml</dc:format>
        <dc:type
           rdf:resource="http://purl.org/dc/dcmitype/StillImage" />
      </cc:Work>
    </rdf:RDF>
  </metadata>
  <defs
     id="defs14" />
  <sodipodi:namedview
     pagecolor="#ffffff"
     bordercolor="#666666"
     borderopacity="1"
     objecttolerance="10"
     gridtolerance="10"
     guidetolerance="10"
     inkscape:pageopacity="0"
     inkscape:pageshadow="2"
     inkscape:window-width="1920"
     inkscape:window-height="1096"
     id="namedview12"
     showgrid="false"
     fit-margin-top="0"
     fit-margin-left="0"
     fit-margin-right="0"
     fit-margin-bottom="0"
     inkscape:zoom="1.013971"
     inkscape:cx="366.58272"
     inkscape:cy="206.29882"
     inkscape:window-x="-8"
     inkscape:window-y="-8"
     inkscape:window-maximized="1"
     inkscape:current-layer="svg2" />
  <path
     d="M 0,0 H 1024 V 279.379 H 0 z"
     id="path4"
     inkscape:connector-curvature="0"
     style="fill:#00008d" />
  <path
     d="M 57.962264,0 V 279.379 H 164.22642 V 0 H 444.37736 V 279.379 H 579.62264 V 0 H 859.77358 V 279.379 H 966.03774 V 0 z"
     id="path6"
     inkscape:connector-curvature="0"
     style="fill:#fcfcfc" />
  <path
     d="m 473.35849,0 v 279.379 h 77.28302 V 0 z"
     id="path8"
     inkscape:connector-curvature="0"
     style="fill:#d92204" />
  <path
     style="font-size:medium;font-style:normal;font-variant:normal;font-weight:normal;font-stretch:normal;text-indent:0;text-align:start;text-decoration:none;line-height:normal;letter-spacing:normal;word-spacing:normal;text-transform:none;direction:ltr;block-progression:tb;writing-mode:lr-tb;text-anchor:start;baseline-shift:baseline;opacity:0.25;color:#000000;fill:#000000;fill-opacity:1;fill-rule:nonzero;stroke:none;stroke-width:106;marker:none;visibility:visible;display:inline;overflow:visible;enable-background:accumulate;font-family:Sans;-inkscape-font-specification:Sans"
     d="m 0,9.63377 1024,0 L 1024,0 0,0 z m 0,19.26751 1024,0 0,-9.63376 -1024,0 z m 0,19.26752 1024,0 0,-9.63376 -1024,0 z m 0,19.26752 1024,0 0,-9.63377 -1024,0 z m 0,19.26751 1024,0 0,-9.63376 -1024,0 z m 0,19.26752 1024,0 0,-9.63376 -1024,0 z m 0,19.26752 1024,0 0,-9.63377 -1024,0 z m 0,19.26751 1024,0 0,-9.63376 -1024,0 z m 0,19.26752 1024,0 0,-9.63376 -1024,0 z m 0,19.26752 1024,0 0,-9.63376 -1024,0 z m 0,19.26751 1024,0 0,-9.63376 -1024,0 z m 0,19.26752 1024,0 0,-9.63376 -1024,0 z m 0,19.26752 1024,0 0,-9.63376 -1024,0 z m 0,19.26751 1024,0 0,-9.63376 -1024,0 z m 0,19.26752 1024,0 0,-9.63376 -1024,0 z"
     id="path10"
     inkscape:connector-curvature="0" />
</svg>
