<?xml version="1.0" encoding="UTF-8" standalone="no"?>
<svg
   xmlns:dc="http://purl.org/dc/elements/1.1/"
   xmlns:cc="http://creativecommons.org/ns#"
   xmlns:rdf="http://www.w3.org/1999/02/22-rdf-syntax-ns#"
   xmlns:svg="http://www.w3.org/2000/svg"
   xmlns="http://www.w3.org/2000/svg"
   xmlns:sodipodi="http://sodipodi.sourceforge.net/DTD/sodipodi-0.dtd"
   xmlns:inkscape="http://www.inkscape.org/namespaces/inkscape"
   version="1.0"
   width="1024"
   height="279.379"
   id="svg2"
   inkscape:version="0.48.4 r9939"
   sodipodi:docname="Joint_Service_Achievement_Medal_ribbon.svg">
  <metadata
     id="metadata20">
    <rdf:RDF>
      <cc:Work
         rdf:about="">
        <dc:format>image/svg+xml</dc:format>
        <dc:type
           rdf:resource="http://purl.org/dc/dcmitype/StillImage" />
      </cc:Work>
    </rdf:RDF>
  </metadata>
  <defs
     id="defs18" />
  <sodipodi:namedview
     pagecolor="#ffffff"
     bordercolor="#666666"
     borderopacity="1"
     objecttolerance="10"
     gridtolerance="10"
     guidetolerance="10"
     inkscape:pageopacity="0"
     inkscape:pageshadow="2"
     inkscape:window-width="1920"
     inkscape:window-height="1096"
     id="namedview16"
     showgrid="false"
     fit-margin-top="0"
     fit-margin-left="0"
     fit-margin-right="0"
     fit-margin-bottom="0"
     inkscape:zoom="1.2719636"
     inkscape:cx="471.27989"
     inkscape:cy="297.03216"
     inkscape:window-x="-8"
     inkscape:window-y="-8"
     inkscape:window-maximized="1"
     inkscape:current-layer="svg2" />
  <path
     d="M -2.1282422e-6,6.4919255e-5 V 279.379 H 1023.9999 V 6.4919255e-5 z"
     id="path4"
     inkscape:connector-curvature="0"
     style="fill:#981d97;fill-opacity:1" />
  <path
     d="M 140.43434,6.4919255e-5 V 279.379 H 889.91452 V 6.4919255e-5 z"
     id="path6"
     inkscape:connector-curvature="0"
     style="fill:#ffffff" />
  <path
     d="M 187.24576,6.4919255e-5 V 279.379 H 843.10309 V 6.4919255e-5 z"
     id="path8"
     inkscape:connector-curvature="0"
     style="fill:#7bafd4;fill-opacity:1" />
  <path
     d="M 418.37718,6.4919255e-5 V 279.379 H 611.97112 V 6.4919255e-5 z"
     id="path12"
     inkscape:connector-curvature="0"
     style="fill:#041e42;fill-opacity:1" />
  <g
     id="layer3"
     transform="matrix(9.6603768,0,0,9.6337534,6.013804e-5,-9.6347274)">
    <path
       d="m 0,29.000101 106,0 0,1 -106,0 0,-1 z"
       style="opacity:0.25;fill:#000000;fill-opacity:1;fill-rule:evenodd;stroke:none"
       id="path3508"
       inkscape:connector-curvature="0" />
    <path
       d="m 0,27.000101 106,0 0,1 -106,0 0,-1 z"
       style="opacity:0.25;fill:#000000;fill-opacity:1;fill-rule:evenodd;stroke:none"
       id="path3510"
       inkscape:connector-curvature="0" />
    <path
       d="m 0,25.000101 106,0 0,1 -106,0 0,-1 z"
       style="opacity:0.25;fill:#000000;fill-opacity:1;fill-rule:evenodd;stroke:none"
       id="path3512"
       inkscape:connector-curvature="0" />
    <path
       d="m 0,23.000101 106,0 0,1 -106,0 0,-1 z"
       style="opacity:0.25;fill:#000000;fill-opacity:1;fill-rule:evenodd;stroke:none"
       id="path3514"
       inkscape:connector-curvature="0" />
    <path
       d="m 0,21.000101 106,0 0,1 -106,0 0,-1 z"
       style="opacity:0.25;fill:#000000;fill-opacity:1;fill-rule:evenodd;stroke:none"
       id="path3516"
       inkscape:connector-curvature="0" />
    <path
       d="m 0,19.000101 106,0 0,1 -106,0 0,-1 z"
       style="opacity:0.25;fill:#000000;fill-opacity:1;fill-rule:evenodd;stroke:none"
       id="path3518"
       inkscape:connector-curvature="0" />
    <path
       d="m 0,17.000101 106,0 0,1 -106,0 0,-1 z"
       style="opacity:0.25;fill:#000000;fill-opacity:1;fill-rule:evenodd;stroke:none"
       id="path3520"
       inkscape:connector-curvature="0" />
    <path
       d="m 0,15.000101 106,0 0,1 -106,0 0,-1 z"
       style="opacity:0.25;fill:#000000;fill-opacity:1;fill-rule:evenodd;stroke:none"
       id="path3522"
       inkscape:connector-curvature="0" />
    <path
       d="m 0,13.000101 106,0 0,1 -106,0 0,-1 z"
       style="opacity:0.25;fill:#000000;fill-opacity:1;fill-rule:evenodd;stroke:none"
       id="path3524"
       inkscape:connector-curvature="0" />
    <path
       d="m 0,11.000101 106,0 0,1 -106,0 0,-1 z"
       style="opacity:0.25;fill:#000000;fill-opacity:1;fill-rule:evenodd;stroke:none"
       id="path3526"
       inkscape:connector-curvature="0" />
    <path
       d="m 0,9.0001011 106,0 0,0.9999999 -106,0 0,-0.9999999 z"
       style="opacity:0.25;fill:#000000;fill-opacity:1;fill-rule:evenodd;stroke:none"
       id="path3528"
       inkscape:connector-curvature="0" />
    <path
       d="m 0,7.0001011 106,0 0,1 -106,0 0,-1 z"
       style="opacity:0.25;fill:#000000;fill-opacity:1;fill-rule:evenodd;stroke:none"
       id="path3530"
       inkscape:connector-curvature="0" />
    <path
       d="m 0,5.0001011 106,0 0,1 -106,0 0,-1 z"
       style="opacity:0.25;fill:#000000;fill-opacity:1;fill-rule:evenodd;stroke:none"
       id="path3532"
       inkscape:connector-curvature="0" />
    <path
       d="m 0,3.0001011 106,0 0,1 -106,0 0,-1 z"
       style="opacity:0.25;fill:#000000;fill-opacity:1;fill-rule:evenodd;stroke:none"
       id="path3534"
       inkscape:connector-curvature="0" />
    <path
       d="m 0,1.0001011 106,0 0,1 -106,0 0,-1 z"
       style="opacity:0.25;fill:#000000;fill-opacity:1;fill-rule:evenodd;stroke:none"
       id="path3536"
       inkscape:connector-curvature="0" />
  </g>
</svg>
