<?xml version="1.0" encoding="UTF-8" standalone="no"?>
<!-- Created with Inkscape (http://www.inkscape.org/) -->
<svg
   xmlns:svg="http://www.w3.org/2000/svg"
   xmlns="http://www.w3.org/2000/svg"
   xmlns:xlink="http://www.w3.org/1999/xlink"
   version="1.0"
   width="105.99999"
   height="30.000017"
   id="svg2">
  <defs
     id="defs4">
    <linearGradient
       x1="17.889088"
       y1="69.905594"
       x2="88.46447"
       y2="69.905594"
       id="linearGradient5867"
       xlink:href="#linearGradient5861"
       gradientUnits="userSpaceOnUse"
       gradientTransform="translate(0,-54.905595)" />
    <linearGradient
       id="linearGradient5861">
      <stop
         style="stop-color:#3399ff;stop-opacity:1"
         offset="0"
         id="stop5863" />
      <stop
         style="stop-color:#00cc66;stop-opacity:1"
         offset="0.125"
         id="stop5869" />
      <stop
         style="stop-color:#66ffff;stop-opacity:1"
         offset="0.25"
         id="stop5871" />
      <stop
         style="stop-color:#ccffff;stop-opacity:1"
         offset="0.38"
         id="stop5873" />
      <stop
         style="stop-color:#ffffff;stop-opacity:1"
         offset="0.5"
         id="stop5877" />
      <stop
         style="stop-color:#ccffff;stop-opacity:1"
         offset="0.63"
         id="stop5879" />
      <stop
         style="stop-color:#66ffff;stop-opacity:1"
         offset="0.75"
         id="stop5881" />
      <stop
         style="stop-color:#00cc66;stop-opacity:1"
         offset="0.88"
         id="stop5897" />
      <stop
         style="stop-color:#3399ff;stop-opacity:1"
         offset="1"
         id="stop5865" />
    </linearGradient>
  </defs>
  <rect
     width="105.99999"
     height="29.987228"
     x="0"
     y="0.012784031"
     style="fill:#ef0000;fill-opacity:1;stroke:none;stroke-width:19;stroke-linecap:round;stroke-linejoin:miter;stroke-miterlimit:4;stroke-dasharray:none;stroke-dashoffset:0;stroke-opacity:1"
     id="rect3396" />
  <g
     transform="translate(0,-1022.3622)"
     style="opacity:0.25;fill:#000000;fill-opacity:1"
     id="g3506">
    <path
       d="M 0,1051.3622 L 106,1051.3622 L 106,1052.3622 L 0,1052.3622 L 0,1051.3622 z "
       style="fill:#000000;fill-opacity:1;fill-rule:evenodd;stroke:none;stroke-width:1px;stroke-linecap:butt;stroke-linejoin:miter;stroke-opacity:1"
       id="path3508" />
    <path
       d="M 0,1049.3622 L 106,1049.3622 L 106,1050.3622 L 0,1050.3622 L 0,1049.3622 z "
       style="fill:#000000;fill-opacity:1;fill-rule:evenodd;stroke:none;stroke-width:1px;stroke-linecap:butt;stroke-linejoin:miter;stroke-opacity:1"
       id="path3510" />
    <path
       d="M 0,1047.3622 L 106,1047.3622 L 106,1048.3622 L 0,1048.3622 L 0,1047.3622 z "
       style="fill:#000000;fill-opacity:1;fill-rule:evenodd;stroke:none;stroke-width:1px;stroke-linecap:butt;stroke-linejoin:miter;stroke-opacity:1"
       id="path3512" />
    <path
       d="M 0,1045.3622 L 106,1045.3622 L 106,1046.3622 L 0,1046.3622 L 0,1045.3622 z "
       style="fill:#000000;fill-opacity:1;fill-rule:evenodd;stroke:none;stroke-width:1px;stroke-linecap:butt;stroke-linejoin:miter;stroke-opacity:1"
       id="path3514" />
    <path
       d="M 0,1043.3622 L 106,1043.3622 L 106,1044.3622 L 0,1044.3622 L 0,1043.3622 z "
       style="fill:#000000;fill-opacity:1;fill-rule:evenodd;stroke:none;stroke-width:1px;stroke-linecap:butt;stroke-linejoin:miter;stroke-opacity:1"
       id="path3516" />
    <path
       d="M 0,1041.3622 L 106,1041.3622 L 106,1042.3622 L 0,1042.3622 L 0,1041.3622 z "
       style="fill:#000000;fill-opacity:1;fill-rule:evenodd;stroke:none;stroke-width:1px;stroke-linecap:butt;stroke-linejoin:miter;stroke-opacity:1"
       id="path3518" />
    <path
       d="M 0,1039.3622 L 106,1039.3622 L 106,1040.3622 L 0,1040.3622 L 0,1039.3622 z "
       style="fill:#000000;fill-opacity:1;fill-rule:evenodd;stroke:none;stroke-width:1px;stroke-linecap:butt;stroke-linejoin:miter;stroke-opacity:1"
       id="path3520" />
    <path
       d="M 0,1037.3622 L 106,1037.3622 L 106,1038.3622 L 0,1038.3622 L 0,1037.3622 z "
       style="fill:#000000;fill-opacity:1;fill-rule:evenodd;stroke:none;stroke-width:1px;stroke-linecap:butt;stroke-linejoin:miter;stroke-opacity:1"
       id="path3522" />
    <path
       d="M 0,1035.3622 L 106,1035.3622 L 106,1036.3622 L 0,1036.3622 L 0,1035.3622 z "
       style="fill:#000000;fill-opacity:1;fill-rule:evenodd;stroke:none;stroke-width:1px;stroke-linecap:butt;stroke-linejoin:miter;stroke-opacity:1"
       id="path3524" />
    <path
       d="M 0,1033.3622 L 106,1033.3622 L 106,1034.3622 L 0,1034.3622 L 0,1033.3622 z "
       style="fill:#000000;fill-opacity:1;fill-rule:evenodd;stroke:none;stroke-width:1px;stroke-linecap:butt;stroke-linejoin:miter;stroke-opacity:1"
       id="path3526" />
    <path
       d="M 0,1031.3622 L 106,1031.3622 L 106,1032.3622 L 0,1032.3622 L 0,1031.3622 z "
       style="fill:#000000;fill-opacity:1;fill-rule:evenodd;stroke:none;stroke-width:1px;stroke-linecap:butt;stroke-linejoin:miter;stroke-opacity:1"
       id="path3528" />
    <path
       d="M 0,1029.3622 L 106,1029.3622 L 106,1030.3622 L 0,1030.3622 L 0,1029.3622 z "
       style="fill:#000000;fill-opacity:1;fill-rule:evenodd;stroke:none;stroke-width:1px;stroke-linecap:butt;stroke-linejoin:miter;stroke-opacity:1"
       id="path3530" />
    <path
       d="M 0,1027.3622 L 106,1027.3622 L 106,1028.3622 L 0,1028.3622 L 0,1027.3622 z "
       style="fill:#000000;fill-opacity:1;fill-rule:evenodd;stroke:none;stroke-width:1px;stroke-linecap:butt;stroke-linejoin:miter;stroke-opacity:1"
       id="path3532" />
    <path
       d="M 0,1025.3622 L 106,1025.3622 L 106,1026.3622 L 0,1026.3622 L 0,1025.3622 z "
       style="fill:#000000;fill-opacity:1;fill-rule:evenodd;stroke:none;stroke-width:1px;stroke-linecap:butt;stroke-linejoin:miter;stroke-opacity:1"
       id="path3534" />
    <path
       d="M 0,1023.3622 L 106,1023.3622 L 106,1024.3622 L 0,1024.3622 L 0,1023.3622 z "
       style="fill:#000000;fill-opacity:1;fill-rule:evenodd;stroke:none;stroke-width:1px;stroke-linecap:butt;stroke-linejoin:miter;stroke-opacity:1"
       id="path3536" />
  </g>
  <g
     transform="matrix(0.4805977,0,0,2.8301887,143.39012,-2962.06)"
     style="fill:#a67300;fill-opacity:1"
     id="g2828" />
  <g
     transform="matrix(0.1698112,0,0,0.9999999,170.06352,-1035.1075)"
     style="fill:#a67300;fill-opacity:1"
     id="g6010" />
  <path
     d="M 33.693686,1.0083661 L 32.412386,5.0731651 L 32.399126,5.1128661 L 32.359366,5.1128661 L 28.100136,5.0731651 L 31.568496,7.5473641 L 31.599416,7.5695641 L 31.586166,7.6092641 L 30.238586,11.652076 L 33.658346,9.1158669 L 33.693686,9.0893669 L 33.729036,9.1158669 L 37.148796,11.652076 L 35.801216,7.6092641 L 35.787956,7.5695641 L 35.818886,7.5473641 L 39.287246,5.0731651 L 35.028016,5.1128661 L 34.988246,5.1128661 L 34.974996,5.0731651 L 33.693686,1.0083661 z "
     style="fill:#ffffff;fill-opacity:1;stroke:none;stroke-width:19;stroke-linecap:round;stroke-linejoin:miter;stroke-miterlimit:4;stroke-dasharray:none;stroke-dashoffset:0;stroke-opacity:1"
     id="path3428" />
  <path
     d="M 15.619001,8.7940041 L 14.337701,12.85882 L 14.324441,12.8985 L 14.284681,12.8985 L 10.025451,12.85882 L 13.493811,15.333002 L 13.524731,15.355191 L 13.511481,15.394906 L 12.163901,19.43771 L 15.583661,16.901519 L 15.619001,16.875019 L 15.654351,16.901519 L 19.074101,19.43771 L 17.726531,15.394906 L 17.713271,15.355191 L 17.744201,15.333002 L 21.212561,12.85882 L 16.953331,12.8985 L 16.913561,12.8985 L 16.900311,12.85882 L 15.619001,8.7940041 z "
     style="fill:#ffffff;fill-opacity:1;stroke:none;stroke-width:19;stroke-linecap:round;stroke-linejoin:miter;stroke-miterlimit:4;stroke-dasharray:none;stroke-dashoffset:0;stroke-opacity:1"
     id="path3430" />
  <path
     d="M 53.05414,9.022765 L 51.77283,13.087565 L 51.75958,13.12728 L 51.71982,13.12728 L 47.460594,13.087565 L 50.928944,15.561781 L 50.959874,15.583971 L 50.946614,15.62365 L 49.599044,19.666454 L 53.01879,17.130263 L 53.05414,17.103763 L 53.08949,17.130263 L 56.50924,19.666454 L 55.16166,15.62365 L 55.14841,15.583971 L 55.17934,15.561781 L 58.64769,13.087565 L 54.38846,13.12728 L 54.3487,13.12728 L 54.33544,13.087565 L 53.05414,9.022765 z "
     style="fill:#ffffff;fill-opacity:1;stroke:none;stroke-width:19;stroke-linecap:round;stroke-linejoin:miter;stroke-miterlimit:4;stroke-dasharray:none;stroke-dashoffset:0;stroke-opacity:1"
     id="path3432" />
  <path
     d="M 72.242828,0.91667681 L 70.961518,4.9814768 L 70.948268,5.0211768 L 70.908508,5.0211768 L 66.649268,4.9814768 L 70.117628,7.4556788 L 70.148558,7.4778788 L 70.135298,7.5175758 L 68.787718,11.560384 L 72.207478,9.0241786 L 72.242828,8.9976786 L 72.278168,9.0241786 L 75.697928,11.560384 L 74.350348,7.5175758 L 74.337098,7.4778788 L 74.368028,7.4556788 L 77.836388,4.9814768 L 73.577148,5.0211768 L 73.537388,5.0211768 L 73.524128,4.9814768 L 72.242828,0.91667681 z "
     style="fill:#ffffff;fill-opacity:1;stroke:none;stroke-width:19;stroke-linecap:round;stroke-linejoin:miter;stroke-miterlimit:4;stroke-dasharray:none;stroke-dashoffset:0;stroke-opacity:1"
     id="path3434" />
  <path
     d="M 72.224649,17.92621 L 70.943349,21.991027 L 70.930089,22.030706 L 70.890329,22.030706 L 66.631099,21.991027 L 70.099459,24.465208 L 70.130379,24.487397 L 70.117129,24.527112 L 68.769549,28.569916 L 72.189309,26.033725 L 72.224649,26.007225 L 72.259999,26.033725 L 75.679749,28.569916 L 74.332179,24.527112 L 74.318919,24.487397 L 74.349849,24.465208 L 77.818209,21.991027 L 73.558979,22.030706 L 73.519209,22.030706 L 73.505959,21.991027 L 72.224649,17.92621 z "
     style="fill:#ffffff;fill-opacity:1;stroke:none;stroke-width:19;stroke-linecap:round;stroke-linejoin:miter;stroke-miterlimit:4;stroke-dasharray:none;stroke-dashoffset:0;stroke-opacity:1"
     id="path3436" />
  <path
     d="M 33.80398,18.001013 L 32.52268,22.065812 L 32.50942,22.105513 L 32.46966,22.105513 L 28.21043,22.065812 L 31.67879,24.540011 L 31.70971,24.562211 L 31.69646,24.601911 L 30.34888,28.644723 L 33.76864,26.108514 L 33.80398,26.082014 L 33.83933,26.108514 L 37.25909,28.644723 L 35.91151,24.601911 L 35.89825,24.562211 L 35.92918,24.540011 L 39.39754,22.065812 L 35.13831,22.105513 L 35.09854,22.105513 L 35.08529,22.065812 L 33.80398,18.001013 z "
     style="fill:#ffffff;fill-opacity:1;stroke:none;stroke-width:19;stroke-linecap:round;stroke-linejoin:miter;stroke-miterlimit:4;stroke-dasharray:none;stroke-dashoffset:0;stroke-opacity:1"
     id="path2261" />
  <path
     d="M 90.423178,8.8820925 L 89.141878,12.946909 L 89.128618,12.986588 L 89.088858,12.986588 L 84.829628,12.946909 L 88.297988,15.42109 L 88.328908,15.443279 L 88.315658,15.482994 L 86.968078,19.525798 L 90.387838,16.989607 L 90.423178,16.963107 L 90.458528,16.989607 L 93.878278,19.525798 L 92.530708,15.482994 L 92.517448,15.443279 L 92.548378,15.42109 L 96.016738,12.946909 L 91.757508,12.986588 L 91.717738,12.986588 L 91.704488,12.946909 L 90.423178,8.8820925 z "
     style="fill:#ffffff;fill-opacity:1;stroke:none;stroke-width:19;stroke-linecap:round;stroke-linejoin:miter;stroke-miterlimit:4;stroke-dasharray:none;stroke-dashoffset:0;stroke-opacity:1"
     id="path2263" />
</svg>
