<?xml version="1.0" encoding="UTF-8" standalone="no"?>
<!-- Created with Inkscape (http://www.inkscape.org/) -->

<svg
   xmlns:dc="http://purl.org/dc/elements/1.1/"
   xmlns:cc="http://creativecommons.org/ns#"
   xmlns:rdf="http://www.w3.org/1999/02/22-rdf-syntax-ns#"
   xmlns:svg="http://www.w3.org/2000/svg"
   xmlns="http://www.w3.org/2000/svg"
   xmlns:sodipodi="http://sodipodi.sourceforge.net/DTD/sodipodi-0.dtd"
   xmlns:inkscape="http://www.inkscape.org/namespaces/inkscape"
   version="1.0"
   width="1024"
   height="279.379"
   id="svg2"
   inkscape:version="0.48.4 r9939"
   sodipodi:docname="Joint_Service_Achievement_Medal_ribbon.svg">
  <metadata
     id="metadata28">
    <rdf:RDF>
      <cc:Work
         rdf:about="">
        <dc:format>image/svg+xml</dc:format>
        <dc:type
           rdf:resource="http://purl.org/dc/dcmitype/StillImage" />
      </cc:Work>
    </rdf:RDF>
  </metadata>
  <sodipodi:namedview
     pagecolor="#ffffff"
     bordercolor="#666666"
     borderopacity="1"
     objecttolerance="10"
     gridtolerance="10"
     guidetolerance="10"
     inkscape:pageopacity="0"
     inkscape:pageshadow="2"
     inkscape:window-width="1920"
     inkscape:window-height="1096"
     id="namedview26"
     showgrid="false"
     fit-margin-top="0"
     fit-margin-left="0"
     fit-margin-right="0"
     fit-margin-bottom="0"
     inkscape:zoom="33.386396"
     inkscape:cx="10.720324"
     inkscape:cy="0.71458285"
     inkscape:window-x="-8"
     inkscape:window-y="-8"
     inkscape:window-maximized="1"
     inkscape:current-layer="svg2" />
  <defs
     id="defs4" />
  <path
     inkscape:connector-curvature="0"
     id="path2221"
     style="fill:#007a33;fill-opacity:1;fill-rule:evenodd;stroke:none"
     d="M 6.1618697e-5,8.8511832e-6 1024,8.8511832e-6 1024,279.37871 l -1023.999938381303,0 0,-279.3787011488168 z" />
  <path
     inkscape:connector-curvature="0"
     id="path2219"
     style="fill:#ba0c2f;fill-opacity:1;fill-rule:evenodd;stroke:none"
     d="m 330.31763,8.8511832e-6 368.44645,0 0,279.3787011488168 -368.44645,0 0,-279.3787011488168 z" />
  <path
     inkscape:connector-curvature="0"
     id="path3311"
     style="fill:#ffcd00;fill-opacity:1;fill-rule:evenodd;stroke:none"
     d="m 301.34864,8.8511832e-6 163.84,0 0,279.3787011488168 -163.84,0 0,-279.3787011488168 z" />
  <path
     inkscape:connector-curvature="0"
     id="path3311-9"
     style="fill:#ffcd00;fill-opacity:1;fill-rule:evenodd;stroke:none"
     d="m 558.81142,8.8511832e-6 163.83997,0 0,279.3787011488168 -163.83997,0 0,-279.3787011488168 z" />
  <path
     inkscape:connector-curvature="0"
     id="path2207-4"
     style="fill:#001489;fill-opacity:1;fill-rule:evenodd;stroke:none"
     d="m 605.6229,8.8511832e-6 70.2171,0 0,279.3787011488168 -70.2171,0 0,-279.3787011488168 z" />
  <path
     inkscape:connector-curvature="0"
     id="path2207"
     style="fill:#001489;fill-opacity:1;fill-rule:evenodd;stroke:none"
     d="m 348.16003,8.8511832e-6 70.21713,0 0,279.3787011488168 -70.21713,0 0,-279.3787011488168 z" />
  <g
     id="layer2"
     transform="matrix(9.6603771,0,0,9.6337258,-2.2e-6,-9.6337394)">
    <g
       transform="translate(0,1.0108948e-4)"
       id="g2329">
      <path
         d="m 0,29 106,0 0,1 -106,0 0,-1 z"
         style="opacity:0.25;fill:#000000;fill-opacity:1;fill-rule:evenodd;stroke:none"
         id="path3508"
         inkscape:connector-curvature="0" />
      <path
         d="m 0,27 106,0 0,1 -106,0 0,-1 z"
         style="opacity:0.25;fill:#000000;fill-opacity:1;fill-rule:evenodd;stroke:none"
         id="path3510"
         inkscape:connector-curvature="0" />
      <path
         d="m 0,25 106,0 0,1 -106,0 0,-1 z"
         style="opacity:0.25;fill:#000000;fill-opacity:1;fill-rule:evenodd;stroke:none"
         id="path3512"
         inkscape:connector-curvature="0" />
      <path
         d="m 0,23 106,0 0,1 -106,0 0,-1 z"
         style="opacity:0.25;fill:#000000;fill-opacity:1;fill-rule:evenodd;stroke:none"
         id="path3514"
         inkscape:connector-curvature="0" />
      <path
         d="m 0,21 106,0 0,1 -106,0 0,-1 z"
         style="opacity:0.25;fill:#000000;fill-opacity:1;fill-rule:evenodd;stroke:none"
         id="path3516"
         inkscape:connector-curvature="0" />
      <path
         d="m 0,19 106,0 0,1 -106,0 0,-1 z"
         style="opacity:0.25;fill:#000000;fill-opacity:1;fill-rule:evenodd;stroke:none"
         id="path3518"
         inkscape:connector-curvature="0" />
      <path
         d="m 0,17 106,0 0,1 -106,0 0,-1 z"
         style="opacity:0.25;fill:#000000;fill-opacity:1;fill-rule:evenodd;stroke:none"
         id="path3520"
         inkscape:connector-curvature="0" />
      <path
         d="m 0,15 106,0 0,1 -106,0 0,-1 z"
         style="opacity:0.25;fill:#000000;fill-opacity:1;fill-rule:evenodd;stroke:none"
         id="path3522"
         inkscape:connector-curvature="0" />
      <path
         d="m 0,13 106,0 0,1 -106,0 0,-1 z"
         style="opacity:0.25;fill:#000000;fill-opacity:1;fill-rule:evenodd;stroke:none"
         id="path3524"
         inkscape:connector-curvature="0" />
      <path
         d="m 0,11 106,0 0,1 -106,0 0,-1 z"
         style="opacity:0.25;fill:#000000;fill-opacity:1;fill-rule:evenodd;stroke:none"
         id="path3526"
         inkscape:connector-curvature="0" />
      <path
         d="m 0,9 106,0 0,1 L 0,10 0,9 z"
         style="opacity:0.25;fill:#000000;fill-opacity:1;fill-rule:evenodd;stroke:none"
         id="path3528"
         inkscape:connector-curvature="0" />
      <path
         d="M 0,7 106,7 106,8 0,8 0,7 z"
         style="opacity:0.25;fill:#000000;fill-opacity:1;fill-rule:evenodd;stroke:none"
         id="path3530"
         inkscape:connector-curvature="0" />
      <path
         d="M 0,5 106,5 106,6 0,6 0,5 z"
         style="opacity:0.25;fill:#000000;fill-opacity:1;fill-rule:evenodd;stroke:none"
         id="path3532"
         inkscape:connector-curvature="0" />
      <path
         d="M 0,3 106,3 106,4 0,4 0,3 z"
         style="opacity:0.25;fill:#000000;fill-opacity:1;fill-rule:evenodd;stroke:none"
         id="path3534"
         inkscape:connector-curvature="0" />
      <path
         d="M 0,1 106,1 106,2 0,2 0,1 z"
         style="opacity:0.25;fill:#000000;fill-opacity:1;fill-rule:evenodd;stroke:none"
         id="path3536"
         inkscape:connector-curvature="0" />
    </g>
  </g>
</svg>
