<?xml version="1.0" encoding="UTF-8" standalone="no"?>
<!-- Created with Inkscape (http://www.inkscape.org/) -->

<svg
   xmlns:dc="http://purl.org/dc/elements/1.1/"
   xmlns:cc="http://creativecommons.org/ns#"
   xmlns:rdf="http://www.w3.org/1999/02/22-rdf-syntax-ns#"
   xmlns:svg="http://www.w3.org/2000/svg"
   xmlns="http://www.w3.org/2000/svg"
   xmlns:xlink="http://www.w3.org/1999/xlink"
   xmlns:sodipodi="http://sodipodi.sourceforge.net/DTD/sodipodi-0.dtd"
   xmlns:inkscape="http://www.inkscape.org/namespaces/inkscape"
   version="1.0"
   width="1024"
   height="279.379"
   id="svg2"
   inkscape:version="0.48.4 r9939"
   sodipodi:docname="Navy_and_Marine_Corps_Overseas_Service_Ribbon,_2nd_award.svg">
  <metadata
     id="metadata29">
    <rdf:RDF>
      <cc:Work
         rdf:about="">
        <dc:format>image/svg+xml</dc:format>
        <dc:type
           rdf:resource="http://purl.org/dc/dcmitype/StillImage" />
      </cc:Work>
    </rdf:RDF>
  </metadata>
  <sodipodi:namedview
     pagecolor="#ffffff"
     bordercolor="#666666"
     borderopacity="1"
     objecttolerance="10"
     gridtolerance="10"
     guidetolerance="10"
     inkscape:pageopacity="0"
     inkscape:pageshadow="2"
     inkscape:window-width="1920"
     inkscape:window-height="1096"
     id="namedview27"
     showgrid="false"
     fit-margin-top="0"
     fit-margin-left="0"
     fit-margin-right="0"
     fit-margin-bottom="0"
     inkscape:zoom="0.938381"
     inkscape:cx="754.34042"
     inkscape:cy="-32.345755"
     inkscape:window-x="-8"
     inkscape:window-y="-8"
     inkscape:window-maximized="1"
     inkscape:current-layer="svg2" />
  <defs
     id="defs4">
    <linearGradient
       inkscape:collect="always"
       xlink:href="#gold-7-4-1-6-7-55"
       id="linearGradient3797"
       x1="439.90457"
       y1="139.6895"
       x2="584.09546"
       y2="139.6895"
       gradientUnits="userSpaceOnUse"
       gradientTransform="translate(0,-2.1972656e-6)" />
    <linearGradient
       id="gold-7-4-1-6-7-55"
       x1="9.0235682"
       y1="8.6505594"
       x2="97.265495"
       y2="96.892487"
       gradientTransform="scale(1.0251166,0.97549879)"
       gradientUnits="userSpaceOnUse">
      <stop
         style="stop-color:#1c0000;stop-opacity:1;"
         offset="0"
         id="stop6-4-2-6-1-9-6" />
      <stop
         style="stop-color:#723838;stop-opacity:1;"
         offset="0.5"
         id="stop8-0-3-8-8-5-0" />
      <stop
         style="stop-color:#170000;stop-opacity:1;"
         offset="1"
         id="stop10-9-2-5-9-4-5" />
    </linearGradient>
    <linearGradient
       y2="139.6895"
       x2="584.09546"
       y1="139.6895"
       x1="439.90457"
       gradientTransform="translate(4e-6,-3.7452871e-5)"
       gradientUnits="userSpaceOnUse"
       id="linearGradient3126"
       xlink:href="#gold-7-4-1-6-7-55"
       inkscape:collect="always" />
    <linearGradient
       y2="139.6895"
       x2="584.09546"
       y1="139.6895"
       x1="439.90457"
       gradientTransform="translate(4e-6,-3.7452871e-5)"
       gradientUnits="userSpaceOnUse"
       id="linearGradient3126-1"
       xlink:href="#gold-7-4-1-6-7-55-7"
       inkscape:collect="always" />
    <linearGradient
       id="gold-7-4-1-6-7-55-7"
       x1="9.0235682"
       y1="8.6505594"
       x2="97.265495"
       y2="96.892487"
       gradientTransform="scale(1.0251166,0.97549879)"
       gradientUnits="userSpaceOnUse">
      <stop
         style="stop-color:#1c0000;stop-opacity:1;"
         offset="0"
         id="stop6-4-2-6-1-9-6-4" />
      <stop
         style="stop-color:#723838;stop-opacity:1;"
         offset="0.5"
         id="stop8-0-3-8-8-5-0-0" />
      <stop
         style="stop-color:#170000;stop-opacity:1;"
         offset="1"
         id="stop10-9-2-5-9-4-5-9" />
    </linearGradient>
    <linearGradient
       y2="139.6895"
       x2="584.09546"
       y1="139.6895"
       x1="439.90457"
       gradientTransform="translate(1.2e-5,-3.1098633e-5)"
       gradientUnits="userSpaceOnUse"
       id="linearGradient3032"
       xlink:href="#gold-7-4-1-6-7-55-7"
       inkscape:collect="always" />
  </defs>
  <path
     inkscape:connector-curvature="0"
     id="path2273"
     style="fill:#00c1d5;fill-opacity:1;fill-rule:evenodd;stroke:none"
     d="m 0,6.5230115e-5 1024,0 L 1024,279.379 0,279.379 0,6.5230115e-5 z" />
  <path
     inkscape:connector-curvature="0"
     id="path2219"
     style="fill:#ffcd00;fill-opacity:1;fill-rule:evenodd;stroke:none"
     d="m 93.622857,6.5230115e-5 836.754283,0 0,279.378934769885 -836.754283,0 0,-279.378934769885 z" />
  <path
     inkscape:connector-curvature="0"
     id="path2243"
     style="fill:#041e42;fill-opacity:1;fill-rule:evenodd;stroke:none"
     d="m 652.43428,6.5230115e-5 231.13143,0 0,279.378934769885 -231.13143,0 0,-279.378934769885 z" />
  <path
     inkscape:connector-curvature="0"
     id="path2269"
     style="fill:#ba0c2f;fill-opacity:1;fill-rule:evenodd;stroke:none"
     d="m 418.37714,6.5230115e-5 187.24572,0 0,279.378934769885 -187.24572,0 0,-279.378934769885 z" />
  <path
     inkscape:connector-curvature="0"
     id="path2220"
     style="fill:#041e42;fill-opacity:1;fill-rule:evenodd;stroke:none"
     d="m 140.43429,6.5230115e-5 231.13142,0 0,279.378934769885 -231.13142,0 0,-279.378934769885 z" />
  <g
     id="layer2"
     transform="matrix(9.6603774,0,0,9.6337534,0,-9.6347273)">
    <g
       transform="translate(0,1.0108948e-4)"
       id="g2329">
      <path
         d="m 0,29 106,0 0,1 -106,0 0,-1 z"
         style="opacity:0.25;fill:#000000;fill-opacity:1;fill-rule:evenodd;stroke:none"
         id="path3508"
         inkscape:connector-curvature="0" />
      <path
         d="m 0,27 106,0 0,1 -106,0 0,-1 z"
         style="opacity:0.25;fill:#000000;fill-opacity:1;fill-rule:evenodd;stroke:none"
         id="path3510"
         inkscape:connector-curvature="0" />
      <path
         d="m 0,25 106,0 0,1 -106,0 0,-1 z"
         style="opacity:0.25;fill:#000000;fill-opacity:1;fill-rule:evenodd;stroke:none"
         id="path3512"
         inkscape:connector-curvature="0" />
      <path
         d="m 0,23 106,0 0,1 -106,0 0,-1 z"
         style="opacity:0.25;fill:#000000;fill-opacity:1;fill-rule:evenodd;stroke:none"
         id="path3514"
         inkscape:connector-curvature="0" />
      <path
         d="m 0,21 106,0 0,1 -106,0 0,-1 z"
         style="opacity:0.25;fill:#000000;fill-opacity:1;fill-rule:evenodd;stroke:none"
         id="path3516"
         inkscape:connector-curvature="0" />
      <path
         d="m 0,19 106,0 0,1 -106,0 0,-1 z"
         style="opacity:0.25;fill:#000000;fill-opacity:1;fill-rule:evenodd;stroke:none"
         id="path3518"
         inkscape:connector-curvature="0" />
      <path
         d="m 0,17 106,0 0,1 -106,0 0,-1 z"
         style="opacity:0.25;fill:#000000;fill-opacity:1;fill-rule:evenodd;stroke:none"
         id="path3520"
         inkscape:connector-curvature="0" />
      <path
         d="m 0,15 106,0 0,1 -106,0 0,-1 z"
         style="opacity:0.25;fill:#000000;fill-opacity:1;fill-rule:evenodd;stroke:none"
         id="path3522"
         inkscape:connector-curvature="0" />
      <path
         d="m 0,13 106,0 0,1 -106,0 0,-1 z"
         style="opacity:0.25;fill:#000000;fill-opacity:1;fill-rule:evenodd;stroke:none"
         id="path3524"
         inkscape:connector-curvature="0" />
      <path
         d="m 0,11 106,0 0,1 -106,0 0,-1 z"
         style="opacity:0.25;fill:#000000;fill-opacity:1;fill-rule:evenodd;stroke:none"
         id="path3526"
         inkscape:connector-curvature="0" />
      <path
         d="m 0,9 106,0 0,1 L 0,10 0,9 z"
         style="opacity:0.25;fill:#000000;fill-opacity:1;fill-rule:evenodd;stroke:none"
         id="path3528"
         inkscape:connector-curvature="0" />
      <path
         d="M 0,7 106,7 106,8 0,8 0,7 z"
         style="opacity:0.25;fill:#000000;fill-opacity:1;fill-rule:evenodd;stroke:none"
         id="path3530"
         inkscape:connector-curvature="0" />
      <path
         d="M 0,5 106,5 106,6 0,6 0,5 z"
         style="opacity:0.25;fill:#000000;fill-opacity:1;fill-rule:evenodd;stroke:none"
         id="path3532"
         inkscape:connector-curvature="0" />
      <path
         d="M 0,3 106,3 106,4 0,4 0,3 z"
         style="opacity:0.25;fill:#000000;fill-opacity:1;fill-rule:evenodd;stroke:none"
         id="path3534"
         inkscape:connector-curvature="0" />
      <path
         d="M 0,1 106,1 106,2 0,2 0,1 z"
         style="opacity:0.25;fill:#000000;fill-opacity:1;fill-rule:evenodd;stroke:none"
         id="path3536"
         inkscape:connector-curvature="0" />
    </g>
  </g>
</svg>
