<?xml version="1.0" encoding="UTF-8" standalone="no"?>
<svg
   xmlns:dc="http://purl.org/dc/elements/1.1/"
   xmlns:cc="http://creativecommons.org/ns#"
   xmlns:rdf="http://www.w3.org/1999/02/22-rdf-syntax-ns#"
   xmlns:svg="http://www.w3.org/2000/svg"
   xmlns="http://www.w3.org/2000/svg"
   xmlns:sodipodi="http://sodipodi.sourceforge.net/DTD/sodipodi-0.dtd"
   xmlns:inkscape="http://www.inkscape.org/namespaces/inkscape"
   version="1.0"
   width="1024"
   height="279.37912"
   id="svg2"
   inkscape:version="0.48.4 r9939"
   sodipodi:docname="Order of Michael the Brave ribbon.svg">
  <metadata
     id="metadata20">
    <rdf:RDF>
      <cc:Work
         rdf:about="">
        <dc:format>image/svg+xml</dc:format>
        <dc:type
           rdf:resource="http://purl.org/dc/dcmitype/StillImage" />
        <dc:title />
      </cc:Work>
    </rdf:RDF>
  </metadata>
  <defs
     id="defs18" />
  <sodipodi:namedview
     pagecolor="#ffffff"
     bordercolor="#666666"
     borderopacity="1"
     objecttolerance="10"
     gridtolerance="10"
     guidetolerance="10"
     inkscape:pageopacity="0"
     inkscape:pageshadow="2"
     inkscape:window-width="1920"
     inkscape:window-height="1096"
     id="namedview16"
     showgrid="false"
     fit-margin-top="0"
     fit-margin-left="0"
     fit-margin-right="0"
     fit-margin-bottom="0"
     inkscape:zoom="0.61407004"
     inkscape:cx="968.05403"
     inkscape:cy="414.91001"
     inkscape:window-x="-8"
     inkscape:window-y="-8"
     inkscape:window-maximized="1"
     inkscape:current-layer="svg2"
     showguides="true"
     inkscape:guide-bbox="true" />
  <path
     style="fill:#ffc22e;fill-opacity:1"
     inkscape:connector-curvature="0"
     id="path12-1"
     d="M 0,5.9886523e-5 V 279.37906 H 1024 V 5.9886523e-5 z" />
  <path
     style="fill:#324e8d;fill-opacity:1"
     inkscape:connector-curvature="0"
     id="path12-7-7"
     d="M 49.5,5.9880981e-5 V 279.37906 h 925 V 5.9880981e-5 z" />
  <g
     id="layer3"
     transform="matrix(9.6603774,0,0,9.6337587,0,-9.63462)">
    <path
       d="m 0,29.000101 106,0 0,1 -106,0 0,-1 z"
       style="opacity:0.25;fill:#000000;fill-opacity:1;fill-rule:evenodd;stroke:none"
       id="path3508"
       inkscape:connector-curvature="0" />
    <path
       d="m 0,27.000101 106,0 0,1 -106,0 0,-1 z"
       style="opacity:0.25;fill:#000000;fill-opacity:1;fill-rule:evenodd;stroke:none"
       id="path3510"
       inkscape:connector-curvature="0" />
    <path
       d="m 0,25.000101 106,0 0,1 -106,0 0,-1 z"
       style="opacity:0.25;fill:#000000;fill-opacity:1;fill-rule:evenodd;stroke:none"
       id="path3512"
       inkscape:connector-curvature="0" />
    <path
       d="m 0,23.000101 106,0 0,1 -106,0 0,-1 z"
       style="opacity:0.25;fill:#000000;fill-opacity:1;fill-rule:evenodd;stroke:none"
       id="path3514"
       inkscape:connector-curvature="0" />
    <path
       d="m 0,21.000101 106,0 0,1 -106,0 0,-1 z"
       style="opacity:0.25;fill:#000000;fill-opacity:1;fill-rule:evenodd;stroke:none"
       id="path3516"
       inkscape:connector-curvature="0" />
    <path
       d="m 0,19.000101 106,0 0,1 -106,0 0,-1 z"
       style="opacity:0.25;fill:#000000;fill-opacity:1;fill-rule:evenodd;stroke:none"
       id="path3518"
       inkscape:connector-curvature="0" />
    <path
       d="m 0,17.000101 106,0 0,1 -106,0 0,-1 z"
       style="opacity:0.25;fill:#000000;fill-opacity:1;fill-rule:evenodd;stroke:none"
       id="path3520"
       inkscape:connector-curvature="0" />
    <path
       d="m 0,15.000101 106,0 0,1 -106,0 0,-1 z"
       style="opacity:0.25;fill:#000000;fill-opacity:1;fill-rule:evenodd;stroke:none"
       id="path3522"
       inkscape:connector-curvature="0" />
    <path
       d="m 0,13.000101 106,0 0,1 -106,0 0,-1 z"
       style="opacity:0.25;fill:#000000;fill-opacity:1;fill-rule:evenodd;stroke:none"
       id="path3524"
       inkscape:connector-curvature="0" />
    <path
       d="m 0,11.000101 106,0 0,1 -106,0 0,-1 z"
       style="opacity:0.25;fill:#000000;fill-opacity:1;fill-rule:evenodd;stroke:none"
       id="path3526"
       inkscape:connector-curvature="0" />
    <path
       d="m 0,9.0001011 106,0 0,0.9999999 -106,0 0,-0.9999999 z"
       style="opacity:0.25;fill:#000000;fill-opacity:1;fill-rule:evenodd;stroke:none"
       id="path3528"
       inkscape:connector-curvature="0" />
    <path
       d="m 0,7.0001011 106,0 0,1 -106,0 0,-1 z"
       style="opacity:0.25;fill:#000000;fill-opacity:1;fill-rule:evenodd;stroke:none"
       id="path3530"
       inkscape:connector-curvature="0" />
    <path
       d="m 0,5.0001011 106,0 0,1 -106,0 0,-1 z"
       style="opacity:0.25;fill:#000000;fill-opacity:1;fill-rule:evenodd;stroke:none"
       id="path3532"
       inkscape:connector-curvature="0" />
    <path
       d="m 0,3.0001011 106,0 0,1 -106,0 0,-1 z"
       style="opacity:0.25;fill:#000000;fill-opacity:1;fill-rule:evenodd;stroke:none"
       id="path3534"
       inkscape:connector-curvature="0" />
    <path
       d="m 0,1.0001011 106,0 0,1 -106,0 0,-1 z"
       style="opacity:0.25;fill:#000000;fill-opacity:1;fill-rule:evenodd;stroke:none"
       id="path3536"
       inkscape:connector-curvature="0" />
  </g>
</svg>
