<?xml version="1.0" encoding="UTF-8" standalone="no"?>
<svg
   xmlns:dc="http://purl.org/dc/elements/1.1/"
   xmlns:cc="http://creativecommons.org/ns#"
   xmlns:rdf="http://www.w3.org/1999/02/22-rdf-syntax-ns#"
   xmlns:svg="http://www.w3.org/2000/svg"
   xmlns="http://www.w3.org/2000/svg"
   xmlns:sodipodi="http://sodipodi.sourceforge.net/DTD/sodipodi-0.dtd"
   xmlns:inkscape="http://www.inkscape.org/namespaces/inkscape"
   version="1.0"
   width="1024"
   height="279.379"
   viewBox="0 0 1024 279.379"
   id="svg2"
   inkscape:version="0.48.4 r9939"
   sodipodi:docname="Silver_Star_ribbon.svg">
  <metadata
     id="metadata16">
    <rdf:RDF>
      <cc:Work
         rdf:about="">
        <dc:format>image/svg+xml</dc:format>
        <dc:type
           rdf:resource="http://purl.org/dc/dcmitype/StillImage" />
      </cc:Work>
    </rdf:RDF>
  </metadata>
  <defs
     id="defs14" />
  <sodipodi:namedview
     pagecolor="#ffffff"
     bordercolor="#666666"
     borderopacity="1"
     objecttolerance="10"
     gridtolerance="10"
     guidetolerance="10"
     inkscape:pageopacity="0"
     inkscape:pageshadow="2"
     inkscape:window-width="1920"
     inkscape:window-height="1096"
     id="namedview12"
     showgrid="false"
     fit-margin-top="0"
     fit-margin-left="0"
     fit-margin-right="0"
     fit-margin-bottom="0"
     inkscape:zoom="0.64486706"
     inkscape:cx="-235.74941"
     inkscape:cy="-150.81997"
     inkscape:window-x="-8"
     inkscape:window-y="-8"
     inkscape:window-maximized="1"
     inkscape:current-layer="svg2" />
  <path
     d="M 0,-8.7227207e-5 H 1024 V 279.379 H 0 z"
     id="path4"
     inkscape:connector-curvature="0"
     style="fill:#001489;fill-opacity:1" />
  <path
     d="M 426.15557,-8.7227207e-5 H 597.84419 V 279.379 H 426.15557 z"
     id="path8"
     inkscape:connector-curvature="0"
     style="fill:#ba0c2f;fill-opacity:1" />
  <path
     d="M 45.987902,-8.7227207e-5 H 82.778321 V 279.379 H 45.987902 z"
     id="path8-1"
     inkscape:connector-curvature="0"
     style="fill:#ffffff;fill-opacity:1" />
  <path
     d="M 254.46695,-8.7227207e-5 H 426.15557 V 279.379 H 254.46695 z"
     id="path8-1-7"
     inkscape:connector-curvature="0"
     style="fill:#ffffff;fill-opacity:1" />
  <path
     d="M 597.84419,-8.7227207e-5 H 769.53282 V 279.379 H 597.84419 z"
     id="path8-1-7-4"
     inkscape:connector-curvature="0"
     style="fill:#ffffff;fill-opacity:1" />
  <path
     d="m 941.22144,-8.7227207e-5 h 36.79042 V 279.379 h -36.79042 z"
     id="path8-1-0"
     inkscape:connector-curvature="0"
     style="fill:#ffffff;fill-opacity:1" />
  <path
     style="font-size:medium;font-style:normal;font-variant:normal;font-weight:normal;font-stretch:normal;text-indent:0;text-align:start;text-decoration:none;line-height:normal;letter-spacing:normal;word-spacing:normal;text-transform:none;direction:ltr;block-progression:tb;writing-mode:lr-tb;text-anchor:start;baseline-shift:baseline;opacity:0.25;color:#000000;fill:#000000;fill-opacity:1;stroke:none;stroke-width:106;marker:none;visibility:visible;display:inline;overflow:visible;enable-background:accumulate;font-family:Sans;-inkscape-font-specification:Sans"
     d="m 0,9.6337907 1024,0 0,-9.633877927207 -1024,0 z m 0,19.2674493 1024,0 0,-9.633571 -1024,0 z m 0,19.267449 1024,0 0,-9.633571 -1024,0 z m 0,19.267756 1024,0 0,-9.633878 -1024,0 z m 0,19.267449 1024,0 0,-9.633878 -1024,0 z m 0,19.267446 1024,0 0,-9.633874 -1024,0 z m 0,19.26745 1024,0 0,-9.63357 -1024,0 z m 0,19.26745 1024,0 0,-9.63357 -1024,0 z m 0,19.26776 1024,0 0,-9.63388 -1024,0 z m 0,19.26745 1024,0 0,-9.63388 -1024,0 z m 0,19.26745 1024,0 0,-9.63388 -1024,0 z m 0,19.26745 1024,0 0,-9.63358 -1024,0 z m 0,19.26775 1024,0 0,-9.63388 -1024,0 z m 0,19.26745 1024,0 0,-9.63388 -1024,0 z m 0,19.26745 1024,0 0,-9.63388 -1024,0 z"
     id="path10"
     inkscape:connector-curvature="0" />
</svg>
