<?xml version="1.0" encoding="UTF-8" standalone="no"?>
<svg
   xmlns:dc="http://purl.org/dc/elements/1.1/"
   xmlns:cc="http://creativecommons.org/ns#"
   xmlns:rdf="http://www.w3.org/1999/02/22-rdf-syntax-ns#"
   xmlns:svg="http://www.w3.org/2000/svg"
   xmlns="http://www.w3.org/2000/svg"
   xmlns:sodipodi="http://sodipodi.sourceforge.net/DTD/sodipodi-0.dtd"
   xmlns:inkscape="http://www.inkscape.org/namespaces/inkscape"
   version="1.0"
   width="1024"
   height="279.379"
   id="svg2"
   inkscape:version="0.48.4 r9939"
   sodipodi:docname="United_States_Navy_Presidential_Unit_Citation_ribbon.svg">
  <metadata
     id="metadata16">
    <rdf:RDF>
      <cc:Work
         rdf:about="">
        <dc:format>image/svg+xml</dc:format>
        <dc:type
           rdf:resource="http://purl.org/dc/dcmitype/StillImage" />
      </cc:Work>
    </rdf:RDF>
  </metadata>
  <defs
     id="defs14" />
  <sodipodi:namedview
     pagecolor="#ffffff"
     bordercolor="#666666"
     borderopacity="1"
     objecttolerance="10"
     gridtolerance="10"
     guidetolerance="10"
     inkscape:pageopacity="0"
     inkscape:pageshadow="2"
     inkscape:window-width="1920"
     inkscape:window-height="1096"
     id="namedview12"
     showgrid="false"
     fit-margin-top="0"
     fit-margin-left="0"
     fit-margin-right="0"
     fit-margin-bottom="0"
     inkscape:zoom="0.70250955"
     inkscape:cx="890.85933"
     inkscape:cy="-103.42283"
     inkscape:window-x="-8"
     inkscape:window-y="-8"
     inkscape:window-maximized="1"
     inkscape:current-layer="svg2" />
  <path
     d="m 1024,39.16805 -1024,0 0,200 1024,0 z"
     id="path6-1"
     inkscape:connector-curvature="0"
     style="fill:#e2b41e;fill-opacity:1" />
  <path
     d="m 1024,211.16805 -1024,0 0,68.21095 1024,0 z"
     id="path8-4"
     inkscape:connector-curvature="0"
     style="fill:#d50032;fill-opacity:1" />
  <path
     d="M 1024,0 0,0 l 0,68.21095 1024,0 z"
     id="path4-0"
     inkscape:connector-curvature="0"
     style="fill:#00205b;fill-opacity:1" />
  <path
     inkscape:connector-curvature="0"
     id="path3536-1-5-9"
     style="opacity:0.25;fill:#000000;fill-opacity:1;fill-rule:evenodd;stroke:none"
     d="m 858.20946,279.379 0,-279.3790021972656 9.75232,0 0,279.3790021972656 -9.75232,0 z m -19.50473,0 0,-279.3790021972656 9.75232,0 0,279.3790021972656 -9.75232,0 z m -19.50483,0 0,-279.3790021972656 9.75242,0 0,279.3790021972656 -9.75242,0 z m -19.50473,0 0,-279.3790021972656 9.75242,0 0,279.3790021972656 -9.75242,0 z m -19.50473,0 0,-279.3790021972656 9.75242,0 0,279.3790021972656 -9.75242,0 z m -19.50473,0 0,-279.3790021972656 9.75231,0 0,279.3790021972656 -9.75231,0 z m -19.50473,0 0,-279.3790021972656 9.75231,0 0,279.3790021972656 -9.75231,0 z m -19.50483,0 0,-279.3790021972656 9.75241,0 0,279.3790021972656 -9.75241,0 z m -19.50474,0 0,-279.3790021972656 9.75242,0 0,279.3790021972656 -9.75242,0 z m -19.50473,0 0,-279.3790021972656 9.75242,0 0,279.3790021972656 -9.75242,0 z m -19.50473,0 0,-279.3790021972656 9.75242,0 0,279.3790021972656 -9.75242,0 z m -19.50473,0 0,-279.3790021972656 9.75232,0 0,279.3790021972656 -9.75232,0 z m -19.50473,0 0,-279.3790021972656 9.75232,0 0,279.3790021972656 -9.75232,0 z m -19.50483,0 0,-279.3790021972656 9.75242,0 0,279.3790021972656 -9.75242,0 z m -19.50473,0 0,-279.3790021972656 9.75241,0 0,279.3790021972656 -9.75241,0 z m 429.10467,0 0,-279.3790021972656 9.7524,0 L 1024,279.379 l -9.7524,0 z m -19.50473,0 0,-279.3790021972656 9.75243,0 0,279.3790021972656 -9.75243,0 z m -19.50472,0 0,-279.3790021972656 9.75242,0 0,279.3790021972656 -9.75242,0 z m -19.5048,0 0,-279.3790021972656 9.7524,0 0,279.3790021972656 -9.7524,0 z m -19.5046,0 0,-279.3790021972656 9.7523,0 0,279.3790021972656 -9.7523,0 z m -19.50478,0 0,-279.3790021972656 9.75232,0 0,279.3790021972656 -9.75232,0 z m -19.50483,0 0,-279.3790021972656 9.75241,0 0,279.3790021972656 -9.75241,0 z m -19.50473,0 0,-279.3790021972656 9.75241,0 0,279.3790021972656 -9.75241,0 z m -585.14295,0 0,-279.3790021972656 9.75237,0 0,279.3790021972656 -9.75237,0 z m 19.50475,0 0,-279.3790021972656 9.75238,0 0,279.3790021972656 -9.75238,0 z m 19.50475,0 0,-279.3790021972656 9.75238,0 0,279.3790021972656 -9.75238,0 z m 19.50474,0 0,-279.3790021972656 9.75238,0 0,279.3790021972656 -9.75238,0 z m 19.50475,0 0,-279.3790021972656 9.75238,0 0,279.3790021972656 -9.75238,0 z m 19.50475,0 0,-279.3790021972656 9.75238,0 0,279.3790021972656 -9.75238,0 z m 19.50476,0 0,-279.3790021972656 9.75236,0 0,279.3790021972656 -9.75236,0 z m 19.50474,0 0,-279.3790021972656 9.75237,0 0,279.3790021972656 -9.75237,0 z m 19.50475,0 0,-279.3790021972656 9.75237,0 0,279.3790021972656 -9.75237,0 z m 19.50475,0 0,-279.3790021972656 9.75237,0 0,279.3790021972656 -9.75237,0 z m 19.50475,0 0,-279.3790021972656 9.75237,0 0,279.3790021972656 -9.75237,0 z m 19.50474,0 0,-279.3790021972656 9.75238,0 0,279.3790021972656 -9.75238,0 z m 19.50475,0 0,-279.3790021972656 9.75238,0 0,279.3790021972656 -9.75238,0 z m 19.50475,0 0,-279.3790021972656 9.75238,0 0,279.3790021972656 -9.75238,0 z m 19.50475,0 0,-279.3790021972656 9.75237,0 0,279.3790021972656 -9.75237,0 z M 0,279.379 0,-2.1972656e-6 l 9.75237,0 L 9.75237,279.379 0,279.379 z m 19.50474,0 0,-279.3790021972656 9.75238,0 0,279.3790021972656 -9.75238,0 z m 19.50476,0 0,-279.3790021972656 9.75237,0 0,279.3790021972656 -9.75237,0 z m 19.50474,0 0,-279.3790021972656 9.75238,0 0,279.3790021972656 -9.75238,0 z m 19.50475,0 0,-279.3790021972656 9.752382,0 0,279.3790021972656 -9.752382,0 z m 19.504762,0 0,-279.3790021972656 9.752358,0 0,279.3790021972656 -9.752358,0 z m 19.504728,0 0,-279.3790021972656 9.75238,0 0,279.3790021972656 -9.75238,0 z m 19.50476,0 0,-279.3790021972656 9.75237,0 0,279.3790021972656 -9.75237,0 z m 19.50475,0 0,-279.3790021972656 9.75237,0 0,279.3790021972656 -9.75237,0 z m 19.50475,0 0,-279.3790021972656 9.75237,0 0,279.3790021972656 -9.75237,0 z m 19.50473,0 0,-279.3790021972656 9.75238,0 0,279.3790021972656 -9.75238,0 z m 19.50475,0 0,-279.3790021972656 9.75238,0 0,279.3790021972656 -9.75238,0 z m 19.50475,0 0,-279.3790021972656 9.75238,0 0,279.3790021972656 -9.75238,0 z m 19.50475,0 0,-279.3790021972656 9.75237,0 0,279.3790021972656 -9.75237,0 z m 19.50475,0 0,-279.3790021972656 9.75237,0 0,279.3790021972656 -9.75237,0 z" />
</svg>
