<?xml version="1.0" encoding="UTF-8" standalone="no"?>
<!-- Generator: Adobe Illustrator 12.0.1, SVG Export Plug-In . SVG Version: 6.00 Build 51448)  -->
<svg
   xmlns:dc="http://purl.org/dc/elements/1.1/"
   xmlns:cc="http://creativecommons.org/ns#"
   xmlns:rdf="http://www.w3.org/1999/02/22-rdf-syntax-ns#"
   xmlns:svg="http://www.w3.org/2000/svg"
   xmlns="http://www.w3.org/2000/svg"
   xmlns:xlink="http://www.w3.org/1999/xlink"
   xmlns:sodipodi="http://sodipodi.sourceforge.net/DTD/sodipodi-0.dtd"
   xmlns:inkscape="http://www.inkscape.org/namespaces/inkscape"
   version="1.1"
   width="113.963"
   height="32.761"
   viewBox="0 0 113.963 32.761"
   overflow="visible"
   enable-background="new 0 0 113.963 32.761"
   xml:space="preserve"
   id="svg16344"
   sodipodi:version="0.32"
   inkscape:version="0.46"
   sodipodi:docname="Vietnam_civil_actions_ribbon_3d.svg"
   inkscape:output_extension="org.inkscape.output.svg.inkscape"><sodipodi:namedview
   inkscape:window-height="874"
   inkscape:window-width="1399"
   inkscape:pageshadow="2"
   inkscape:pageopacity="0.0"
   guidetolerance="10.0"
   gridtolerance="10.0"
   objecttolerance="10.0"
   borderopacity="1.0"
   bordercolor="#666666"
   pagecolor="#ffffff"
   id="base"
   showgrid="false"
   showguides="true"
   inkscape:guide-bbox="true"
   inkscape:zoom="5.6568542"
   inkscape:cx="65.602188"
   inkscape:cy="-10.894947"
   inkscape:window-x="37"
   inkscape:window-y="-4"
   inkscape:current-layer="svg16344" /><metadata
   id="metadata19857"><rdf:RDF><cc:Work
       rdf:about=""><dc:format>image/svg+xml</dc:format><dc:type
         rdf:resource="http://purl.org/dc/dcmitype/StillImage" /></cc:Work></rdf:RDF></metadata><defs
   id="defs19855"><linearGradient
   id="linearGradient20762"
   inkscape:collect="always"><stop
     id="stop20764"
     offset="0"
     style="stop-color:#3465a4;stop-opacity:1;" /><stop
     id="stop20766"
     offset="1"
     style="stop-color:#3465a4;stop-opacity:0;" /></linearGradient><radialGradient
   r="1.2589976"
   fy="16.839127"
   fx="60.453125"
   cy="16.839127"
   cx="60.453125"
   gradientTransform="matrix(3.9310726,1.9783638e-6,-2.5597324e-6,4.0903805,-177.19246,-52.039428)"
   gradientUnits="userSpaceOnUse"
   id="radialGradient12797"
   xlink:href="#XMLID_218_"
   inkscape:collect="always" /><radialGradient
   r="1.2589976"
   fy="16.839127"
   fx="60.453125"
   cy="16.839127"
   cx="60.453125"
   gradientTransform="matrix(3.9310726,1.9783638e-6,-2.5597324e-6,4.0903805,-177.19246,-52.039428)"
   gradientUnits="userSpaceOnUse"
   id="radialGradient12793"
   xlink:href="#XMLID_218_"
   inkscape:collect="always" /><radialGradient
   r="1.2589976"
   fy="16.839127"
   fx="60.453125"
   cy="16.839127"
   cx="60.453125"
   gradientTransform="matrix(3.9310726,1.9783638e-6,-2.5597324e-6,4.0903805,-177.19246,-52.039428)"
   gradientUnits="userSpaceOnUse"
   id="radialGradient12775"
   xlink:href="#XMLID_218_"
   inkscape:collect="always" /><radialGradient
   r="1.2589976"
   fy="16.839127"
   fx="60.453125"
   cy="16.839127"
   cx="60.453125"
   gradientTransform="matrix(3.9310726,1.9783638e-6,-2.5597324e-6,4.0903805,-177.19246,-52.039428)"
   gradientUnits="userSpaceOnUse"
   id="radialGradient12771"
   xlink:href="#XMLID_218_"
   inkscape:collect="always" /><radialGradient
   r="1.2589976"
   fy="16.839127"
   fx="60.453125"
   cy="16.839127"
   cx="60.453125"
   gradientTransform="matrix(3.9310726,1.9783638e-6,-2.5597324e-6,4.0903805,-177.19246,-52.039428)"
   gradientUnits="userSpaceOnUse"
   id="radialGradient12769"
   xlink:href="#XMLID_218_"
   inkscape:collect="always" /><radialGradient
   r="1.2589976"
   fy="16.839127"
   fx="60.453125"
   cy="16.839127"
   cx="60.453125"
   gradientTransform="matrix(3.9310726,1.9783638e-6,-2.5597324e-6,4.0903805,-177.19246,-52.039428)"
   gradientUnits="userSpaceOnUse"
   id="radialGradient12757"
   xlink:href="#XMLID_218_"
   inkscape:collect="always" /><radialGradient
   r="1.2589976"
   fy="16.839127"
   fx="60.453125"
   cy="16.839127"
   cx="60.453125"
   gradientTransform="matrix(3.9310726,1.9783638e-6,-2.5597324e-6,4.0903805,-177.19246,-52.039428)"
   gradientUnits="userSpaceOnUse"
   id="radialGradient12753"
   xlink:href="#XMLID_218_"
   inkscape:collect="always" /><radialGradient
   r="1.2589976"
   fy="16.839127"
   fx="60.453125"
   cy="16.839127"
   cx="60.453125"
   gradientTransform="matrix(3.9310726,1.9783638e-6,-2.5597324e-6,4.0903805,-177.19246,-52.039428)"
   gradientUnits="userSpaceOnUse"
   id="radialGradient12749"
   xlink:href="#XMLID_218_"
   inkscape:collect="always" /><radialGradient
   r="1.2589976"
   fy="16.839127"
   fx="60.453125"
   cy="16.839127"
   cx="60.453125"
   gradientTransform="matrix(3.9310726,1.9783638e-6,-2.5597324e-6,4.0903805,-177.19246,-52.039428)"
   gradientUnits="userSpaceOnUse"
   id="radialGradient12745"
   xlink:href="#XMLID_218_"
   inkscape:collect="always" /><radialGradient
   r="1.2589976"
   fy="16.839127"
   fx="60.453125"
   cy="16.839127"
   cx="60.453125"
   gradientTransform="matrix(3.9310726,1.9783638e-6,-2.5597324e-6,4.0903805,-177.19246,-52.039428)"
   gradientUnits="userSpaceOnUse"
   id="radialGradient12741"
   xlink:href="#XMLID_218_"
   inkscape:collect="always" /><radialGradient
   r="1.2589976"
   fy="16.839127"
   fx="60.453125"
   cy="16.839127"
   cx="60.453125"
   gradientTransform="matrix(3.9310726,1.9783638e-6,-2.5597324e-6,4.0903805,-177.19246,-52.039428)"
   gradientUnits="userSpaceOnUse"
   id="radialGradient12737"
   xlink:href="#XMLID_218_"
   inkscape:collect="always" /><radialGradient
   r="1.2589976"
   fy="16.839127"
   fx="60.453125"
   cy="16.839127"
   cx="60.453125"
   gradientTransform="matrix(3.9310726,1.9783638e-6,-2.5597324e-6,4.0903805,-177.19246,-52.039428)"
   gradientUnits="userSpaceOnUse"
   id="radialGradient12733"
   xlink:href="#XMLID_218_"
   inkscape:collect="always" /><linearGradient
   gradientTransform="matrix(-1,0,0,1,-104.123,0)"
   y2="4.9770002"
   x2="-160.5688"
   y1="2.2734001"
   x1="-160.5688"
   gradientUnits="userSpaceOnUse"
   id="XMLID_218_">
				<stop
   id="stop9977"
   style="stop-color:#BFA72C"
   offset="0" />
				<stop
   id="stop9979"
   style="stop-color:#FFF1CC"
   offset="0.2416" />
				<stop
   id="stop9981"
   style="stop-color:#FEEFC9"
   offset="0.3814" />
				<stop
   id="stop9983"
   style="stop-color:#FAEAC0"
   offset="0.4776" />
				<stop
   id="stop9985"
   style="stop-color:#F4E0B1"
   offset="0.5607" />
				<stop
   id="stop9987"
   style="stop-color:#EBD39B"
   offset="0.7069" />
				<stop
   id="stop9989"
   style="stop-color:#E0C17F"
   offset="0.7069" />
				<stop
   id="stop9991"
   style="stop-color:#D2AC5D"
   offset="0.7738" />
				<stop
   id="stop9993"
   style="stop-color:#C29334"
   offset="0.8366" />
				<stop
   id="stop9995"
   style="stop-color:#BF8E2C"
   offset="0.8483" />
				<stop
   id="stop9997"
   style="stop-color:#5A3D1C"
   offset="1" />
			</linearGradient><radialGradient
   gradientUnits="userSpaceOnUse"
   gradientTransform="matrix(3.9310726,1.9783638e-6,-2.5597324e-6,4.0903805,-177.19246,-52.039428)"
   r="1.2589976"
   fy="16.839127"
   fx="60.453125"
   cy="16.839127"
   cx="60.453125"
   id="radialGradient12729"
   xlink:href="#XMLID_218_"
   inkscape:collect="always" /><linearGradient
   gradientTransform="matrix(-1,0,0,1,-104.123,0)"
   y2="4.9763999"
   x2="-138.4565"
   y1="2.2739"
   x1="-138.4565"
   gradientUnits="userSpaceOnUse"
   id="XMLID_219_">
				<stop
   id="stop10002"
   style="stop-color:#BFA72C"
   offset="0" />
				<stop
   id="stop10004"
   style="stop-color:#FFF1CC"
   offset="0.2416" />
				<stop
   id="stop10006"
   style="stop-color:#FEEFC9"
   offset="0.3814" />
				<stop
   id="stop10008"
   style="stop-color:#FAEAC0"
   offset="0.4776" />
				<stop
   id="stop10010"
   style="stop-color:#F4E0B1"
   offset="0.5607" />
				<stop
   id="stop10012"
   style="stop-color:#EBD39B"
   offset="0.6363" />
				<stop
   id="stop10014"
   style="stop-color:#E0C17F"
   offset="0.7069" />
				<stop
   id="stop10016"
   style="stop-color:#D2AC5D"
   offset="0.7738" />
				<stop
   id="stop10018"
   style="stop-color:#C29334"
   offset="0.8366" />
				<stop
   id="stop10020"
   style="stop-color:#BF8E2C"
   offset="0.8483" />
				<stop
   id="stop10022"
   style="stop-color:#5A3D1C"
   offset="1" />
			</linearGradient><linearGradient
   id="linearGradient12631"
   inkscape:collect="always"><stop
     id="stop12633"
     offset="0"
     style="stop-color:#000000;stop-opacity:1;" /><stop
     id="stop12635"
     offset="1"
     style="stop-color:#000000;stop-opacity:0;" /></linearGradient><linearGradient
   gradientUnits="userSpaceOnUse"
   y2="2.844571"
   x2="115.04317"
   y1="2.844571"
   x1="-0.1671767"
   id="linearGradient12637"
   xlink:href="#linearGradient12631"
   inkscape:collect="always" /><linearGradient
   gradientTransform="matrix(-1,0,0,1,-137.96325,-4.8984308)"
   y2="4.9766002"
   x2="-145.00439"
   y1="2.2739"
   x1="-145.00439"
   gradientUnits="userSpaceOnUse"
   id="XMLID_215_">
				<stop
   id="stop9902"
   style="stop-color:#BFA72C"
   offset="0" />
				<stop
   id="stop9904"
   style="stop-color:#FFF1CC"
   offset="0.2416" />
				<stop
   id="stop9906"
   style="stop-color:#FEEFC9"
   offset="0.3814" />
				<stop
   id="stop9908"
   style="stop-color:#FAEAC0"
   offset="0.4776" />
				<stop
   id="stop9910"
   style="stop-color:#F4E0B1"
   offset="0.5607" />
				<stop
   id="stop9912"
   style="stop-color:#EBD39B"
   offset="0.6363" />
				<stop
   id="stop9914"
   style="stop-color:#E0C17F"
   offset="0.7069" />
				<stop
   id="stop9916"
   style="stop-color:#D2AC5D"
   offset="0.7738" />
				<stop
   id="stop9918"
   style="stop-color:#C29334"
   offset="0.8366" />
				<stop
   id="stop9920"
   style="stop-color:#BF8E2C"
   offset="0.8483" />
				<stop
   id="stop9922"
   style="stop-color:#5A3D1C"
   offset="1" />
			</linearGradient><linearGradient
   id="XMLID_214_"
   gradientUnits="userSpaceOnUse"
   x1="-142.0327"
   y1="1.3198"
   x2="-142.0327"
   y2="4.1392002"
   gradientTransform="matrix(-1,0,0,1,-124.123,-2)">
				<stop
   offset="0"
   style="stop-color:#BFA72C"
   id="stop9865" />
				<stop
   offset="0.2416"
   style="stop-color:#FFF1CC"
   id="stop9867" />
				<stop
   offset="0.3814"
   style="stop-color:#FEEFC9"
   id="stop9869" />
				<stop
   offset="0.4776"
   style="stop-color:#FAEAC0"
   id="stop9871" />
				<stop
   offset="0.5607"
   style="stop-color:#F4E0B1"
   id="stop9873" />
				<stop
   offset="0.6363"
   style="stop-color:#EBD39B"
   id="stop9875" />
				<stop
   offset="0.7069"
   style="stop-color:#E0C17F"
   id="stop9877" />
				<stop
   offset="0.7738"
   style="stop-color:#D2AC5D"
   id="stop9879" />
				<stop
   offset="0.8366"
   style="stop-color:#C29334"
   id="stop9881" />
				<stop
   offset="0.8483"
   style="stop-color:#BF8E2C"
   id="stop9883" />
				<stop
   offset="1"
   style="stop-color:#5A3D1C"
   id="stop9885" />
			</linearGradient><inkscape:perspective
   id="perspective19859"
   inkscape:persp3d-origin="56.981499 : 10.920334 : 1"
   inkscape:vp_z="113.963 : 16.380501 : 1"
   inkscape:vp_y="0 : 1000 : 0"
   inkscape:vp_x="0 : 16.380501 : 1"
   sodipodi:type="inkscape:persp3d" />
	
	
	
	
	
	
	
	
	
	
	
	
	
<linearGradient
   y2="4.1392002"
   x2="-142.0327"
   y1="1.3198"
   x1="-142.0327"
   gradientTransform="matrix(-1,0,0,1,-134.69299,-10.794641)"
   gradientUnits="userSpaceOnUse"
   id="linearGradient20209"
   xlink:href="#XMLID_214_"
   inkscape:collect="always" /><linearGradient
   y2="4.9766002"
   x2="-145.00439"
   y1="2.2739"
   x1="-145.00439"
   gradientTransform="matrix(-1,0,0,1,-137.96325,-4.8984308)"
   gradientUnits="userSpaceOnUse"
   id="linearGradient20211"
   xlink:href="#XMLID_215_"
   inkscape:collect="always" /><linearGradient
   y2="6.2315006"
   x2="-145.05066"
   y1="2.2739"
   x1="-145.00439"
   gradientTransform="matrix(0.9912197,-0.1322255,0.1322255,0.9912197,187.10782,-66.369653)"
   gradientUnits="userSpaceOnUse"
   id="linearGradient20231"
   xlink:href="#XMLID_215_"
   inkscape:collect="always" /><linearGradient
   y2="-43.056"
   x2="49.394707"
   y1="-43.056"
   x1="48.469727"
   gradientTransform="matrix(1,0,0,0.955284,0,-1.8329902)"
   gradientUnits="userSpaceOnUse"
   id="linearGradient20233"
   xlink:href="#XMLID_219_"
   inkscape:collect="always" /><linearGradient
   y2="4.1392002"
   x2="-142.0327"
   y1="1.3198"
   x1="-142.0327"
   gradientTransform="matrix(-1,0,0,1,-134.69299,-10.794641)"
   gradientUnits="userSpaceOnUse"
   id="linearGradient20235"
   xlink:href="#XMLID_214_"
   inkscape:collect="always" /><linearGradient
   y2="4.9766002"
   x2="-145.00439"
   y1="2.2739"
   x1="-145.00439"
   gradientTransform="matrix(-1,0,0,1,-137.96325,-4.8984308)"
   gradientUnits="userSpaceOnUse"
   id="linearGradient20237"
   xlink:href="#XMLID_215_"
   inkscape:collect="always" /><linearGradient
   y2="4.1392002"
   x2="-142.0327"
   y1="1.3198"
   x1="-142.0327"
   gradientTransform="matrix(-1,0,0,1,-134.69299,-10.794641)"
   gradientUnits="userSpaceOnUse"
   id="linearGradient20247"
   xlink:href="#XMLID_214_"
   inkscape:collect="always" /><linearGradient
   y2="4.9766002"
   x2="-145.00439"
   y1="2.2739"
   x1="-145.00439"
   gradientTransform="matrix(-1,0,0,1,-137.96325,-4.8984308)"
   gradientUnits="userSpaceOnUse"
   id="linearGradient20249"
   xlink:href="#XMLID_215_"
   inkscape:collect="always" /><linearGradient
   gradientUnits="userSpaceOnUse"
   y2="60.66642"
   x2="33.298277"
   y1="60.66642"
   x1="-6.2471066"
   id="linearGradient20768"
   xlink:href="#linearGradient20762"
   inkscape:collect="always" /><linearGradient
   y2="20.341946"
   x2="40.109142"
   y1="18.123196"
   x1="18.308865"
   gradientUnits="userSpaceOnUse"
   id="linearGradient20770"
   xlink:href="#XMLID_214_"
   inkscape:collect="always" /><linearGradient
   y2="20.341946"
   x2="40.109142"
   y1="18.123196"
   x1="18.308865"
   gradientUnits="userSpaceOnUse"
   id="linearGradient20770-115"
   xlink:href="#XMLID_214_-769"
   inkscape:collect="always" /><linearGradient
   id="XMLID_214_-769"
   gradientUnits="userSpaceOnUse"
   x1="-142.0327"
   y1="1.3198"
   x2="-142.0327"
   y2="4.1392002"
   gradientTransform="matrix(-1,0,0,1,-124.123,-2)">
				<stop
   offset="0"
   style="stop-color:#ac9628"
   id="stop20856" />
				<stop
   offset="0.2416"
   style="stop-color:#e6d9b8"
   id="stop20858" />
				<stop
   offset="0.3814"
   style="stop-color:#e5d7b5"
   id="stop20860" />
				<stop
   offset="0.4776"
   style="stop-color:#e1d3ad"
   id="stop20862" />
				<stop
   offset="0.5607"
   style="stop-color:#dcca9f"
   id="stop20864" />
				<stop
   offset="0.6363"
   style="stop-color:#d4be8c"
   id="stop20866" />
				<stop
   offset="0.7069"
   style="stop-color:#caae72"
   id="stop20868" />
				<stop
   offset="0.7738"
   style="stop-color:#bd9b54"
   id="stop20870" />
				<stop
   offset="0.8366"
   style="stop-color:#af842f"
   id="stop20872" />
				<stop
   offset="0.8483"
   style="stop-color:#ac8028"
   id="stop20874" />
				<stop
   offset="1"
   style="stop-color:#513719"
   id="stop20876" />
			</linearGradient><linearGradient
   y2="20.341946"
   x2="40.109142"
   y1="18.123196"
   x1="18.308865"
   gradientUnits="userSpaceOnUse"
   id="linearGradient20770-115-973"
   xlink:href="#XMLID_214_-769-553"
   inkscape:collect="always" /><linearGradient
   id="XMLID_214_-769-553"
   gradientUnits="userSpaceOnUse"
   x1="-142.0327"
   y1="1.3198"
   x2="-142.0327"
   y2="4.1392002"
   gradientTransform="matrix(-1,0,0,1,-124.123,-2)">
				<stop
   offset="0"
   style="stop-color:#9b8724"
   id="stop22646" />
				<stop
   offset="0.2416"
   style="stop-color:#cfc3a6"
   id="stop22648" />
				<stop
   offset="0.3814"
   style="stop-color:#cec2a3"
   id="stop22650" />
				<stop
   offset="0.4776"
   style="stop-color:#cbbe9c"
   id="stop22652" />
				<stop
   offset="0.5607"
   style="stop-color:#c6b68f"
   id="stop22654" />
				<stop
   offset="0.6363"
   style="stop-color:#bfab7e"
   id="stop22656" />
				<stop
   offset="0.7069"
   style="stop-color:#b69d67"
   id="stop22658" />
				<stop
   offset="0.7738"
   style="stop-color:#aa8c4c"
   id="stop22660" />
				<stop
   offset="0.8366"
   style="stop-color:#9e772a"
   id="stop22662" />
				<stop
   offset="0.8483"
   style="stop-color:#9b7324"
   id="stop22664" />
				<stop
   offset="1"
   style="stop-color:#493217"
   id="stop22666" />
			</linearGradient><linearGradient
   y2="20.341946"
   x2="40.109142"
   y1="18.123196"
   x1="18.308865"
   gradientUnits="userSpaceOnUse"
   id="linearGradient20770-115-973-110"
   xlink:href="#XMLID_214_-769-553-140"
   inkscape:collect="always" /><linearGradient
   id="XMLID_214_-769-553-140"
   gradientUnits="userSpaceOnUse"
   x1="-142.0327"
   y1="1.3198"
   x2="-142.0327"
   y2="4.1392002"
   gradientTransform="matrix(-1,0,0,1,-124.123,-2)">
				<stop
   offset="0"
   style="stop-color:#8c7a20"
   id="stop23166" />
				<stop
   offset="0.2416"
   style="stop-color:#bab095"
   id="stop23168" />
				<stop
   offset="0.3814"
   style="stop-color:#b9af93"
   id="stop23170" />
				<stop
   offset="0.4776"
   style="stop-color:#b7ab8c"
   id="stop23172" />
				<stop
   offset="0.5607"
   style="stop-color:#b2a481"
   id="stop23174" />
				<stop
   offset="0.6363"
   style="stop-color:#ac9a71"
   id="stop23176" />
				<stop
   offset="0.7069"
   style="stop-color:#a48d5d"
   id="stop23178" />
				<stop
   offset="0.7738"
   style="stop-color:#997e44"
   id="stop23180" />
				<stop
   offset="0.8366"
   style="stop-color:#8e6b26"
   id="stop23182" />
				<stop
   offset="0.8483"
   style="stop-color:#8c6820"
   id="stop23184" />
				<stop
   offset="1"
   style="stop-color:#422d15"
   id="stop23186" />
			</linearGradient></defs>
<g
   id="g16347">
		<defs
   id="defs16349">
			<polygon
   id="XMLID_1_"
   points="1.055,32.281 0.776,31.22 1.055,30.16 0.776,29.099 1.055,28.04 0.776,26.979 1.055,25.918 0.776,24.858 1.055,23.797 0.776,22.737 1.055,21.677 0.776,20.616 1.055,19.557 0.776,18.495 1.055,17.436 0.776,16.374 1.055,15.314 0.776,14.254 1.055,13.194 0.776,12.134 1.055,11.073 0.776,10.012 1.055,8.952 0.776,7.892 1.055,6.832 0.776,5.771 1.055,4.709 0.776,3.65 1.055,2.589 0.776,1.529 1.055,0.469 113.12,0.469 113.4,1.529 113.12,2.589 113.4,3.65 113.12,4.709 113.4,5.771 113.12,6.832 113.4,7.892 113.12,8.952 113.4,10.012 113.12,11.073 113.4,12.134 113.12,13.194 113.4,14.254 113.12,15.314 113.4,16.374 113.12,17.436 113.4,18.495 113.12,19.557 113.4,20.616 113.12,21.677 113.4,22.737 113.12,23.797 113.4,24.858 113.12,25.918 113.4,26.979 113.12,28.04 113.4,29.099 113.12,30.16 113.4,31.22 113.12,32.281 1.055,32.281 " />
		</defs>
		
		<rect
   x="0.77600002"
   y="0.45500001"
   clip-path="none"
   width="112.619"
   height="31.813999"
   id="rect16355"
   style="fill:#a32c2c" />
			
		
	</g><path
   d="M 96.795602,0.458 L 96.795602,2.578 L 97.075602,1.518 L 96.795602,0.458 z M 97.075602,5.76 L 96.795602,4.698 L 96.795602,6.82 L 97.075602,5.76 z M 97.075602,7.88 L 96.795602,6.819 L 96.795602,8.94 L 97.075602,7.88 z M 97.075602,10 L 96.795602,8.94 L 96.795602,11.061 L 97.075602,10 z M 97.075602,12.122 L 96.795602,11.062 L 96.795602,13.183 L 97.075602,12.122 z M 97.075602,14.243 L 96.795602,13.183 L 96.795602,15.304 L 97.075602,14.243 z M 97.075602,16.363 L 96.795602,15.303 L 96.795602,17.423 L 97.075602,16.363 z M 97.075602,18.484 L 96.795602,17.423 L 96.795602,19.543 L 97.075602,18.484 z M 97.075602,20.605 L 96.795602,19.543 L 96.795602,21.665 L 97.075602,20.605 z M 97.075602,22.727 L 96.795602,21.666 L 96.795602,23.786 L 97.075602,22.727 z M 97.075602,24.847 L 96.795602,23.786 L 96.795602,25.907 L 97.075602,24.847 z M 97.075602,26.968 L 96.795602,25.907 L 96.795602,28.028 L 97.075602,26.968 z M 97.075602,29.088 L 96.795602,28.028 L 96.795602,30.149 L 97.075602,29.088 z M 97.075602,31.208 L 96.795602,30.148 L 96.795602,32.268 L 97.075602,31.208 z M 96.795602,2.578 L 96.795602,4.699 L 97.075602,3.639 L 96.795602,2.578 z M 17.167399,0.45500001 L 96.794602,0.45500001 L 96.794602,32.268999 L 17.167399,32.268999 L 17.167399,0.45500001 z M 16.887398,1.519 L 17.167398,2.579 L 17.167398,0.459 L 16.887398,1.519 z M 17.167398,6.82 L 17.167398,4.699 L 16.887398,5.761 L 17.167398,6.82 z M 17.167398,8.941 L 17.167398,6.82 L 16.887398,7.881 L 17.167398,8.941 z M 17.167398,11.062 L 17.167398,8.941 L 16.887398,10 L 17.167398,11.062 z M 17.167398,13.183 L 17.167398,11.062 L 16.887398,12.122 L 17.167398,13.183 z M 17.167398,15.304 L 17.167398,13.183 L 16.887398,14.243 L 17.167398,15.304 z M 17.167398,17.424 L 17.167398,15.304 L 16.887398,16.364 L 17.167398,17.424 z M 17.167398,19.544 L 17.167398,17.424 L 16.887398,18.485 L 17.167398,19.544 z M 17.167398,21.666 L 17.167398,19.544 L 16.887398,20.606 L 17.167398,21.666 z M 17.167398,23.786 L 17.167398,21.666 L 16.887398,22.727 L 17.167398,23.786 z M 17.167398,25.907 L 17.167398,23.786 L 16.887398,24.847 L 17.167398,25.907 z M 17.167398,28.028 L 17.167398,25.907 L 16.887398,26.968 L 17.167398,28.028 z M 17.167398,30.149 L 17.167398,28.028 L 16.887398,29.088 L 17.167398,30.149 z M 17.167398,32.269 L 17.167398,30.149 L 16.887398,31.209 L 17.167398,32.269 z M 16.887398,3.639 L 17.167398,4.699 L 17.167398,2.578 L 16.887398,3.639 z"
   style="fill:#005c1c;fill-opacity:1"
   id="path16359"
   sodipodi:nodetypes="ccccccccccccccccccccccccccccccccccccccccccccccccccccccccccccccccccccccccccccccccccccccccccccccccccccccccccccccccccccccccccccc" /><g
   id="g19899"
   transform="translate(25.072189,0)"><path
     transform="translate(2.8284272,0)"
     style="fill:#a32c2c"
     d="M 30.849,2.578 L 30.568,1.519 L 30.849,0.458 L 30.849,0.455 L 32.629,0.455 L 32.345,1.515 L 32.629,2.576 L 32.345,3.636 L 32.629,4.697 L 32.345,5.757 L 32.629,6.817 L 32.345,7.878 L 32.629,8.938 L 32.345,9.999 L 32.629,11.058 L 32.345,12.12 L 32.629,13.18 L 32.345,14.241 L 32.629,15.3 L 32.345,16.362 L 32.629,17.421 L 32.345,18.482 L 32.629,19.542 L 32.345,20.603 L 32.629,21.663 L 32.345,22.723 L 32.629,23.784 L 32.345,24.845 L 32.629,25.905 L 32.345,26.965 L 32.629,28.025 L 32.345,29.086 L 32.629,30.146 L 32.345,31.207 L 32.629,32.267 L 32.629,32.269 L 30.849,32.269 L 30.568,31.208 L 30.849,30.149 L 30.568,29.088 L 30.849,28.028 L 30.568,26.968 L 30.849,25.907 L 30.568,24.847 L 30.849,23.786 L 30.568,22.727 L 30.849,21.666 L 30.568,20.605 L 30.849,19.544 L 30.568,18.484 L 30.849,17.424 L 30.568,16.363 L 30.849,15.304 L 30.568,14.243 L 30.849,13.183 L 30.568,12.122 L 30.849,11.061 L 30.568,10 L 30.849,8.941 L 30.568,7.88 L 30.849,6.82 L 30.568,5.76 L 30.849,4.699 L 30.568,3.639 L 30.849,2.578 z"
     id="polygon16411"
     sodipodi:nodetypes="ccccccccccccccccccccccccccccccccccccccccccccccccccccccccccccccccc" /><use
     x="0"
     y="0"
     xlink:href="#polygon16411"
     id="use19897"
     transform="matrix(-1,0,0,1,63.818621,0)"
     width="113.963"
     height="32.761002" /></g>
<g
   transform="translate(0,-1.0848563)"
   id="texture">
	<g
   id="g16414">
		<defs
   id="defs16416">
			<polygon
   points="1.055,32.281 0.776,31.22 1.055,30.16 0.776,29.099 1.055,28.04 0.776,26.979 1.055,25.918 0.776,24.858 1.055,23.797 0.776,22.737 1.055,21.677 0.776,20.616 1.055,19.557 0.776,18.495 1.055,17.436 0.776,16.374 1.055,15.314 0.776,14.254 1.055,13.194 0.776,12.134 1.055,11.073 0.776,10.012 1.055,8.952 0.776,7.892 1.055,6.832 0.776,5.771 1.055,4.709 0.776,3.65 1.055,2.589 0.776,1.529 1.055,0.469 113.12,0.469 113.4,1.529 113.12,2.589 113.4,3.65 113.12,4.709 113.4,5.771 113.12,6.832 113.4,7.892 113.12,8.952 113.4,10.012 113.12,11.073 113.4,12.134 113.12,13.194 113.4,14.254 113.12,15.314 113.4,16.374 113.12,17.436 113.4,18.495 113.12,19.557 113.4,20.616 113.12,21.677 113.4,22.737 113.12,23.797 113.4,24.858 113.12,25.918 113.4,26.979 113.12,28.04 113.4,29.099 113.12,30.16 113.4,31.22 113.12,32.281 1.055,32.281 "
   id="XMLID_3_" />
		</defs>
		<clipPath
   id="XMLID_122_">
			<use
   height="32.761002"
   width="113.963"
   y="0"
   x="0"
   id="use16420"
   xlink:href="#XMLID_3_" />
		</clipPath>
		<g
   id="g16422"
   clip-path="url(#XMLID_122_)">
			<rect
   style="opacity:0.2;fill:#ffffff"
   id="rect16424"
   height="1.0599999"
   width="112.619"
   y="0.458"
   x="0.77600002" />
			<rect
   style="opacity:0.3;fill:#231f20"
   id="rect16426"
   height="1.0599999"
   width="112.619"
   y="1.5190001"
   x="0.77600002" />
			<rect
   style="opacity:0.3;fill:#231f20"
   id="rect16428"
   height="1.0599999"
   width="112.619"
   y="3.6389999"
   x="0.77600002" />
			<rect
   style="opacity:0.3;fill:#231f20"
   id="rect16430"
   height="1.0599999"
   width="112.619"
   y="5.7600002"
   x="0.77600002" />
			<rect
   style="opacity:0.3;fill:#231f20"
   id="rect16432"
   height="1.0599999"
   width="112.619"
   y="7.881"
   x="0.77600002" />
			<rect
   style="opacity:0.3;fill:#231f20"
   id="rect16434"
   height="1.061"
   width="112.619"
   y="10.001"
   x="0.77600002" />
			<rect
   style="opacity:0.3;fill:#231f20"
   id="rect16436"
   height="1.062"
   width="112.619"
   y="12.122"
   x="0.77600002" />
			<rect
   style="opacity:0.3;fill:#231f20"
   id="rect16438"
   height="1.061"
   width="112.619"
   y="14.243"
   x="0.77600002" />
			<rect
   style="opacity:0.3;fill:#231f20"
   id="rect16440"
   height="1.061"
   width="112.619"
   y="16.363001"
   x="0.77600002" />
			<rect
   style="opacity:0.3;fill:#231f20"
   id="rect16442"
   height="1.0599999"
   width="112.619"
   y="18.483999"
   x="0.77600002" />
			<rect
   style="opacity:0.3;fill:#231f20"
   id="rect16444"
   height="1.061"
   width="112.619"
   y="20.605"
   x="0.77600002" />
			<rect
   style="opacity:0.3;fill:#231f20"
   id="rect16446"
   height="1.0599999"
   width="112.619"
   y="22.726999"
   x="0.77600002" />
			<rect
   style="opacity:0.3;fill:#231f20"
   id="rect16448"
   height="1.061"
   width="112.619"
   y="24.847"
   x="0.77600002" />
			<rect
   style="opacity:0.3;fill:#231f20"
   id="rect16450"
   height="1.0599999"
   width="112.619"
   y="26.968"
   x="0.77600002" />
			<rect
   style="opacity:0.3;fill:#231f20"
   id="rect16452"
   height="1.061"
   width="112.619"
   y="29.087999"
   x="0.77600002" />
			<rect
   style="opacity:0.3;fill:#231f20"
   id="rect16454"
   height="1.061"
   width="112.619"
   y="31.208"
   x="0.77600002" />
			
			
			
			
			
			
			
			
			
			
			
			
			
			
			
			
			
			
			
			
			
			
			
			
			
			
			
			
			
			
			
			
			
			
			
			
			
			
			
			
			
			
			
			
			
			
			
			
			
			
			
			
			
			
			
			
			
			
			
			
			
			
			
			
		</g>
	</g>
</g>
<g
   transform="translate(-0.559244,-1.1246966e-8)"
   id="gold_brading">
	<rect
   style="opacity:0.2"
   id="rect16585"
   height="3.934"
   width="106.969"
   y="26.184"
   x="3.97" />
	<rect
   style="opacity:0.2"
   id="rect16587"
   height="3.934"
   width="106.969"
   y="3.733"
   x="3.97" />
	<polygon
   style="opacity:0.2"
   id="polygon16589"
   points="112.769,32.269 106.738,32.269 106.738,32.267 107.022,31.207 106.738,30.146 107.022,29.086 106.738,28.025 107.022,26.965 106.738,25.905 107.022,24.845 106.738,23.784 107.022,22.723 106.738,21.663 107.022,20.603 106.738,19.542 107.022,18.482 106.738,17.421 107.022,16.362 106.738,15.3 107.022,14.241 106.738,13.18 107.022,12.12 106.738,11.058 107.022,9.999 106.738,8.938 107.022,7.878 106.738,6.817 107.022,5.757 106.738,4.697 107.022,3.636 106.738,2.576 107.022,1.515 106.738,0.455 112.769,0.455 112.769,0.458 112.769,32.269 " />
	
	
	
	
	
	
	
	
	
	
	
	
	
	
	
	
	
	
	
	
	
	
	
	
	
	
	
</g>

<g
   transform="matrix(0.9938393,0,0,1,-0.2299414,-4.8699583e-2)"
   id="g12218"><g
     transform="matrix(1.0410952,0,0,1,6.3238044,46.164699)"
     id="g11701"><path
       inkscape:transform-center-y="1.5392444"
       inkscape:transform-center-x="3.8808305"
       d="M 45.709257,-41.925614 C 43.999405,-41.321928 41.877819,-41.625242 40.11711,-41.208812 C 39.479149,-41.090496 38.845907,-40.989804 38.225139,-40.909013 L 36.778369,-40.983532 C 37.608788,-41.481709 38.382773,-41.994553 39.134688,-42.491337 C 40.820166,-43.353009 43.341072,-44.042444 46.702076,-44.784912 C 47.631834,-44.999736 48.128667,-45.094447 49.124578,-45.244449 C 47.885904,-44.50802 49.928417,-40.315353 48.582451,-40.829047 L 45.709257,-41.925614 z"
       id="path11799"
       style="fill:url(#linearGradient20231)"
       sodipodi:nodetypes="cccccccsc" /><use
       x="0"
       y="0"
       xlink:href="#g11471"
       id="use11481"
       transform="translate(58.262412,-45.064341)"
       width="113.963"
       height="32.761002" /><use
       x="0"
       y="0"
       xlink:href="#g11471"
       id="use11483"
       transform="translate(50.617669,-45.064341)"
       width="113.963"
       height="32.761002" /><use
       x="0"
       y="0"
       xlink:href="#g11471"
       id="use11485"
       transform="translate(42.934394,-45.064341)"
       width="113.963"
       height="32.761002" /><use
       x="0"
       y="0"
       xlink:href="#g11471"
       id="use11592"
       transform="translate(35.254404,-45.064341)"
       width="113.963"
       height="32.761002" /><use
       x="0"
       y="0"
       xlink:href="#g11471"
       id="use11594"
       transform="translate(27.609661,-45.064341)"
       width="113.963"
       height="32.761002" /><use
       x="0"
       y="0"
       xlink:href="#g11471"
       id="use11596"
       transform="translate(19.926386,-45.064341)"
       width="113.963"
       height="32.761002" /><path
       sodipodi:nodetypes="csccccsccc"
       id="path11765"
       d="M 48.75,-45.34375 C 47.994139,-45.401143 47.44704,-45.172967 46.625,-44.78125 C 45.80296,-44.389533 44.689366,-43.808021 42.6875,-43.15625 L 42.4375,-43.09375 L 42.59375,-42.625 L 42.84375,-42.6875 C 44.873133,-43.34823 46.02774,-43.923657 46.84375,-44.3125 C 47.65976,-44.701343 47.595438,-44.693257 48.232614,-44.932138 L 49,-45.3125 L 48.75,-45.34375 z"
       style="opacity:1;fill:#806633;fill-opacity:1;stroke:none;stroke-width:0.5;stroke-linecap:square;stroke-linejoin:miter;marker:none;stroke-miterlimit:4;stroke-dasharray:none;stroke-dashoffset:0;stroke-opacity:1;visibility:visible;display:inline;overflow:visible;enable-background:accumulate" /><path
       sodipodi:nodetypes="ccsccsscc"
       id="path11771"
       d="M 41.846063,-42.810226 L 42.206548,-42.690587 C 43.212889,-42.638714 44.600801,-42.145994 45.752313,-41.602199 C 46.932218,-41.044995 47.846063,-40.633449 47.846063,-40.633449 L 49.079058,-40.800422 C 49.079058,-40.800422 48.362767,-40.992645 48.064813,-41.102199 C 47.410835,-41.342659 47.14087,-41.552031 45.939813,-42.039699 C 44.738756,-42.527367 44.347148,-43.131976 43.210071,-43.190588 L 41.846063,-42.810226 z"
       style="opacity:1;fill:#8b5c29;fill-opacity:1;stroke:none;stroke-width:0.5;stroke-linecap:square;stroke-linejoin:miter;marker:none;stroke-miterlimit:4;stroke-dasharray:none;stroke-dashoffset:0;stroke-opacity:1;visibility:visible;display:inline;overflow:visible;enable-background:accumulate" /><path
       id="path20050"
       sodipodi:nodetypes="cc"
       d="M 49.132874,-44.935579 C 48.667619,-44.965432 47.00603,-42.23725 49.144707,-40.991819 L 49.1261,-44.997449"
       style="opacity:1;fill:url(#linearGradient20233);fill-opacity:1;stroke:#d6c166;stroke-width:0.49154893;stroke-linecap:butt;stroke-linejoin:round;marker:none;stroke-miterlimit:4;stroke-dasharray:none;stroke-dashoffset:0;stroke-opacity:1;visibility:visible;display:inline;overflow:visible;enable-background:accumulate" /><g
       id="use12539"
       transform="translate(-12.616772,-35.585211)"><path
         sodipodi:nodetypes="cscssccccc"
         style="fill:url(#linearGradient20235);fill-opacity:1"
         id="path12568"
         d="M 8.5550097,-9.0336408 C 9.0610097,-9.1176408 9.6680096,-9.1956408 10.31101,-9.2566408 C 11.26201,-9.3466408 13.449885,-9.4328908 14.458885,-9.4498908 C 13.568885,-9.0758908 12.374135,-8.6170158 11.493135,-8.1880158 C 10.613135,-7.7590158 8.8750097,-7.3326408 7.9200097,-6.9336408 C 7.5610097,-6.7846408 7.0300097,-6.6566408 6.3820097,-6.5656408 L 8.7050097,-7.2796408 C 8.2710097,-7.1796408 7.1356518,-6.4317767 6.6196518,-6.3467767 L 6.6620036,-8.1917961 C 7.0227123,-8.7401289 8.0628547,-8.9406161 8.5550097,-9.0336408 z" /><path
         sodipodi:nodetypes="ccccc"
         id="path12570"
         d="M 7.9735097,-6.9961409 L 8.7665097,-7.3421409 C 8.3325097,-7.2421409 7.8445097,-7.1461409 7.3285097,-7.0611409 L 6.4345097,-6.6281409 C 7.0825097,-6.7191409 7.6155097,-6.8471409 7.9735097,-6.9961409 z"
         style="fill:#8b5c29" /><path
         sodipodi:nodetypes="ccscc"
         id="path12572"
         d="M 15.874766,-9.8476868 C 12.648866,-10.222202 7.7276402,-10.62116 6.8715898,-8.6163182 C 6.9516673,-7.7371888 6.9580563,-8.1793087 8.8889505,-8.8521561 C 9.2781154,-8.9877661 10.593791,-9.2420733 11.203078,-9.2633743 C 12.787523,-9.4366457 14.371922,-9.2314276 15.874766,-9.8476868 z"
         style="fill:#bfa72c" /><path
         sodipodi:nodetypes="ccccccccc"
         id="path12574"
         d="M 8.6922547,-6.702758 L 6.6340767,-6.7178747 C 7.2833547,-6.8138883 7.8133517,-6.9459824 8.1711907,-7.0977485 L 8.9595047,-7.4488427 L 12.436383,-8.5147069 L 12.514203,-8.5383082 L 12.463382,-8.5149153 L 11.21805,-7.9052864 C 10.410115,-7.5050393 9.5792726,-7.0926151 8.6922547,-6.702758 z"
         style="fill:#806633" /><g
         transform="translate(0.7879127,-5.8778253)"
         id="g12576"><path
           sodipodi:nodetypes="ccccccc"
           style="fill:url(#linearGradient20237);fill-opacity:1"
           id="path12578"
           d="M 5.7606458,-0.11452792 C 7.5353077,0.25777197 9.2634339,0.42560647 11.063746,0.60556917 C 11.71175,0.63849231 12.352746,0.65456919 12.978746,0.65256919 L 14.40296,0.38740414 C 13.51396,0.0034041214 10.429126,-1.3527706 9.6181261,-1.7457706 L 7.0822728,-0.92790415 C 6.1483795,-0.50805949 5.5564094,-1.0677244 5.7606458,-0.11452792 z" /><path
           id="path12580"
           d="M 15.212184,0.19788681 L 13.487828,0.31127681 L 13.477828,0.31127681 L 13.487828,0.31127681 C 12.639828,0.39327681 11.797828,0.43527681 10.996828,0.43527681 L 10.990828,0.43527681 L 10.986828,0.43527681 C 10.134828,0.43527681 9.3228277,0.38727681 8.6258277,0.29627681 L 8.4958277,0.28027681 C 7.8488277,0.18927681 7.3158277,0.062276808 6.9568277,-0.087723192 L 5.718854,-0.52479772 L 5.7756204,-0.13326688 C 6.3236204,0.12873312 5.8638277,0.059276808 6.4498277,0.31227681 L 6.4398277,0.31227681 L 6.4498277,0.31227681 C 6.8661607,0.40194351 7.2824947,0.49161011 7.6988277,0.58127681 C 8.4538277,0.71427681 9.3668277,0.80027681 10.390828,0.82427681 L 10.984828,0.83227681 C 12.136828,0.83227681 13.408828,0.75427681 14.741828,0.58027681"
           style="fill:#806633"
           sodipodi:nodetypes="ccccccccccccccccccc" /><path
           sodipodi:nodetypes="cccccsscssscsscc"
           id="path12582"
           d="M 16.018987,-4.1099017 L 15.213612,-4.3347767 L 15.014612,-4.3637767 C 14.033612,-4.5027767 13.029987,-4.6409017 12.067987,-4.6409017 L 11.464987,-4.6329017 C 10.410987,-4.6049017 10.475532,-4.5658779 9.5422237,-4.5047476 C 8.984381,-4.4682097 8.4525458,-4.4878449 7.9882245,-4.406971 C 7.6535287,-4.3486748 6.9689828,-4.326369 6.9689828,-4.326369 C 6.6711158,-4.2224025 6.359045,-4.3588749 6.213384,-4.2138879 C 5.9042541,-3.9061884 6.0036938,-3.3008907 6.1834222,-3.2557485 C 6.3726638,-3.2082168 6.8299819,-3.7325812 7.0004157,-3.7391719 C 7.4655154,-3.7571575 7.4279617,-3.8061475 8.229612,-3.8027767 C 8.715612,-3.8967767 9.219612,-3.9727767 9.730612,-4.0307767 C 10.506612,-4.1197767 11.302612,-4.1657767 12.083612,-4.1657767 C 12.710612,-4.1657767 13.323612,-4.1367767 13.919612,-4.0787767 L 15.276612,-3.8017767"
           style="fill:#8b5c29" /></g><path
         sodipodi:nodetypes="csc"
         transform="matrix(0.960527,0,0,1,6.5425874,-10.579488)"
         id="path12589"
         d="M 0.29072815,4.1843112 C 0.29072815,4.1843112 0.077515922,2.3040444 0.84260666,1.2512428 C 1.1265544,0.86051706 1.5670871,0.69227333 2.171875,0.62037547"
         style="opacity:1;fill:none;fill-opacity:1;stroke:#8b5c29;stroke-width:0.50154734;stroke-linecap:square;stroke-linejoin:miter;marker:none;stroke-miterlimit:4;stroke-dasharray:none;stroke-dashoffset:0;stroke-opacity:1;visibility:visible;display:inline;overflow:visible;enable-background:accumulate" /></g></g><use
     height="32.761002"
     width="113.963"
     transform="matrix(-1,0,0,1,114.87599,-2.0294549e-7)"
     id="use11709"
     xlink:href="#g11701"
     y="0"
     x="0" /></g><g
   transform="translate(0.3995603,-0.2500472)"
   id="g12591"><g
     transform="matrix(0,-0.7032351,1,0,0.800596,-5.8802845)"
     id="use12529"><g
       transform="translate(-25.110357,9.5735717)"
       id="g12543"><path
         d="M 8.5550097,-9.0336408 C 9.0610097,-9.1176408 8.8611646,-9.16171 9.5041654,-9.22271 C 9.5041654,-9.22271 9.0987103,-7.4621991 8.663268,-7.1944879 C 7.939137,-6.6397867 8.8750097,-7.3326408 7.9200097,-6.9336408 C 7.5610097,-6.7846408 7.0300097,-6.6566408 6.3820097,-6.5656408 C 5.6560097,-6.4636408 4.7960097,-6.4106408 3.8920097,-6.4106408 L 3.8890097,-6.4106408 L 8.7050097,-7.2796408 C 8.2710097,-7.1796408 7.7830097,-7.0836408 7.2670097,-6.9986408 C 6.0320097,-6.7946408 4.6650097,-6.6496408 3.3160097,-6.5816408 C 2.6690097,-6.5486408 2.0290097,-6.5326408 1.4010097,-6.5346408 L 0.35344665,-6.6009321 C 0.93944665,-6.8529321 1.2121847,-7.1812233 2.5757767,-7.5989029 L 5.8130097,-8.6116408 C 4.1042957,-7.9225367 7.5962611,-9.0031161 8.5550097,-9.0336408 z"
         id="path12545"
         style="fill:url(#linearGradient20247);fill-opacity:1"
         sodipodi:nodetypes="cccsscccssccccc" /><path
         style="fill:#8b5c29"
         d="M 7.9735097,-6.9961409 L 8.7665097,-7.3421409 C 8.3325097,-7.2421409 7.8445097,-7.1461409 7.3285097,-7.0611409 C 6.0945097,-6.8571409 4.7275097,-6.7121409 3.3785097,-6.6441409 C 2.7315097,-6.6111409 2.0915097,-6.5951409 1.4635097,-6.5971409 L 1.4545097,-6.5971409 C 2.3015097,-6.5151409 3.1435097,-6.4731409 3.9465097,-6.4731409 L 3.9515097,-6.4731409 C 4.8525097,-6.4731409 5.7115097,-6.5271409 6.4345097,-6.6281409 C 7.0825097,-6.7191409 7.6155097,-6.8471409 7.9735097,-6.9961409 z"
         id="path12547" /><path
         style="fill:#bfa72c"
         d="M 9.6786269,-9.9607415 C 9.0016269,-9.8297415 7.7271407,-9.4319369 7.1951407,-9.2499369 L 7.1921407,-9.2489369 L 7.1911407,-9.2489369 L 6.7931407,-9.1059369 L 6.7171407,-9.0789369 L 6.6391407,-9.0499369 L 6.5221407,-9.0039369 L 6.1621407,-8.8629369 L 6.1601407,-8.8629369 C 5.6941407,-8.6739369 5.2351407,-8.4699369 4.7741407,-8.2559369 L 4.7741407,-8.2169369 C 5.8451407,-8.4709369 6.8781407,-8.7079369 7.9881407,-8.8929369 C 8.4951407,-8.9769369 8.8468771,-9.1314915 9.4908769,-9.1924915 L 9.6786269,-9.9607415 z"
         id="path12549"
         sodipodi:nodetypes="ccccccccccccscc" /><path
         style="fill:#806633"
         d="M 8.6922547,-6.702758 C 8.2783487,-6.5706763 8.1913267,-6.561888 7.4403677,-6.4240884 C 6.6894087,-6.2862889 5.7800997,-6.1932686 4.7583227,-6.1603822 L 4.1514027,-6.147698 L 4.1504027,-6.1476903 C 3.0014377,-6.138823 1.7308727,-6.2070196 0.39857765,-6.3697426 L 1.6444717,-6.6473659 L 1.6534717,-6.6474354 L 1.6444717,-6.6473659 C 2.4920797,-6.571905 3.3343787,-6.5364043 4.1373547,-6.5426013 L 4.1423547,-6.5426399 L 4.1453547,-6.5426631 C 5.0063287,-6.5493077 5.8269267,-6.6046423 6.5281877,-6.7030571 L 6.6340767,-6.7178747 C 7.2833547,-6.8138883 7.8133517,-6.9459824 8.1711907,-7.0977485 L 8.9595047,-7.4488427 L 9.3976918,-7.8019235 C 8.5897568,-7.4016764 9.5792726,-7.0926151 8.6922547,-6.702758 z"
         id="path12551"
         sodipodi:nodetypes="cscccccccccccccccc" /><g
         id="g12553"
         transform="translate(0.7879127,-5.8778253)"><path
           d="M 8.1642457,0.12631918 L 8.3741962,-1.8125029 C 8.5007425,-2.9811149 6.5388952,-1.8360963 4.0637464,-2.0684308 C 3.1137464,-2.1584308 2.1007464,-2.2134308 1.0937464,-2.2304308 C 2.418919,-1.6642511 3.710305,-1.0227156 5.0067464,-0.39443083 L 8.1642457,0.12631918 z"
           id="path12555"
           style="fill:url(#linearGradient20249);fill-opacity:1"
           sodipodi:nodetypes="cscccc" /><path
           sodipodi:nodetypes="cccccccccc"
           style="fill:#806633"
           d="M 8.6258277,0.29627681 L 8.4745339,0.010860546 C 7.8275339,-0.080139454 7.8500025,-0.0040144541 7.4910025,-0.15401445 L 2.4516141,-1.8790339 L 1.7878471,-1.9126649 L 4.7568277,-0.46472319 C 5.3048277,-0.20272319 5.8638277,0.059276808 6.4498277,0.31227681 L 6.4398277,0.31227681 L 6.4498277,0.31227681 C 6.8661607,0.40194351 6.8740081,0.20434797 7.2903411,0.29401467"
           id="path12557" /><path
           style="fill:#8b5c29"
           d="M 9.2344942,-4.4180193 C 7.7783942,-4.3867841 6.338057,-4.1357424 5.0402653,-3.5478642 C 3.3623156,-2.9247142 1.9310321,-1.9724635 0.30961198,-1.2217767 C 2.2542094,-1.7551748 4.1635813,-2.3687214 6.0039966,-3.1919165 C 6.7278265,-3.4555885 8.4059215,-3.7370325 9.1627992,-3.8809017"
           id="path12559"
           sodipodi:nodetypes="ccccc" /></g></g></g><use
     x="0"
     y="0"
     xlink:href="#g12234"
     id="use12531"
     transform="matrix(0,-0.7032351,1,0,-11.675636,1.7463066)"
     width="113.963"
     height="32.761002" /><use
     x="0"
     y="0"
     xlink:href="#g12234"
     id="use12533"
     transform="matrix(0,-0.7032351,1,0,-11.675636,7.0918766)"
     width="113.963"
     height="32.761002" /><use
     x="0"
     y="0"
     xlink:href="#g12234"
     id="use12535"
     transform="matrix(0,-0.7032351,1,0,-11.675636,12.527303)"
     width="113.963"
     height="32.761002" /><use
     x="0"
     y="0"
     xlink:href="#g12234"
     id="use12537"
     transform="matrix(0,-0.7032351,1,0,-11.675636,17.937011)"
     width="113.963"
     height="32.761002" /></g><g
   transform="translate(3.2099652,12.447465)"
   id="g12234"><g
     transform="translate(-25.110357,9.5735717)"
     id="g11471"><path
       d="M 8.4666214,-9.199369 C 8.9726214,-9.283369 9.6680096,-9.1956408 10.31101,-9.2566408 C 11.26201,-9.3466408 13.449885,-9.4328908 14.458885,-9.4498908 C 13.568885,-9.0758908 12.374135,-8.6170158 11.493135,-8.1880158 C 10.613135,-7.7590158 8.8750097,-7.3326408 7.9200097,-6.9336408 C 7.5610097,-6.7846408 7.0300097,-6.6566408 6.3820097,-6.5656408 C 5.6560097,-6.4636408 4.7960097,-6.4106408 3.8920097,-6.4106408 L 3.8890097,-6.4106408 L 8.7050097,-7.2796408 C 8.2710097,-7.1796408 7.7830097,-7.0836408 7.2670097,-6.9986408 C 6.0320097,-6.7946408 4.6650097,-6.6496408 3.3160097,-6.5816408 C 2.6690097,-6.5486408 2.0290097,-6.5326408 1.4010097,-6.5346408 L 0.35344665,-6.6009321 C 0.93944665,-6.8529321 1.2121847,-7.1812233 2.5757767,-7.5989029 L 5.8130097,-8.6116408 C 4.1042957,-7.9225367 7.9744664,-9.1063443 8.4666214,-9.199369 z"
       id="path9887"
       style="fill:url(#linearGradient20209);fill-opacity:1"
       sodipodi:nodetypes="cscssscccssccccc" /><path
       style="fill:#8b5c29"
       d="M 7.9735097,-6.9961409 L 8.7665097,-7.3421409 C 8.3325097,-7.2421409 7.8445097,-7.1461409 7.3285097,-7.0611409 C 6.0945097,-6.8571409 4.7275097,-6.7121409 3.3785097,-6.6441409 C 2.7315097,-6.6111409 2.0915097,-6.5951409 1.4635097,-6.5971409 L 1.4545097,-6.5971409 C 2.3015097,-6.5151409 3.1435097,-6.4731409 3.9465097,-6.4731409 L 3.9515097,-6.4731409 C 4.8525097,-6.4731409 5.7115097,-6.5271409 6.4345097,-6.6281409 C 7.0825097,-6.7191409 7.6155097,-6.8471409 7.9735097,-6.9961409 z"
       id="path11212" /><path
       style="fill:#bfa72c"
       d="M 15.874766,-9.847687 C 15.277766,-9.905687 13.525141,-10.090937 12.898141,-10.090937 C 11.605141,-10.090937 10.272141,-9.965937 9.0441407,-9.7279369 C 8.3671407,-9.5969369 7.7271407,-9.4319369 7.1951407,-9.2499369 L 7.1921407,-9.2489369 L 7.1911407,-9.2489369 L 6.7931407,-9.1059369 L 6.7171407,-9.0789369 L 6.6391407,-9.0499369 L 6.5221407,-9.0039369 L 6.1621407,-8.8629369 L 6.1601407,-8.8629369 C 5.6941407,-8.6739369 5.2351407,-8.4699369 4.7741407,-8.2559369 L 4.7741407,-8.2169369 C 5.8451407,-8.4709369 6.8781407,-8.7079369 7.9881407,-8.8929369 C 8.4951407,-8.9769369 9.1011407,-9.0549369 9.7451406,-9.1159369 C 10.695141,-9.2059369 11.696516,-9.3390619 12.704516,-9.3560619 L 14.425266,-9.4351869 C 15.368914,-9.787778 14.885108,-9.658915 15.874766,-9.847687 z"
       id="path11196"
       sodipodi:nodetypes="csscccccccccccssccc" /><path
       style="fill:#806633"
       d="M 8.6922547,-6.702758 C 8.2783487,-6.5706763 8.1913267,-6.561888 7.4403677,-6.4240884 C 6.6894087,-6.2862889 5.7800997,-6.1932686 4.7583227,-6.1603822 L 4.1514027,-6.147698 L 4.1504027,-6.1476903 C 3.0014377,-6.138823 1.7308727,-6.2070196 0.39857765,-6.3697426 L 1.6444717,-6.6473659 L 1.6534717,-6.6474354 L 1.6444717,-6.6473659 C 2.4920797,-6.571905 3.3343787,-6.5364043 4.1373547,-6.5426013 L 4.1423547,-6.5426399 L 4.1453547,-6.5426631 C 5.0063287,-6.5493077 5.8269267,-6.6046423 6.5281877,-6.7030571 L 6.6340767,-6.7178747 C 7.2833547,-6.8138883 7.8133517,-6.9459824 8.1711907,-7.0977485 L 8.9595047,-7.4488427 L 12.436383,-8.5147069 L 12.514203,-8.5383082 L 12.463382,-8.5149153 L 11.21805,-7.9052864 C 10.410115,-7.5050393 9.5792726,-7.0926151 8.6922547,-6.702758 z"
       id="path9895" /><g
       id="g11232"
       transform="translate(0.7879127,-5.8778253)"><path
         d="M 5.6757464,-0.092430829 C 7.4504083,0.27986906 9.2634339,0.42560647 11.063746,0.60556917 C 11.71175,0.63849231 12.352746,0.65456919 12.978746,0.65256919 L 14.40296,0.38740414 C 13.51396,0.0034041214 12.67896,-0.40259588 11.86796,-0.79559588 C 10.083346,-1.4268387 7.4934129,-1.7768923 4.0637464,-2.0684308 C 3.1137464,-2.1584308 2.1007464,-2.2134308 1.0937464,-2.2304308 C 2.418919,-1.6642511 3.710305,-1.0227156 5.0067464,-0.39443083 L 5.6757464,-0.092430829 z"
         id="path9924"
         style="fill:url(#linearGradient20211);fill-opacity:1"
         sodipodi:nodetypes="ccccccccc" /><path
         sodipodi:nodetypes="cccccccccccccccccccc"
         style="fill:#806633"
         d="M 15.212184,0.19788681 L 13.487828,0.31127681 L 13.477828,0.31127681 L 13.487828,0.31127681 C 12.639828,0.39327681 11.797828,0.43527681 10.996828,0.43527681 L 10.990828,0.43527681 L 10.986828,0.43527681 C 10.134828,0.43527681 9.3228277,0.38727681 8.6258277,0.29627681 L 8.4958277,0.28027681 C 7.8488277,0.18927681 7.3158277,0.062276808 6.9568277,-0.087723192 L 2.4516141,-1.8790339 L 1.7878471,-1.9126649 L 4.7568277,-0.46472319 C 5.3048277,-0.20272319 5.8638277,0.059276808 6.4498277,0.31227681 L 6.4398277,0.31227681 L 6.4498277,0.31227681 C 6.8661607,0.40194351 7.2824947,0.49161011 7.6988277,0.58127681 C 8.4538277,0.71427681 9.3668277,0.80027681 10.390828,0.82427681 L 10.984828,0.83227681 C 12.136828,0.83227681 13.408828,0.75427681 14.741828,0.58027681"
         id="path11228" /><path
         style="fill:#8b5c29"
         d="M 16.018987,-4.1099017 L 15.213612,-4.3347767 L 15.014612,-4.3637767 C 14.033612,-4.5027767 13.029987,-4.6409017 12.067987,-4.6409017 L 11.464987,-4.6329017 C 10.410987,-4.6049017 10.475532,-4.5658779 9.5422237,-4.5047476 C 8.984381,-4.4682097 8.4419333,-4.3552623 7.977612,-4.2743884 C 7.6429162,-4.2160922 6.8097965,-3.9838641 6.8097965,-3.9838641 C 6.5997965,-3.9248641 6.4057965,-3.8688641 6.2577965,-3.8178641 L 5.8567965,-3.6758641 L 5.6437965,-3.5958641 L 5.4787965,-3.5338641 L 5.1957965,-3.4228641 L 5.1867965,-3.4188641 L 5.1267965,-3.3948641 L 4.8007965,-3.2608641 L 4.7987965,-3.2598641 C 4.1667965,-2.9948641 3.625612,-2.8027767 3.008612,-2.5067767 L 2.473612,-2.2527767 L 0.95461197,-1.5177767 L 0.30961197,-1.2217767 L 3.767612,-2.2527767 L 3.839612,-2.2747767 L 4.429612,-2.5467767 L 4.440612,-2.5507767 L 4.748612,-2.6877767 L 4.787612,-2.7037767 L 5.069612,-2.8247767 L 5.140612,-2.8537767 L 5.391612,-2.9577767 L 5.504612,-3.0017767 L 5.716612,-3.0857767 L 5.871612,-3.1437767 L 6.047612,-3.2077767 L 6.3695635,-3.3192524 C 6.9015635,-3.5012524 7.551612,-3.6717767 8.229612,-3.8027767 C 8.715612,-3.8967767 9.219612,-3.9727767 9.730612,-4.0307767 C 10.506612,-4.1197767 11.302612,-4.1657767 12.083612,-4.1657767 C 12.710612,-4.1657767 13.323612,-4.1367767 13.919612,-4.0787767 L 15.276612,-3.8017767"
         id="path11224"
         sodipodi:nodetypes="cccccssscccccccccccccccccccccccccccssscc" /></g></g></g><use
   height="32.761002"
   width="113.963"
   transform="matrix(-1,0,0,1,114.35424,0.1006758)"
   id="use12607"
   xlink:href="#g12591"
   y="0"
   x="0" /><use
   style="fill:url(#linearGradient12637);fill-opacity:1"
   height="32.761002"
   width="113.963"
   transform="matrix(1.0031222,0,0,1,0.202585,27.223614)"
   id="use12232"
   xlink:href="#g12218"
   y="0"
   x="0" /><g
   transform="translate(0.8570267,0.2663414)"
   id="g19917"><path
     style="opacity:1;fill:#5d4b20;fill-opacity:1;stroke:#805b47;stroke-width:0.25000000000000000;stroke-linecap:butt;stroke-linejoin:round;marker:none;stroke-miterlimit:4;stroke-dasharray:none;stroke-dashoffset:0;stroke-opacity:1;visibility:visible;display:inline;overflow:visible;enable-background:accumulate"
     d="M 28.019107,18.000147 L 28.107495,16.320768 C 28.107495,16.320768 30.052039,18.972419 38.537321,18.530477 C 47.022602,18.088535 48.171651,15.260108 52.767845,14.818166 C 57.364039,14.376224 62.513821,12.598933 63.241864,12.564264 C 63.705903,12.542166 64.302525,14.243642 64.302525,14.243642 L 77.074641,11.636186 L 80.87534,12.873622 L 79.549515,14.906555 L 74.688156,16.055603 L 67.882253,15.878826 L 65.142214,16.674321 L 59.220194,18.3537 L 51.707185,18.618865 L 45.343223,20.651797 L 38.360544,21.005351 C 38.360544,21.005351 38.183767,20.209855 34.736621,19.41436 C 31.289476,18.618865 27.84233,18.088535 28.019107,18.000147 z"
     id="path12777"
     sodipodi:nodetypes="ccssscccccccccccsc" /><g
     id="g12671"><path
       id="path10665"
       d="M 34.871366,18.928398 C 37.905703,18.622493 40.470807,20.417214 41.296644,21.789949 C 38.294344,21.602788 36.629398,21.439147 34.871366,18.928398 z"
       style="opacity:1;fill:url(#linearGradient20770-115-973-110);fill-opacity:1;stroke:#5e4334;stroke-width:0.50000000000000000;stroke-linecap:square;stroke-linejoin:miter;marker:none;stroke-miterlimit:4;stroke-dasharray:none;stroke-dashoffset:0;stroke-opacity:1;visibility:visible;display:inline;overflow:visible;enable-background:accumulate" /><path
       sodipodi:nodetypes="cccccc"
       id="path10667"
       d="M 39.8125,21.1875 C 39.8125,21.1875 37.058482,19.446576 35.34375,18.875 L 35.09375,18.78125 L 34.9375,19.25 L 35.15625,19.34375 C 36.81652,19.897172 39.8125,21.1875 39.8125,21.1875 z"
       style="opacity:1;fill:#6b3e25;fill-opacity:1;stroke:none;stroke-width:0.5;stroke-linecap:square;stroke-linejoin:miter;marker:none;stroke-miterlimit:4;stroke-dasharray:none;stroke-dashoffset:0;stroke-opacity:1;visibility:visible;display:inline;overflow:visible;enable-background:accumulate" /></g><use
     x="0"
     y="0"
     xlink:href="#g12671"
     id="use12675"
     transform="translate(3.6943772,-5.296822e-2)"
     width="113.963"
     height="32.761002" /><path
     style="opacity:1;fill:none;fill-opacity:1;stroke:#6b3212;stroke-width:0.50000001;stroke-linecap:butt;stroke-linejoin:round;marker:none;stroke-miterlimit:4;stroke-dasharray:none;stroke-dashoffset:0;stroke-opacity:1;visibility:visible;display:inline;overflow:visible;enable-background:accumulate"
     d="M 78.356272,13.492341 C 78.356272,13.492341 48.127456,16.76271 40.570253,18.928224"
     id="path12789" /><use
     x="0"
     y="0"
     xlink:href="#g12671"
     id="use12677"
     transform="translate(9.9472462,-0.6746954)"
     width="113.963"
     height="32.761002" /><use
     x="0"
     y="0"
     xlink:href="#g12671"
     id="use12679"
     transform="translate(12.665996,-1.2371954)"
     width="113.963"
     height="32.761002" /><use
     x="0"
     y="0"
     xlink:href="#g12671"
     id="use12681"
     transform="translate(15.697246,-2.1121954)"
     width="113.963"
     height="32.761002" /><use
     x="0"
     y="0"
     xlink:href="#g12671"
     id="use12683"
     transform="translate(19.478496,-2.5809454)"
     width="113.963"
     height="32.761002" /><use
     x="0"
     y="0"
     xlink:href="#g12671"
     id="use12685"
     transform="matrix(0.9914667,-0.1303605,-0.1303605,-0.9914667,6.6427649,41.456511)"
     width="113.963"
     height="32.761002" /><use
     x="0"
     y="0"
     xlink:href="#g12671"
     id="use12687"
     transform="matrix(0.9675576,-0.2526508,-0.2526508,-0.9675576,13.857796,45.206628)"
     width="113.963"
     height="32.761002" /><use
     x="0"
     y="0"
     xlink:href="#g12671"
     id="use12689"
     transform="matrix(0.9613375,-0.275373,-0.275373,-0.9613375,17.994785,45.382844)"
     width="113.963"
     height="32.761002" /><use
     x="0"
     y="0"
     xlink:href="#g12671"
     id="use12691"
     transform="translate(7.1659961,-0.1434453)"
     width="113.963"
     height="32.761002" /><use
     x="0"
     y="0"
     xlink:href="#g12671"
     id="use12693"
     transform="matrix(0.9613375,-0.275373,-0.275373,-0.9613375,22.057286,44.820344)"
     width="113.963"
     height="32.761002" /><use
     x="0"
     y="0"
     xlink:href="#g12671"
     id="use12697"
     transform="matrix(0.9613375,-0.275373,-0.275373,-0.9613375,28.119786,43.632844)"
     width="113.963"
     height="32.761002" /><use
     x="0"
     y="0"
     xlink:href="#g12671"
     id="use12695"
     transform="matrix(0.9613375,-0.275373,-0.275373,-0.9613375,25.619786,44.382844)"
     width="113.963"
     height="32.761002" /><use
     x="0"
     y="0"
     xlink:href="#g12671"
     id="use12699"
     transform="matrix(0.9613375,-0.275373,-0.275373,-0.9613375,34.619786,42.632844)"
     width="113.963"
     height="32.761002" /><use
     x="0"
     y="0"
     xlink:href="#g12671"
     id="use12701"
     transform="matrix(0.9958142,-9.1400682e-2,-9.1400682e-2,-0.9958142,32.311249,36.515859)"
     width="113.963"
     height="32.761002" /><use
     x="0"
     y="0"
     xlink:href="#g12671"
     id="use12703"
     transform="matrix(0.9988991,-4.6912321e-2,-4.6912321e-2,-0.9988991,34.913021,34.509368)"
     width="113.963"
     height="32.761002" /><use
     x="0"
     y="0"
     xlink:href="#g12671"
     id="use12705"
     transform="matrix(0.996344,8.5431972e-2,8.5431972e-2,-0.996344,35.003406,29.47965)"
     width="113.963"
     height="32.761002" /><use
     x="0"
     y="0"
     xlink:href="#g12671"
     id="use12717"
     transform="matrix(0.6537729,0.5461147,0.7566909,-0.4718373,37.25861,4.8807883)"
     width="113.963"
     height="32.761002" /><use
     x="0"
     y="0"
     xlink:href="#g12671"
     id="use12707"
     transform="matrix(0.8413046,0.5405615,0.5405615,-0.8413046,35.766869,11.552521)"
     width="113.963"
     height="32.761002" /><use
     x="0"
     y="0"
     xlink:href="#g12671"
     id="use12709"
     transform="matrix(0.9663825,0.1667848,0.2571089,-0.6268858,38.649263,19.174204)"
     width="113.963"
     height="32.761002" /><use
     x="0"
     y="0"
     xlink:href="#g12671"
     id="use12711"
     transform="matrix(0.6537729,0.7566909,0.7566909,-0.6537729,33.32111,6.5958483e-2)"
     width="113.963"
     height="32.761002" /><use
     x="0"
     y="0"
     xlink:href="#g12671"
     id="use12713"
     transform="matrix(0.8131419,0.5820657,0.5820657,-0.8131419,25.619201,10.210069)"
     width="113.963"
     height="32.761002" /><use
     x="0"
     y="0"
     xlink:href="#g12671"
     id="use12715"
     transform="matrix(0.6537729,0.7566909,0.7566909,-0.6537729,25.25861,0.7524933)"
     width="113.963"
     height="32.761002" /><path
     sodipodi:type="arc"
     style="opacity:1;fill:url(#radialGradient12729);fill-opacity:1;stroke:#805b47;stroke-width:0.33238477;stroke-linecap:butt;stroke-linejoin:round;marker:none;stroke-miterlimit:4;stroke-dasharray:none;stroke-dashoffset:0;stroke-opacity:1;visibility:visible;display:inline;overflow:visible;enable-background:accumulate"
     id="path12719"
     sodipodi:cx="60.453125"
     sodipodi:cy="16.839127"
     sodipodi:rx="1.140625"
     sodipodi:ry="0.671875"
     d="M 61.59375,16.839127 A 1.140625,0.671875 0 1 1 59.3125,16.839127 A 1.140625,0.671875 0 1 1 61.59375,16.839127 z"
     transform="matrix(0.5143728,0.503141,-0.5497737,0.5620465,38.615389,-23.11903)" /><path
     sodipodi:type="arc"
     style="opacity:1;fill:url(#radialGradient12733);fill-opacity:1;stroke:#805b47;stroke-width:0.36891595;stroke-linecap:butt;stroke-linejoin:round;marker:none;stroke-miterlimit:4;stroke-dasharray:none;stroke-dashoffset:0;stroke-opacity:1;visibility:visible;display:inline;overflow:visible;enable-background:accumulate"
     id="path12731"
     sodipodi:cx="60.453125"
     sodipodi:cy="16.839127"
     sodipodi:rx="1.140625"
     sodipodi:ry="0.671875"
     d="M 61.59375,16.839127 A 1.140625,0.671875 0 1 1 59.3125,16.839127 A 1.140625,0.671875 0 1 1 61.59375,16.839127 z"
     transform="matrix(-0.5583363,-0.4538621,0.4025739,-0.495242,88.934413,53.169302)" /><path
     sodipodi:type="arc"
     style="opacity:1;fill:url(#radialGradient12737);fill-opacity:1;stroke:#805b47;stroke-width:0.33238477;stroke-linecap:butt;stroke-linejoin:round;marker:none;stroke-miterlimit:4;stroke-dasharray:none;stroke-dashoffset:0;stroke-opacity:1;visibility:visible;display:inline;overflow:visible;enable-background:accumulate"
     id="path12735"
     sodipodi:cx="60.453125"
     sodipodi:cy="16.839127"
     sodipodi:rx="1.140625"
     sodipodi:ry="0.671875"
     d="M 61.59375,16.839127 A 1.140625,0.671875 0 1 1 59.3125,16.839127 A 1.140625,0.671875 0 1 1 61.59375,16.839127 z"
     transform="matrix(0.624664,0.3571066,-0.3902044,0.6825598,30.237715,-17.291482)" /><path
     sodipodi:type="arc"
     style="opacity:1;fill:url(#radialGradient12741);fill-opacity:1;stroke:#805b47;stroke-width:0.33238477;stroke-linecap:butt;stroke-linejoin:round;marker:none;stroke-miterlimit:4;stroke-dasharray:none;stroke-dashoffset:0;stroke-opacity:1;visibility:visible;display:inline;overflow:visible;enable-background:accumulate"
     id="path12739"
     sodipodi:cx="60.453125"
     sodipodi:cy="16.839127"
     sodipodi:rx="1.140625"
     sodipodi:ry="0.671875"
     d="M 61.59375,16.839127 A 1.140625,0.671875 0 1 1 59.3125,16.839127 A 1.140625,0.671875 0 1 1 61.59375,16.839127 z"
     transform="matrix(0.4995865,-0.5178258,0.5658196,0.5458897,21.523656,36.488105)" /><path
     sodipodi:type="arc"
     style="opacity:1;fill:url(#radialGradient12745);fill-opacity:1;stroke:#805b47;stroke-width:0.33238477;stroke-linecap:butt;stroke-linejoin:round;marker:none;stroke-miterlimit:4;stroke-dasharray:none;stroke-dashoffset:0;stroke-opacity:1;visibility:visible;display:inline;overflow:visible;enable-background:accumulate"
     id="path12743"
     sodipodi:cx="60.453125"
     sodipodi:cy="16.839127"
     sodipodi:rx="1.140625"
     sodipodi:ry="0.671875"
     d="M 61.59375,16.839127 A 1.140625,0.671875 0 1 1 59.3125,16.839127 A 1.140625,0.671875 0 1 1 61.59375,16.839127 z"
     transform="matrix(0.4092814,-0.591793,0.6466423,0.4472149,26.991916,41.162843)" /><path
     sodipodi:type="arc"
     style="opacity:1;fill:url(#radialGradient12749);fill-opacity:1;stroke:#805b47;stroke-width:0.33238477;stroke-linecap:butt;stroke-linejoin:round;marker:none;stroke-miterlimit:4;stroke-dasharray:none;stroke-dashoffset:0;stroke-opacity:1;visibility:visible;display:inline;overflow:visible;enable-background:accumulate"
     id="path12747"
     sodipodi:cx="60.453125"
     sodipodi:cy="16.839127"
     sodipodi:rx="1.140625"
     sodipodi:ry="0.671875"
     d="M 61.59375,16.839127 A 1.140625,0.671875 0 1 1 59.3125,16.839127 A 1.140625,0.671875 0 1 1 61.59375,16.839127 z"
     transform="matrix(0.7195347,0,0,0.7862235,16.252403,2.7278976)" /><path
     sodipodi:type="arc"
     style="opacity:1;fill:url(#radialGradient12753);fill-opacity:1;stroke:#805b47;stroke-width:0.33238477;stroke-linecap:butt;stroke-linejoin:round;marker:none;stroke-miterlimit:4;stroke-dasharray:none;stroke-dashoffset:0;stroke-opacity:1;visibility:visible;display:inline;overflow:visible;enable-background:accumulate"
     id="path12751"
     sodipodi:cx="60.453125"
     sodipodi:cy="16.839127"
     sodipodi:rx="1.140625"
     sodipodi:ry="0.671875"
     d="M 61.59375,16.839127 A 1.140625,0.671875 0 1 1 59.3125,16.839127 A 1.140625,0.671875 0 1 1 61.59375,16.839127 z"
     transform="matrix(0.7195347,0,0,0.7862235,14.617219,3.0372569)" /><path
     sodipodi:type="arc"
     style="opacity:1;fill:url(#radialGradient12757);fill-opacity:1;stroke:#805b47;stroke-width:0.33238477;stroke-linecap:butt;stroke-linejoin:round;marker:none;stroke-miterlimit:4;stroke-dasharray:none;stroke-dashoffset:0;stroke-opacity:1;visibility:visible;display:inline;overflow:visible;enable-background:accumulate"
     id="path12755"
     sodipodi:cx="60.453125"
     sodipodi:cy="16.839127"
     sodipodi:rx="1.140625"
     sodipodi:ry="0.671875"
     d="M 61.59375,16.839127 A 1.140625,0.671875 0 1 1 59.3125,16.839127 A 1.140625,0.671875 0 1 1 61.59375,16.839127 z"
     transform="matrix(0.6956698,0.1837761,-0.2008091,0.7601468,24.482406,-7.1050986)" /><use
     x="0"
     y="0"
     xlink:href="#g12671"
     id="use12759"
     transform="matrix(0.9675576,-0.2526508,-0.2526508,-0.9675576,11.296226,46.083337)"
     width="113.963"
     height="32.761002" /><path
     sodipodi:type="arc"
     style="opacity:1;fill:url(#radialGradient12769);fill-opacity:1;stroke:#805b47;stroke-width:0.33238477;stroke-linecap:butt;stroke-linejoin:round;marker:none;stroke-miterlimit:4;stroke-dasharray:none;stroke-dashoffset:0;stroke-opacity:1;visibility:visible;display:inline;overflow:visible;enable-background:accumulate"
     id="path12761"
     sodipodi:cx="60.453125"
     sodipodi:cy="16.839127"
     sodipodi:rx="1.140625"
     sodipodi:ry="0.671875"
     d="M 61.59375,16.839127 A 1.140625,0.671875 0 1 1 59.3125,16.839127 A 1.140625,0.671875 0 1 1 61.59375,16.839127 z"
     transform="matrix(0.5143728,0.503141,-0.5497737,0.5620465,15.088403,-21.665527)" /><path
     sodipodi:type="arc"
     style="opacity:1;fill:url(#radialGradient12771);fill-opacity:1;stroke:#805b47;stroke-width:0.36891595;stroke-linecap:butt;stroke-linejoin:round;marker:none;stroke-miterlimit:4;stroke-dasharray:none;stroke-dashoffset:0;stroke-opacity:1;visibility:visible;display:inline;overflow:visible;enable-background:accumulate"
     id="path12763"
     sodipodi:cx="60.453125"
     sodipodi:cy="16.839127"
     sodipodi:rx="1.140625"
     sodipodi:ry="0.671875"
     d="M 61.59375,16.839127 A 1.140625,0.671875 0 1 1 59.3125,16.839127 A 1.140625,0.671875 0 1 1 61.59375,16.839127 z"
     transform="matrix(-0.5583363,-0.4538621,0.4025739,-0.495242,64.943389,53.805212)" /><path
     sodipodi:type="arc"
     style="opacity:1;fill:url(#radialGradient12775);fill-opacity:1;stroke:#805b47;stroke-width:0.33238477;stroke-linecap:butt;stroke-linejoin:round;marker:none;stroke-miterlimit:4;stroke-dasharray:none;stroke-dashoffset:0;stroke-opacity:1;visibility:visible;display:inline;overflow:visible;enable-background:accumulate"
     id="path12767"
     sodipodi:cx="60.453125"
     sodipodi:cy="16.839127"
     sodipodi:rx="1.140625"
     sodipodi:ry="0.671875"
     d="M 61.59375,16.839127 A 1.140625,0.671875 0 1 1 59.3125,16.839127 A 1.140625,0.671875 0 1 1 61.59375,16.839127 z"
     transform="matrix(0.6956698,0.1837761,-0.2008091,0.7601468,-0.1052389,-6.6459655)" /><path
     style="opacity:1;fill:#937633;fill-opacity:1;stroke:#805b47;stroke-width:0.25;stroke-linecap:butt;stroke-linejoin:round;marker:none;stroke-miterlimit:4;stroke-dasharray:none;stroke-dashoffset:0;stroke-opacity:1;visibility:visible;display:inline;overflow:visible;enable-background:accumulate"
     d="M 59.794719,15.481079 L 59.971495,14.309933"
     id="path12779" /><path
     style="opacity:1;fill:#937633;fill-opacity:1;stroke:#805b47;stroke-width:0.25;stroke-linecap:butt;stroke-linejoin:round;marker:none;stroke-miterlimit:4;stroke-dasharray:none;stroke-dashoffset:0;stroke-opacity:1;visibility:visible;display:inline;overflow:visible;enable-background:accumulate"
     d="M 60.943767,13.867991 L 60.987961,13.293467"
     id="path12781" /><path
     style="opacity:1;fill:#937633;fill-opacity:1;stroke:#805b47;stroke-width:0.25;stroke-linecap:butt;stroke-linejoin:round;marker:none;stroke-miterlimit:4;stroke-dasharray:none;stroke-dashoffset:0;stroke-opacity:1;visibility:visible;display:inline;overflow:visible;enable-background:accumulate"
     d="M 62.380078,15.105428 L 62.114913,15.768341"
     id="path12783" /><path
     style="opacity:1;fill:#937633;fill-opacity:1;stroke:#805b47;stroke-width:0.25;stroke-linecap:butt;stroke-linejoin:round;marker:none;stroke-miterlimit:4;stroke-dasharray:none;stroke-dashoffset:0;stroke-opacity:1;visibility:visible;display:inline;overflow:visible;enable-background:accumulate"
     d="M 60.192466,17.094166 L 60.081981,18.022244"
     id="path12785" /><path
     style="opacity:1;fill:#937633;fill-opacity:1;stroke:#805b47;stroke-width:0.25;stroke-linecap:butt;stroke-linejoin:round;marker:none;stroke-miterlimit:4;stroke-dasharray:none;stroke-dashoffset:0;stroke-opacity:1;visibility:visible;display:inline;overflow:visible;enable-background:accumulate"
     d="M 59.529554,16.453351 L 59.176,17.646593"
     id="path12787" /><path
     sodipodi:type="arc"
     style="opacity:1;fill:url(#radialGradient12793);fill-opacity:1;stroke:#805b47;stroke-width:0.33238477;stroke-linecap:butt;stroke-linejoin:round;marker:none;stroke-miterlimit:4;stroke-dasharray:none;stroke-dashoffset:0;stroke-opacity:1;visibility:visible;display:inline;overflow:visible;enable-background:accumulate"
     id="path12791"
     sodipodi:cx="60.453125"
     sodipodi:cy="16.839127"
     sodipodi:rx="1.140625"
     sodipodi:ry="0.671875"
     d="M 61.59375,16.839127 A 1.140625,0.671875 0 1 1 59.3125,16.839127 A 1.140625,0.671875 0 1 1 61.59375,16.839127 z"
     transform="matrix(0.624664,0.3571066,-0.3902044,0.6825598,28.182684,-15.899366)" /><path
     sodipodi:type="arc"
     style="opacity:1;fill:url(#radialGradient12797);fill-opacity:1;stroke:#805b47;stroke-width:0.33238477;stroke-linecap:butt;stroke-linejoin:round;marker:none;stroke-miterlimit:4;stroke-dasharray:none;stroke-dashoffset:0;stroke-opacity:1;visibility:visible;display:inline;overflow:visible;enable-background:accumulate"
     id="path12795"
     sodipodi:cx="60.453125"
     sodipodi:cy="16.839127"
     sodipodi:rx="1.140625"
     sodipodi:ry="0.671875"
     d="M 61.59375,16.839127 A 1.140625,0.671875 0 1 1 59.3125,16.839127 A 1.140625,0.671875 0 1 1 61.59375,16.839127 z"
     transform="matrix(0.4995865,-0.5178258,0.5658196,0.5458897,22.91577,36.620689)" /><use
     x="0"
     y="0"
     xlink:href="#g12671"
     id="use20213"
     transform="translate(21.924099,-3.0101788)"
     width="113.963"
     height="32.761002" /></g></svg>